G04 #@! TF.GenerationSoftware,KiCad,Pcbnew,(5.1.2)-2*
G04 #@! TF.CreationDate,2019-09-18T13:02:43-07:00*
G04 #@! TF.ProjectId,Cable Tester Board,4361626c-6520-4546-9573-74657220426f,rev?*
G04 #@! TF.SameCoordinates,Original*
G04 #@! TF.FileFunction,Soldermask,Bot*
G04 #@! TF.FilePolarity,Negative*
%FSLAX46Y46*%
G04 Gerber Fmt 4.6, Leading zero omitted, Abs format (unit mm)*
G04 Created by KiCad (PCBNEW (5.1.2)-2) date 2019-09-18 13:02:43*
%MOMM*%
%LPD*%
G04 APERTURE LIST*
%ADD10C,0.050000*%
%ADD11C,0.100000*%
G04 APERTURE END LIST*
D10*
X27100000Y-29500000D02*
X27100000Y-135500000D01*
X27100000Y-135500000D02*
X185000000Y-135500000D01*
X185000000Y-29500000D02*
X185000000Y-135500000D01*
X27100000Y-29500000D02*
X185000000Y-29500000D01*
D11*
G36*
X146698228Y-125281703D02*
G01*
X146853100Y-125345853D01*
X146992481Y-125438985D01*
X147111015Y-125557519D01*
X147204147Y-125696900D01*
X147268297Y-125851772D01*
X147301000Y-126016184D01*
X147301000Y-126183816D01*
X147268297Y-126348228D01*
X147204147Y-126503100D01*
X147111015Y-126642481D01*
X146992481Y-126761015D01*
X146853100Y-126854147D01*
X146698228Y-126918297D01*
X146533816Y-126951000D01*
X146366184Y-126951000D01*
X146201772Y-126918297D01*
X146046900Y-126854147D01*
X145907519Y-126761015D01*
X145788985Y-126642481D01*
X145695853Y-126503100D01*
X145631703Y-126348228D01*
X145599000Y-126183816D01*
X145599000Y-126016184D01*
X145631703Y-125851772D01*
X145695853Y-125696900D01*
X145788985Y-125557519D01*
X145907519Y-125438985D01*
X146046900Y-125345853D01*
X146201772Y-125281703D01*
X146366184Y-125249000D01*
X146533816Y-125249000D01*
X146698228Y-125281703D01*
X146698228Y-125281703D01*
G37*
G36*
X160398228Y-124781703D02*
G01*
X160553100Y-124845853D01*
X160692481Y-124938985D01*
X160811015Y-125057519D01*
X160904147Y-125196900D01*
X160968297Y-125351772D01*
X161001000Y-125516184D01*
X161001000Y-125683816D01*
X160968297Y-125848228D01*
X160904147Y-126003100D01*
X160811015Y-126142481D01*
X160692481Y-126261015D01*
X160553100Y-126354147D01*
X160398228Y-126418297D01*
X160233816Y-126451000D01*
X160066184Y-126451000D01*
X159901772Y-126418297D01*
X159746900Y-126354147D01*
X159607519Y-126261015D01*
X159488985Y-126142481D01*
X159395853Y-126003100D01*
X159331703Y-125848228D01*
X159299000Y-125683816D01*
X159299000Y-125516184D01*
X159331703Y-125351772D01*
X159395853Y-125196900D01*
X159488985Y-125057519D01*
X159607519Y-124938985D01*
X159746900Y-124845853D01*
X159901772Y-124781703D01*
X160066184Y-124749000D01*
X160233816Y-124749000D01*
X160398228Y-124781703D01*
X160398228Y-124781703D01*
G37*
G36*
X81998228Y-124281703D02*
G01*
X82153100Y-124345853D01*
X82292481Y-124438985D01*
X82411015Y-124557519D01*
X82504147Y-124696900D01*
X82568297Y-124851772D01*
X82601000Y-125016184D01*
X82601000Y-125183816D01*
X82568297Y-125348228D01*
X82504147Y-125503100D01*
X82411015Y-125642481D01*
X82292481Y-125761015D01*
X82153100Y-125854147D01*
X81998228Y-125918297D01*
X81833816Y-125951000D01*
X81666184Y-125951000D01*
X81501772Y-125918297D01*
X81346900Y-125854147D01*
X81207519Y-125761015D01*
X81088985Y-125642481D01*
X80995853Y-125503100D01*
X80931703Y-125348228D01*
X80899000Y-125183816D01*
X80899000Y-125016184D01*
X80931703Y-124851772D01*
X80995853Y-124696900D01*
X81088985Y-124557519D01*
X81207519Y-124438985D01*
X81346900Y-124345853D01*
X81501772Y-124281703D01*
X81666184Y-124249000D01*
X81833816Y-124249000D01*
X81998228Y-124281703D01*
X81998228Y-124281703D01*
G37*
G36*
X95698228Y-123781703D02*
G01*
X95853100Y-123845853D01*
X95992481Y-123938985D01*
X96111015Y-124057519D01*
X96204147Y-124196900D01*
X96268297Y-124351772D01*
X96301000Y-124516184D01*
X96301000Y-124683816D01*
X96268297Y-124848228D01*
X96204147Y-125003100D01*
X96111015Y-125142481D01*
X95992481Y-125261015D01*
X95853100Y-125354147D01*
X95698228Y-125418297D01*
X95533816Y-125451000D01*
X95366184Y-125451000D01*
X95201772Y-125418297D01*
X95046900Y-125354147D01*
X94907519Y-125261015D01*
X94788985Y-125142481D01*
X94695853Y-125003100D01*
X94631703Y-124848228D01*
X94599000Y-124683816D01*
X94599000Y-124516184D01*
X94631703Y-124351772D01*
X94695853Y-124196900D01*
X94788985Y-124057519D01*
X94907519Y-123938985D01*
X95046900Y-123845853D01*
X95201772Y-123781703D01*
X95366184Y-123749000D01*
X95533816Y-123749000D01*
X95698228Y-123781703D01*
X95698228Y-123781703D01*
G37*
G36*
X146698228Y-123281703D02*
G01*
X146853100Y-123345853D01*
X146992481Y-123438985D01*
X147111015Y-123557519D01*
X147204147Y-123696900D01*
X147268297Y-123851772D01*
X147301000Y-124016184D01*
X147301000Y-124183816D01*
X147268297Y-124348228D01*
X147204147Y-124503100D01*
X147111015Y-124642481D01*
X146992481Y-124761015D01*
X146853100Y-124854147D01*
X146698228Y-124918297D01*
X146533816Y-124951000D01*
X146366184Y-124951000D01*
X146201772Y-124918297D01*
X146046900Y-124854147D01*
X145907519Y-124761015D01*
X145788985Y-124642481D01*
X145695853Y-124503100D01*
X145631703Y-124348228D01*
X145599000Y-124183816D01*
X145599000Y-124016184D01*
X145631703Y-123851772D01*
X145695853Y-123696900D01*
X145788985Y-123557519D01*
X145907519Y-123438985D01*
X146046900Y-123345853D01*
X146201772Y-123281703D01*
X146366184Y-123249000D01*
X146533816Y-123249000D01*
X146698228Y-123281703D01*
X146698228Y-123281703D01*
G37*
G36*
X160398228Y-122781703D02*
G01*
X160553100Y-122845853D01*
X160692481Y-122938985D01*
X160811015Y-123057519D01*
X160904147Y-123196900D01*
X160968297Y-123351772D01*
X161001000Y-123516184D01*
X161001000Y-123683816D01*
X160968297Y-123848228D01*
X160904147Y-124003100D01*
X160811015Y-124142481D01*
X160692481Y-124261015D01*
X160553100Y-124354147D01*
X160398228Y-124418297D01*
X160233816Y-124451000D01*
X160066184Y-124451000D01*
X159901772Y-124418297D01*
X159746900Y-124354147D01*
X159607519Y-124261015D01*
X159488985Y-124142481D01*
X159395853Y-124003100D01*
X159331703Y-123848228D01*
X159299000Y-123683816D01*
X159299000Y-123516184D01*
X159331703Y-123351772D01*
X159395853Y-123196900D01*
X159488985Y-123057519D01*
X159607519Y-122938985D01*
X159746900Y-122845853D01*
X159901772Y-122781703D01*
X160066184Y-122749000D01*
X160233816Y-122749000D01*
X160398228Y-122781703D01*
X160398228Y-122781703D01*
G37*
G36*
X81998228Y-122281703D02*
G01*
X82153100Y-122345853D01*
X82292481Y-122438985D01*
X82411015Y-122557519D01*
X82504147Y-122696900D01*
X82568297Y-122851772D01*
X82601000Y-123016184D01*
X82601000Y-123183816D01*
X82568297Y-123348228D01*
X82504147Y-123503100D01*
X82411015Y-123642481D01*
X82292481Y-123761015D01*
X82153100Y-123854147D01*
X81998228Y-123918297D01*
X81833816Y-123951000D01*
X81666184Y-123951000D01*
X81501772Y-123918297D01*
X81346900Y-123854147D01*
X81207519Y-123761015D01*
X81088985Y-123642481D01*
X80995853Y-123503100D01*
X80931703Y-123348228D01*
X80899000Y-123183816D01*
X80899000Y-123016184D01*
X80931703Y-122851772D01*
X80995853Y-122696900D01*
X81088985Y-122557519D01*
X81207519Y-122438985D01*
X81346900Y-122345853D01*
X81501772Y-122281703D01*
X81666184Y-122249000D01*
X81833816Y-122249000D01*
X81998228Y-122281703D01*
X81998228Y-122281703D01*
G37*
G36*
X95698228Y-121781703D02*
G01*
X95853100Y-121845853D01*
X95992481Y-121938985D01*
X96111015Y-122057519D01*
X96204147Y-122196900D01*
X96268297Y-122351772D01*
X96301000Y-122516184D01*
X96301000Y-122683816D01*
X96268297Y-122848228D01*
X96204147Y-123003100D01*
X96111015Y-123142481D01*
X95992481Y-123261015D01*
X95853100Y-123354147D01*
X95698228Y-123418297D01*
X95533816Y-123451000D01*
X95366184Y-123451000D01*
X95201772Y-123418297D01*
X95046900Y-123354147D01*
X94907519Y-123261015D01*
X94788985Y-123142481D01*
X94695853Y-123003100D01*
X94631703Y-122848228D01*
X94599000Y-122683816D01*
X94599000Y-122516184D01*
X94631703Y-122351772D01*
X94695853Y-122196900D01*
X94788985Y-122057519D01*
X94907519Y-121938985D01*
X95046900Y-121845853D01*
X95201772Y-121781703D01*
X95366184Y-121749000D01*
X95533816Y-121749000D01*
X95698228Y-121781703D01*
X95698228Y-121781703D01*
G37*
G36*
X112098228Y-101781703D02*
G01*
X112253100Y-101845853D01*
X112392481Y-101938985D01*
X112511015Y-102057519D01*
X112604147Y-102196900D01*
X112668297Y-102351772D01*
X112701000Y-102516184D01*
X112701000Y-102683816D01*
X112668297Y-102848228D01*
X112604147Y-103003100D01*
X112511015Y-103142481D01*
X112392481Y-103261015D01*
X112253100Y-103354147D01*
X112098228Y-103418297D01*
X111933816Y-103451000D01*
X111766184Y-103451000D01*
X111601772Y-103418297D01*
X111446900Y-103354147D01*
X111307519Y-103261015D01*
X111188985Y-103142481D01*
X111095853Y-103003100D01*
X111031703Y-102848228D01*
X110999000Y-102683816D01*
X110999000Y-102516184D01*
X111031703Y-102351772D01*
X111095853Y-102196900D01*
X111188985Y-102057519D01*
X111307519Y-101938985D01*
X111446900Y-101845853D01*
X111601772Y-101781703D01*
X111766184Y-101749000D01*
X111933816Y-101749000D01*
X112098228Y-101781703D01*
X112098228Y-101781703D01*
G37*
G36*
X125798228Y-101281703D02*
G01*
X125953100Y-101345853D01*
X126092481Y-101438985D01*
X126211015Y-101557519D01*
X126304147Y-101696900D01*
X126368297Y-101851772D01*
X126401000Y-102016184D01*
X126401000Y-102183816D01*
X126368297Y-102348228D01*
X126304147Y-102503100D01*
X126211015Y-102642481D01*
X126092481Y-102761015D01*
X125953100Y-102854147D01*
X125798228Y-102918297D01*
X125633816Y-102951000D01*
X125466184Y-102951000D01*
X125301772Y-102918297D01*
X125146900Y-102854147D01*
X125007519Y-102761015D01*
X124888985Y-102642481D01*
X124795853Y-102503100D01*
X124731703Y-102348228D01*
X124699000Y-102183816D01*
X124699000Y-102016184D01*
X124731703Y-101851772D01*
X124795853Y-101696900D01*
X124888985Y-101557519D01*
X125007519Y-101438985D01*
X125146900Y-101345853D01*
X125301772Y-101281703D01*
X125466184Y-101249000D01*
X125633816Y-101249000D01*
X125798228Y-101281703D01*
X125798228Y-101281703D01*
G37*
G36*
X112098228Y-99781703D02*
G01*
X112253100Y-99845853D01*
X112392481Y-99938985D01*
X112511015Y-100057519D01*
X112604147Y-100196900D01*
X112668297Y-100351772D01*
X112701000Y-100516184D01*
X112701000Y-100683816D01*
X112668297Y-100848228D01*
X112604147Y-101003100D01*
X112511015Y-101142481D01*
X112392481Y-101261015D01*
X112253100Y-101354147D01*
X112098228Y-101418297D01*
X111933816Y-101451000D01*
X111766184Y-101451000D01*
X111601772Y-101418297D01*
X111446900Y-101354147D01*
X111307519Y-101261015D01*
X111188985Y-101142481D01*
X111095853Y-101003100D01*
X111031703Y-100848228D01*
X110999000Y-100683816D01*
X110999000Y-100516184D01*
X111031703Y-100351772D01*
X111095853Y-100196900D01*
X111188985Y-100057519D01*
X111307519Y-99938985D01*
X111446900Y-99845853D01*
X111601772Y-99781703D01*
X111766184Y-99749000D01*
X111933816Y-99749000D01*
X112098228Y-99781703D01*
X112098228Y-99781703D01*
G37*
G36*
X125798228Y-99281703D02*
G01*
X125953100Y-99345853D01*
X126092481Y-99438985D01*
X126211015Y-99557519D01*
X126304147Y-99696900D01*
X126368297Y-99851772D01*
X126401000Y-100016184D01*
X126401000Y-100183816D01*
X126368297Y-100348228D01*
X126304147Y-100503100D01*
X126211015Y-100642481D01*
X126092481Y-100761015D01*
X125953100Y-100854147D01*
X125798228Y-100918297D01*
X125633816Y-100951000D01*
X125466184Y-100951000D01*
X125301772Y-100918297D01*
X125146900Y-100854147D01*
X125007519Y-100761015D01*
X124888985Y-100642481D01*
X124795853Y-100503100D01*
X124731703Y-100348228D01*
X124699000Y-100183816D01*
X124699000Y-100016184D01*
X124731703Y-99851772D01*
X124795853Y-99696900D01*
X124888985Y-99557519D01*
X125007519Y-99438985D01*
X125146900Y-99345853D01*
X125301772Y-99281703D01*
X125466184Y-99249000D01*
X125633816Y-99249000D01*
X125798228Y-99281703D01*
X125798228Y-99281703D01*
G37*
G36*
X121647142Y-83388242D02*
G01*
X121795101Y-83449529D01*
X121928255Y-83538499D01*
X122041501Y-83651745D01*
X122130471Y-83784899D01*
X122191758Y-83932858D01*
X122223000Y-84089925D01*
X122223000Y-84250075D01*
X122191758Y-84407142D01*
X122130471Y-84555101D01*
X122041501Y-84688255D01*
X121928255Y-84801501D01*
X121795101Y-84890471D01*
X121647142Y-84951758D01*
X121490075Y-84983000D01*
X121329925Y-84983000D01*
X121172858Y-84951758D01*
X121024899Y-84890471D01*
X120891745Y-84801501D01*
X120778499Y-84688255D01*
X120689529Y-84555101D01*
X120628242Y-84407142D01*
X120597000Y-84250075D01*
X120597000Y-84089925D01*
X120628242Y-83932858D01*
X120689529Y-83784899D01*
X120778499Y-83651745D01*
X120891745Y-83538499D01*
X121024899Y-83449529D01*
X121172858Y-83388242D01*
X121329925Y-83357000D01*
X121490075Y-83357000D01*
X121647142Y-83388242D01*
X121647142Y-83388242D01*
G37*
G36*
X116567142Y-83388242D02*
G01*
X116715101Y-83449529D01*
X116848255Y-83538499D01*
X116961501Y-83651745D01*
X117050471Y-83784899D01*
X117111758Y-83932858D01*
X117143000Y-84089925D01*
X117143000Y-84250075D01*
X117111758Y-84407142D01*
X117050471Y-84555101D01*
X116961501Y-84688255D01*
X116848255Y-84801501D01*
X116715101Y-84890471D01*
X116567142Y-84951758D01*
X116410075Y-84983000D01*
X116249925Y-84983000D01*
X116092858Y-84951758D01*
X115944899Y-84890471D01*
X115811745Y-84801501D01*
X115698499Y-84688255D01*
X115609529Y-84555101D01*
X115548242Y-84407142D01*
X115517000Y-84250075D01*
X115517000Y-84089925D01*
X115548242Y-83932858D01*
X115609529Y-83784899D01*
X115698499Y-83651745D01*
X115811745Y-83538499D01*
X115944899Y-83449529D01*
X116092858Y-83388242D01*
X116249925Y-83357000D01*
X116410075Y-83357000D01*
X116567142Y-83388242D01*
X116567142Y-83388242D01*
G37*
G36*
X119107142Y-83388242D02*
G01*
X119255101Y-83449529D01*
X119388255Y-83538499D01*
X119501501Y-83651745D01*
X119590471Y-83784899D01*
X119651758Y-83932858D01*
X119683000Y-84089925D01*
X119683000Y-84250075D01*
X119651758Y-84407142D01*
X119590471Y-84555101D01*
X119501501Y-84688255D01*
X119388255Y-84801501D01*
X119255101Y-84890471D01*
X119107142Y-84951758D01*
X118950075Y-84983000D01*
X118789925Y-84983000D01*
X118632858Y-84951758D01*
X118484899Y-84890471D01*
X118351745Y-84801501D01*
X118238499Y-84688255D01*
X118149529Y-84555101D01*
X118088242Y-84407142D01*
X118057000Y-84250075D01*
X118057000Y-84089925D01*
X118088242Y-83932858D01*
X118149529Y-83784899D01*
X118238499Y-83651745D01*
X118351745Y-83538499D01*
X118484899Y-83449529D01*
X118632858Y-83388242D01*
X118789925Y-83357000D01*
X118950075Y-83357000D01*
X119107142Y-83388242D01*
X119107142Y-83388242D01*
G37*
G36*
X114027142Y-83388242D02*
G01*
X114175101Y-83449529D01*
X114308255Y-83538499D01*
X114421501Y-83651745D01*
X114510471Y-83784899D01*
X114571758Y-83932858D01*
X114603000Y-84089925D01*
X114603000Y-84250075D01*
X114571758Y-84407142D01*
X114510471Y-84555101D01*
X114421501Y-84688255D01*
X114308255Y-84801501D01*
X114175101Y-84890471D01*
X114027142Y-84951758D01*
X113870075Y-84983000D01*
X113709925Y-84983000D01*
X113552858Y-84951758D01*
X113404899Y-84890471D01*
X113271745Y-84801501D01*
X113158499Y-84688255D01*
X113069529Y-84555101D01*
X113008242Y-84407142D01*
X112977000Y-84250075D01*
X112977000Y-84089925D01*
X113008242Y-83932858D01*
X113069529Y-83784899D01*
X113158499Y-83651745D01*
X113271745Y-83538499D01*
X113404899Y-83449529D01*
X113552858Y-83388242D01*
X113709925Y-83357000D01*
X113870075Y-83357000D01*
X114027142Y-83388242D01*
X114027142Y-83388242D01*
G37*
G36*
X111487142Y-83388242D02*
G01*
X111635101Y-83449529D01*
X111768255Y-83538499D01*
X111881501Y-83651745D01*
X111970471Y-83784899D01*
X112031758Y-83932858D01*
X112063000Y-84089925D01*
X112063000Y-84250075D01*
X112031758Y-84407142D01*
X111970471Y-84555101D01*
X111881501Y-84688255D01*
X111768255Y-84801501D01*
X111635101Y-84890471D01*
X111487142Y-84951758D01*
X111330075Y-84983000D01*
X111169925Y-84983000D01*
X111012858Y-84951758D01*
X110864899Y-84890471D01*
X110731745Y-84801501D01*
X110618499Y-84688255D01*
X110529529Y-84555101D01*
X110468242Y-84407142D01*
X110437000Y-84250075D01*
X110437000Y-84089925D01*
X110468242Y-83932858D01*
X110529529Y-83784899D01*
X110618499Y-83651745D01*
X110731745Y-83538499D01*
X110864899Y-83449529D01*
X111012858Y-83388242D01*
X111169925Y-83357000D01*
X111330075Y-83357000D01*
X111487142Y-83388242D01*
X111487142Y-83388242D01*
G37*
G36*
X108947142Y-83388242D02*
G01*
X109095101Y-83449529D01*
X109228255Y-83538499D01*
X109341501Y-83651745D01*
X109430471Y-83784899D01*
X109491758Y-83932858D01*
X109523000Y-84089925D01*
X109523000Y-84250075D01*
X109491758Y-84407142D01*
X109430471Y-84555101D01*
X109341501Y-84688255D01*
X109228255Y-84801501D01*
X109095101Y-84890471D01*
X108947142Y-84951758D01*
X108790075Y-84983000D01*
X108629925Y-84983000D01*
X108472858Y-84951758D01*
X108324899Y-84890471D01*
X108191745Y-84801501D01*
X108078499Y-84688255D01*
X107989529Y-84555101D01*
X107928242Y-84407142D01*
X107897000Y-84250075D01*
X107897000Y-84089925D01*
X107928242Y-83932858D01*
X107989529Y-83784899D01*
X108078499Y-83651745D01*
X108191745Y-83538499D01*
X108324899Y-83449529D01*
X108472858Y-83388242D01*
X108629925Y-83357000D01*
X108790075Y-83357000D01*
X108947142Y-83388242D01*
X108947142Y-83388242D01*
G37*
G36*
X103867142Y-83388242D02*
G01*
X104015101Y-83449529D01*
X104148255Y-83538499D01*
X104261501Y-83651745D01*
X104350471Y-83784899D01*
X104411758Y-83932858D01*
X104443000Y-84089925D01*
X104443000Y-84250075D01*
X104411758Y-84407142D01*
X104350471Y-84555101D01*
X104261501Y-84688255D01*
X104148255Y-84801501D01*
X104015101Y-84890471D01*
X103867142Y-84951758D01*
X103710075Y-84983000D01*
X103549925Y-84983000D01*
X103392858Y-84951758D01*
X103244899Y-84890471D01*
X103111745Y-84801501D01*
X102998499Y-84688255D01*
X102909529Y-84555101D01*
X102848242Y-84407142D01*
X102817000Y-84250075D01*
X102817000Y-84089925D01*
X102848242Y-83932858D01*
X102909529Y-83784899D01*
X102998499Y-83651745D01*
X103111745Y-83538499D01*
X103244899Y-83449529D01*
X103392858Y-83388242D01*
X103549925Y-83357000D01*
X103710075Y-83357000D01*
X103867142Y-83388242D01*
X103867142Y-83388242D01*
G37*
G36*
X101327142Y-83388242D02*
G01*
X101475101Y-83449529D01*
X101608255Y-83538499D01*
X101721501Y-83651745D01*
X101810471Y-83784899D01*
X101871758Y-83932858D01*
X101903000Y-84089925D01*
X101903000Y-84250075D01*
X101871758Y-84407142D01*
X101810471Y-84555101D01*
X101721501Y-84688255D01*
X101608255Y-84801501D01*
X101475101Y-84890471D01*
X101327142Y-84951758D01*
X101170075Y-84983000D01*
X101009925Y-84983000D01*
X100852858Y-84951758D01*
X100704899Y-84890471D01*
X100571745Y-84801501D01*
X100458499Y-84688255D01*
X100369529Y-84555101D01*
X100308242Y-84407142D01*
X100277000Y-84250075D01*
X100277000Y-84089925D01*
X100308242Y-83932858D01*
X100369529Y-83784899D01*
X100458499Y-83651745D01*
X100571745Y-83538499D01*
X100704899Y-83449529D01*
X100852858Y-83388242D01*
X101009925Y-83357000D01*
X101170075Y-83357000D01*
X101327142Y-83388242D01*
X101327142Y-83388242D01*
G37*
G36*
X98787142Y-83388242D02*
G01*
X98935101Y-83449529D01*
X99068255Y-83538499D01*
X99181501Y-83651745D01*
X99270471Y-83784899D01*
X99331758Y-83932858D01*
X99363000Y-84089925D01*
X99363000Y-84250075D01*
X99331758Y-84407142D01*
X99270471Y-84555101D01*
X99181501Y-84688255D01*
X99068255Y-84801501D01*
X98935101Y-84890471D01*
X98787142Y-84951758D01*
X98630075Y-84983000D01*
X98469925Y-84983000D01*
X98312858Y-84951758D01*
X98164899Y-84890471D01*
X98031745Y-84801501D01*
X97918499Y-84688255D01*
X97829529Y-84555101D01*
X97768242Y-84407142D01*
X97737000Y-84250075D01*
X97737000Y-84089925D01*
X97768242Y-83932858D01*
X97829529Y-83784899D01*
X97918499Y-83651745D01*
X98031745Y-83538499D01*
X98164899Y-83449529D01*
X98312858Y-83388242D01*
X98469925Y-83357000D01*
X98630075Y-83357000D01*
X98787142Y-83388242D01*
X98787142Y-83388242D01*
G37*
G36*
X96247142Y-83388242D02*
G01*
X96395101Y-83449529D01*
X96528255Y-83538499D01*
X96641501Y-83651745D01*
X96730471Y-83784899D01*
X96791758Y-83932858D01*
X96823000Y-84089925D01*
X96823000Y-84250075D01*
X96791758Y-84407142D01*
X96730471Y-84555101D01*
X96641501Y-84688255D01*
X96528255Y-84801501D01*
X96395101Y-84890471D01*
X96247142Y-84951758D01*
X96090075Y-84983000D01*
X95929925Y-84983000D01*
X95772858Y-84951758D01*
X95624899Y-84890471D01*
X95491745Y-84801501D01*
X95378499Y-84688255D01*
X95289529Y-84555101D01*
X95228242Y-84407142D01*
X95197000Y-84250075D01*
X95197000Y-84089925D01*
X95228242Y-83932858D01*
X95289529Y-83784899D01*
X95378499Y-83651745D01*
X95491745Y-83538499D01*
X95624899Y-83449529D01*
X95772858Y-83388242D01*
X95929925Y-83357000D01*
X96090075Y-83357000D01*
X96247142Y-83388242D01*
X96247142Y-83388242D01*
G37*
G36*
X93707142Y-83388242D02*
G01*
X93855101Y-83449529D01*
X93988255Y-83538499D01*
X94101501Y-83651745D01*
X94190471Y-83784899D01*
X94251758Y-83932858D01*
X94283000Y-84089925D01*
X94283000Y-84250075D01*
X94251758Y-84407142D01*
X94190471Y-84555101D01*
X94101501Y-84688255D01*
X93988255Y-84801501D01*
X93855101Y-84890471D01*
X93707142Y-84951758D01*
X93550075Y-84983000D01*
X93389925Y-84983000D01*
X93232858Y-84951758D01*
X93084899Y-84890471D01*
X92951745Y-84801501D01*
X92838499Y-84688255D01*
X92749529Y-84555101D01*
X92688242Y-84407142D01*
X92657000Y-84250075D01*
X92657000Y-84089925D01*
X92688242Y-83932858D01*
X92749529Y-83784899D01*
X92838499Y-83651745D01*
X92951745Y-83538499D01*
X93084899Y-83449529D01*
X93232858Y-83388242D01*
X93389925Y-83357000D01*
X93550075Y-83357000D01*
X93707142Y-83388242D01*
X93707142Y-83388242D01*
G37*
G36*
X91167142Y-83388242D02*
G01*
X91315101Y-83449529D01*
X91448255Y-83538499D01*
X91561501Y-83651745D01*
X91650471Y-83784899D01*
X91711758Y-83932858D01*
X91743000Y-84089925D01*
X91743000Y-84250075D01*
X91711758Y-84407142D01*
X91650471Y-84555101D01*
X91561501Y-84688255D01*
X91448255Y-84801501D01*
X91315101Y-84890471D01*
X91167142Y-84951758D01*
X91010075Y-84983000D01*
X90849925Y-84983000D01*
X90692858Y-84951758D01*
X90544899Y-84890471D01*
X90411745Y-84801501D01*
X90298499Y-84688255D01*
X90209529Y-84555101D01*
X90148242Y-84407142D01*
X90117000Y-84250075D01*
X90117000Y-84089925D01*
X90148242Y-83932858D01*
X90209529Y-83784899D01*
X90298499Y-83651745D01*
X90411745Y-83538499D01*
X90544899Y-83449529D01*
X90692858Y-83388242D01*
X90849925Y-83357000D01*
X91010075Y-83357000D01*
X91167142Y-83388242D01*
X91167142Y-83388242D01*
G37*
G36*
X88627142Y-83388242D02*
G01*
X88775101Y-83449529D01*
X88908255Y-83538499D01*
X89021501Y-83651745D01*
X89110471Y-83784899D01*
X89171758Y-83932858D01*
X89203000Y-84089925D01*
X89203000Y-84250075D01*
X89171758Y-84407142D01*
X89110471Y-84555101D01*
X89021501Y-84688255D01*
X88908255Y-84801501D01*
X88775101Y-84890471D01*
X88627142Y-84951758D01*
X88470075Y-84983000D01*
X88309925Y-84983000D01*
X88152858Y-84951758D01*
X88004899Y-84890471D01*
X87871745Y-84801501D01*
X87758499Y-84688255D01*
X87669529Y-84555101D01*
X87608242Y-84407142D01*
X87577000Y-84250075D01*
X87577000Y-84089925D01*
X87608242Y-83932858D01*
X87669529Y-83784899D01*
X87758499Y-83651745D01*
X87871745Y-83538499D01*
X88004899Y-83449529D01*
X88152858Y-83388242D01*
X88309925Y-83357000D01*
X88470075Y-83357000D01*
X88627142Y-83388242D01*
X88627142Y-83388242D01*
G37*
G36*
X86087142Y-83388242D02*
G01*
X86235101Y-83449529D01*
X86368255Y-83538499D01*
X86481501Y-83651745D01*
X86570471Y-83784899D01*
X86631758Y-83932858D01*
X86663000Y-84089925D01*
X86663000Y-84250075D01*
X86631758Y-84407142D01*
X86570471Y-84555101D01*
X86481501Y-84688255D01*
X86368255Y-84801501D01*
X86235101Y-84890471D01*
X86087142Y-84951758D01*
X85930075Y-84983000D01*
X85769925Y-84983000D01*
X85612858Y-84951758D01*
X85464899Y-84890471D01*
X85331745Y-84801501D01*
X85218499Y-84688255D01*
X85129529Y-84555101D01*
X85068242Y-84407142D01*
X85037000Y-84250075D01*
X85037000Y-84089925D01*
X85068242Y-83932858D01*
X85129529Y-83784899D01*
X85218499Y-83651745D01*
X85331745Y-83538499D01*
X85464899Y-83449529D01*
X85612858Y-83388242D01*
X85769925Y-83357000D01*
X85930075Y-83357000D01*
X86087142Y-83388242D01*
X86087142Y-83388242D01*
G37*
G36*
X83547142Y-83388242D02*
G01*
X83695101Y-83449529D01*
X83828255Y-83538499D01*
X83941501Y-83651745D01*
X84030471Y-83784899D01*
X84091758Y-83932858D01*
X84123000Y-84089925D01*
X84123000Y-84250075D01*
X84091758Y-84407142D01*
X84030471Y-84555101D01*
X83941501Y-84688255D01*
X83828255Y-84801501D01*
X83695101Y-84890471D01*
X83547142Y-84951758D01*
X83390075Y-84983000D01*
X83229925Y-84983000D01*
X83072858Y-84951758D01*
X82924899Y-84890471D01*
X82791745Y-84801501D01*
X82678499Y-84688255D01*
X82589529Y-84555101D01*
X82528242Y-84407142D01*
X82497000Y-84250075D01*
X82497000Y-84089925D01*
X82528242Y-83932858D01*
X82589529Y-83784899D01*
X82678499Y-83651745D01*
X82791745Y-83538499D01*
X82924899Y-83449529D01*
X83072858Y-83388242D01*
X83229925Y-83357000D01*
X83390075Y-83357000D01*
X83547142Y-83388242D01*
X83547142Y-83388242D01*
G37*
G36*
X81007142Y-83388242D02*
G01*
X81155101Y-83449529D01*
X81288255Y-83538499D01*
X81401501Y-83651745D01*
X81490471Y-83784899D01*
X81551758Y-83932858D01*
X81583000Y-84089925D01*
X81583000Y-84250075D01*
X81551758Y-84407142D01*
X81490471Y-84555101D01*
X81401501Y-84688255D01*
X81288255Y-84801501D01*
X81155101Y-84890471D01*
X81007142Y-84951758D01*
X80850075Y-84983000D01*
X80689925Y-84983000D01*
X80532858Y-84951758D01*
X80384899Y-84890471D01*
X80251745Y-84801501D01*
X80138499Y-84688255D01*
X80049529Y-84555101D01*
X79988242Y-84407142D01*
X79957000Y-84250075D01*
X79957000Y-84089925D01*
X79988242Y-83932858D01*
X80049529Y-83784899D01*
X80138499Y-83651745D01*
X80251745Y-83538499D01*
X80384899Y-83449529D01*
X80532858Y-83388242D01*
X80689925Y-83357000D01*
X80850075Y-83357000D01*
X81007142Y-83388242D01*
X81007142Y-83388242D01*
G37*
G36*
X106407142Y-83388242D02*
G01*
X106555101Y-83449529D01*
X106688255Y-83538499D01*
X106801501Y-83651745D01*
X106890471Y-83784899D01*
X106951758Y-83932858D01*
X106983000Y-84089925D01*
X106983000Y-84250075D01*
X106951758Y-84407142D01*
X106890471Y-84555101D01*
X106801501Y-84688255D01*
X106688255Y-84801501D01*
X106555101Y-84890471D01*
X106407142Y-84951758D01*
X106250075Y-84983000D01*
X106089925Y-84983000D01*
X105932858Y-84951758D01*
X105784899Y-84890471D01*
X105651745Y-84801501D01*
X105538499Y-84688255D01*
X105449529Y-84555101D01*
X105388242Y-84407142D01*
X105357000Y-84250075D01*
X105357000Y-84089925D01*
X105388242Y-83932858D01*
X105449529Y-83784899D01*
X105538499Y-83651745D01*
X105651745Y-83538499D01*
X105784899Y-83449529D01*
X105932858Y-83388242D01*
X106089925Y-83357000D01*
X106250075Y-83357000D01*
X106407142Y-83388242D01*
X106407142Y-83388242D01*
G37*
G36*
X75927142Y-83388242D02*
G01*
X76075101Y-83449529D01*
X76208255Y-83538499D01*
X76321501Y-83651745D01*
X76410471Y-83784899D01*
X76471758Y-83932858D01*
X76503000Y-84089925D01*
X76503000Y-84250075D01*
X76471758Y-84407142D01*
X76410471Y-84555101D01*
X76321501Y-84688255D01*
X76208255Y-84801501D01*
X76075101Y-84890471D01*
X75927142Y-84951758D01*
X75770075Y-84983000D01*
X75609925Y-84983000D01*
X75452858Y-84951758D01*
X75304899Y-84890471D01*
X75171745Y-84801501D01*
X75058499Y-84688255D01*
X74969529Y-84555101D01*
X74908242Y-84407142D01*
X74877000Y-84250075D01*
X74877000Y-84089925D01*
X74908242Y-83932858D01*
X74969529Y-83784899D01*
X75058499Y-83651745D01*
X75171745Y-83538499D01*
X75304899Y-83449529D01*
X75452858Y-83388242D01*
X75609925Y-83357000D01*
X75770075Y-83357000D01*
X75927142Y-83388242D01*
X75927142Y-83388242D01*
G37*
G36*
X78467142Y-83388242D02*
G01*
X78615101Y-83449529D01*
X78748255Y-83538499D01*
X78861501Y-83651745D01*
X78950471Y-83784899D01*
X79011758Y-83932858D01*
X79043000Y-84089925D01*
X79043000Y-84250075D01*
X79011758Y-84407142D01*
X78950471Y-84555101D01*
X78861501Y-84688255D01*
X78748255Y-84801501D01*
X78615101Y-84890471D01*
X78467142Y-84951758D01*
X78310075Y-84983000D01*
X78149925Y-84983000D01*
X77992858Y-84951758D01*
X77844899Y-84890471D01*
X77711745Y-84801501D01*
X77598499Y-84688255D01*
X77509529Y-84555101D01*
X77448242Y-84407142D01*
X77417000Y-84250075D01*
X77417000Y-84089925D01*
X77448242Y-83932858D01*
X77509529Y-83784899D01*
X77598499Y-83651745D01*
X77711745Y-83538499D01*
X77844899Y-83449529D01*
X77992858Y-83388242D01*
X78149925Y-83357000D01*
X78310075Y-83357000D01*
X78467142Y-83388242D01*
X78467142Y-83388242D01*
G37*
G36*
X73387142Y-83388242D02*
G01*
X73535101Y-83449529D01*
X73668255Y-83538499D01*
X73781501Y-83651745D01*
X73870471Y-83784899D01*
X73931758Y-83932858D01*
X73963000Y-84089925D01*
X73963000Y-84250075D01*
X73931758Y-84407142D01*
X73870471Y-84555101D01*
X73781501Y-84688255D01*
X73668255Y-84801501D01*
X73535101Y-84890471D01*
X73387142Y-84951758D01*
X73230075Y-84983000D01*
X73069925Y-84983000D01*
X72912858Y-84951758D01*
X72764899Y-84890471D01*
X72631745Y-84801501D01*
X72518499Y-84688255D01*
X72429529Y-84555101D01*
X72368242Y-84407142D01*
X72337000Y-84250075D01*
X72337000Y-84089925D01*
X72368242Y-83932858D01*
X72429529Y-83784899D01*
X72518499Y-83651745D01*
X72631745Y-83538499D01*
X72764899Y-83449529D01*
X72912858Y-83388242D01*
X73069925Y-83357000D01*
X73230075Y-83357000D01*
X73387142Y-83388242D01*
X73387142Y-83388242D01*
G37*
G36*
X70847142Y-83388242D02*
G01*
X70995101Y-83449529D01*
X71128255Y-83538499D01*
X71241501Y-83651745D01*
X71330471Y-83784899D01*
X71391758Y-83932858D01*
X71423000Y-84089925D01*
X71423000Y-84250075D01*
X71391758Y-84407142D01*
X71330471Y-84555101D01*
X71241501Y-84688255D01*
X71128255Y-84801501D01*
X70995101Y-84890471D01*
X70847142Y-84951758D01*
X70690075Y-84983000D01*
X70529925Y-84983000D01*
X70372858Y-84951758D01*
X70224899Y-84890471D01*
X70091745Y-84801501D01*
X69978499Y-84688255D01*
X69889529Y-84555101D01*
X69828242Y-84407142D01*
X69797000Y-84250075D01*
X69797000Y-84089925D01*
X69828242Y-83932858D01*
X69889529Y-83784899D01*
X69978499Y-83651745D01*
X70091745Y-83538499D01*
X70224899Y-83449529D01*
X70372858Y-83388242D01*
X70529925Y-83357000D01*
X70690075Y-83357000D01*
X70847142Y-83388242D01*
X70847142Y-83388242D01*
G37*
G36*
X68307142Y-83388242D02*
G01*
X68455101Y-83449529D01*
X68588255Y-83538499D01*
X68701501Y-83651745D01*
X68790471Y-83784899D01*
X68851758Y-83932858D01*
X68883000Y-84089925D01*
X68883000Y-84250075D01*
X68851758Y-84407142D01*
X68790471Y-84555101D01*
X68701501Y-84688255D01*
X68588255Y-84801501D01*
X68455101Y-84890471D01*
X68307142Y-84951758D01*
X68150075Y-84983000D01*
X67989925Y-84983000D01*
X67832858Y-84951758D01*
X67684899Y-84890471D01*
X67551745Y-84801501D01*
X67438499Y-84688255D01*
X67349529Y-84555101D01*
X67288242Y-84407142D01*
X67257000Y-84250075D01*
X67257000Y-84089925D01*
X67288242Y-83932858D01*
X67349529Y-83784899D01*
X67438499Y-83651745D01*
X67551745Y-83538499D01*
X67684899Y-83449529D01*
X67832858Y-83388242D01*
X67989925Y-83357000D01*
X68150075Y-83357000D01*
X68307142Y-83388242D01*
X68307142Y-83388242D01*
G37*
G36*
X65767142Y-83388242D02*
G01*
X65915101Y-83449529D01*
X66048255Y-83538499D01*
X66161501Y-83651745D01*
X66250471Y-83784899D01*
X66311758Y-83932858D01*
X66343000Y-84089925D01*
X66343000Y-84250075D01*
X66311758Y-84407142D01*
X66250471Y-84555101D01*
X66161501Y-84688255D01*
X66048255Y-84801501D01*
X65915101Y-84890471D01*
X65767142Y-84951758D01*
X65610075Y-84983000D01*
X65449925Y-84983000D01*
X65292858Y-84951758D01*
X65144899Y-84890471D01*
X65011745Y-84801501D01*
X64898499Y-84688255D01*
X64809529Y-84555101D01*
X64748242Y-84407142D01*
X64717000Y-84250075D01*
X64717000Y-84089925D01*
X64748242Y-83932858D01*
X64809529Y-83784899D01*
X64898499Y-83651745D01*
X65011745Y-83538499D01*
X65144899Y-83449529D01*
X65292858Y-83388242D01*
X65449925Y-83357000D01*
X65610075Y-83357000D01*
X65767142Y-83388242D01*
X65767142Y-83388242D01*
G37*
G36*
X63227142Y-83388242D02*
G01*
X63375101Y-83449529D01*
X63508255Y-83538499D01*
X63621501Y-83651745D01*
X63710471Y-83784899D01*
X63771758Y-83932858D01*
X63803000Y-84089925D01*
X63803000Y-84250075D01*
X63771758Y-84407142D01*
X63710471Y-84555101D01*
X63621501Y-84688255D01*
X63508255Y-84801501D01*
X63375101Y-84890471D01*
X63227142Y-84951758D01*
X63070075Y-84983000D01*
X62909925Y-84983000D01*
X62752858Y-84951758D01*
X62604899Y-84890471D01*
X62471745Y-84801501D01*
X62358499Y-84688255D01*
X62269529Y-84555101D01*
X62208242Y-84407142D01*
X62177000Y-84250075D01*
X62177000Y-84089925D01*
X62208242Y-83932858D01*
X62269529Y-83784899D01*
X62358499Y-83651745D01*
X62471745Y-83538499D01*
X62604899Y-83449529D01*
X62752858Y-83388242D01*
X62909925Y-83357000D01*
X63070075Y-83357000D01*
X63227142Y-83388242D01*
X63227142Y-83388242D01*
G37*
G36*
X60687142Y-83388242D02*
G01*
X60835101Y-83449529D01*
X60968255Y-83538499D01*
X61081501Y-83651745D01*
X61170471Y-83784899D01*
X61231758Y-83932858D01*
X61263000Y-84089925D01*
X61263000Y-84250075D01*
X61231758Y-84407142D01*
X61170471Y-84555101D01*
X61081501Y-84688255D01*
X60968255Y-84801501D01*
X60835101Y-84890471D01*
X60687142Y-84951758D01*
X60530075Y-84983000D01*
X60369925Y-84983000D01*
X60212858Y-84951758D01*
X60064899Y-84890471D01*
X59931745Y-84801501D01*
X59818499Y-84688255D01*
X59729529Y-84555101D01*
X59668242Y-84407142D01*
X59637000Y-84250075D01*
X59637000Y-84089925D01*
X59668242Y-83932858D01*
X59729529Y-83784899D01*
X59818499Y-83651745D01*
X59931745Y-83538499D01*
X60064899Y-83449529D01*
X60212858Y-83388242D01*
X60369925Y-83357000D01*
X60530075Y-83357000D01*
X60687142Y-83388242D01*
X60687142Y-83388242D01*
G37*
G36*
X55607142Y-83388242D02*
G01*
X55755101Y-83449529D01*
X55888255Y-83538499D01*
X56001501Y-83651745D01*
X56090471Y-83784899D01*
X56151758Y-83932858D01*
X56183000Y-84089925D01*
X56183000Y-84250075D01*
X56151758Y-84407142D01*
X56090471Y-84555101D01*
X56001501Y-84688255D01*
X55888255Y-84801501D01*
X55755101Y-84890471D01*
X55607142Y-84951758D01*
X55450075Y-84983000D01*
X55289925Y-84983000D01*
X55132858Y-84951758D01*
X54984899Y-84890471D01*
X54851745Y-84801501D01*
X54738499Y-84688255D01*
X54649529Y-84555101D01*
X54588242Y-84407142D01*
X54557000Y-84250075D01*
X54557000Y-84089925D01*
X54588242Y-83932858D01*
X54649529Y-83784899D01*
X54738499Y-83651745D01*
X54851745Y-83538499D01*
X54984899Y-83449529D01*
X55132858Y-83388242D01*
X55289925Y-83357000D01*
X55450075Y-83357000D01*
X55607142Y-83388242D01*
X55607142Y-83388242D01*
G37*
G36*
X53067142Y-83388242D02*
G01*
X53215101Y-83449529D01*
X53348255Y-83538499D01*
X53461501Y-83651745D01*
X53550471Y-83784899D01*
X53611758Y-83932858D01*
X53643000Y-84089925D01*
X53643000Y-84250075D01*
X53611758Y-84407142D01*
X53550471Y-84555101D01*
X53461501Y-84688255D01*
X53348255Y-84801501D01*
X53215101Y-84890471D01*
X53067142Y-84951758D01*
X52910075Y-84983000D01*
X52749925Y-84983000D01*
X52592858Y-84951758D01*
X52444899Y-84890471D01*
X52311745Y-84801501D01*
X52198499Y-84688255D01*
X52109529Y-84555101D01*
X52048242Y-84407142D01*
X52017000Y-84250075D01*
X52017000Y-84089925D01*
X52048242Y-83932858D01*
X52109529Y-83784899D01*
X52198499Y-83651745D01*
X52311745Y-83538499D01*
X52444899Y-83449529D01*
X52592858Y-83388242D01*
X52749925Y-83357000D01*
X52910075Y-83357000D01*
X53067142Y-83388242D01*
X53067142Y-83388242D01*
G37*
G36*
X131807142Y-83388242D02*
G01*
X131955101Y-83449529D01*
X132088255Y-83538499D01*
X132201501Y-83651745D01*
X132290471Y-83784899D01*
X132351758Y-83932858D01*
X132383000Y-84089925D01*
X132383000Y-84250075D01*
X132351758Y-84407142D01*
X132290471Y-84555101D01*
X132201501Y-84688255D01*
X132088255Y-84801501D01*
X131955101Y-84890471D01*
X131807142Y-84951758D01*
X131650075Y-84983000D01*
X131489925Y-84983000D01*
X131332858Y-84951758D01*
X131184899Y-84890471D01*
X131051745Y-84801501D01*
X130938499Y-84688255D01*
X130849529Y-84555101D01*
X130788242Y-84407142D01*
X130757000Y-84250075D01*
X130757000Y-84089925D01*
X130788242Y-83932858D01*
X130849529Y-83784899D01*
X130938499Y-83651745D01*
X131051745Y-83538499D01*
X131184899Y-83449529D01*
X131332858Y-83388242D01*
X131489925Y-83357000D01*
X131650075Y-83357000D01*
X131807142Y-83388242D01*
X131807142Y-83388242D01*
G37*
G36*
X129267142Y-83388242D02*
G01*
X129415101Y-83449529D01*
X129548255Y-83538499D01*
X129661501Y-83651745D01*
X129750471Y-83784899D01*
X129811758Y-83932858D01*
X129843000Y-84089925D01*
X129843000Y-84250075D01*
X129811758Y-84407142D01*
X129750471Y-84555101D01*
X129661501Y-84688255D01*
X129548255Y-84801501D01*
X129415101Y-84890471D01*
X129267142Y-84951758D01*
X129110075Y-84983000D01*
X128949925Y-84983000D01*
X128792858Y-84951758D01*
X128644899Y-84890471D01*
X128511745Y-84801501D01*
X128398499Y-84688255D01*
X128309529Y-84555101D01*
X128248242Y-84407142D01*
X128217000Y-84250075D01*
X128217000Y-84089925D01*
X128248242Y-83932858D01*
X128309529Y-83784899D01*
X128398499Y-83651745D01*
X128511745Y-83538499D01*
X128644899Y-83449529D01*
X128792858Y-83388242D01*
X128949925Y-83357000D01*
X129110075Y-83357000D01*
X129267142Y-83388242D01*
X129267142Y-83388242D01*
G37*
G36*
X126727142Y-83388242D02*
G01*
X126875101Y-83449529D01*
X127008255Y-83538499D01*
X127121501Y-83651745D01*
X127210471Y-83784899D01*
X127271758Y-83932858D01*
X127303000Y-84089925D01*
X127303000Y-84250075D01*
X127271758Y-84407142D01*
X127210471Y-84555101D01*
X127121501Y-84688255D01*
X127008255Y-84801501D01*
X126875101Y-84890471D01*
X126727142Y-84951758D01*
X126570075Y-84983000D01*
X126409925Y-84983000D01*
X126252858Y-84951758D01*
X126104899Y-84890471D01*
X125971745Y-84801501D01*
X125858499Y-84688255D01*
X125769529Y-84555101D01*
X125708242Y-84407142D01*
X125677000Y-84250075D01*
X125677000Y-84089925D01*
X125708242Y-83932858D01*
X125769529Y-83784899D01*
X125858499Y-83651745D01*
X125971745Y-83538499D01*
X126104899Y-83449529D01*
X126252858Y-83388242D01*
X126409925Y-83357000D01*
X126570075Y-83357000D01*
X126727142Y-83388242D01*
X126727142Y-83388242D01*
G37*
G36*
X58147142Y-83388242D02*
G01*
X58295101Y-83449529D01*
X58428255Y-83538499D01*
X58541501Y-83651745D01*
X58630471Y-83784899D01*
X58691758Y-83932858D01*
X58723000Y-84089925D01*
X58723000Y-84250075D01*
X58691758Y-84407142D01*
X58630471Y-84555101D01*
X58541501Y-84688255D01*
X58428255Y-84801501D01*
X58295101Y-84890471D01*
X58147142Y-84951758D01*
X57990075Y-84983000D01*
X57829925Y-84983000D01*
X57672858Y-84951758D01*
X57524899Y-84890471D01*
X57391745Y-84801501D01*
X57278499Y-84688255D01*
X57189529Y-84555101D01*
X57128242Y-84407142D01*
X57097000Y-84250075D01*
X57097000Y-84089925D01*
X57128242Y-83932858D01*
X57189529Y-83784899D01*
X57278499Y-83651745D01*
X57391745Y-83538499D01*
X57524899Y-83449529D01*
X57672858Y-83388242D01*
X57829925Y-83357000D01*
X57990075Y-83357000D01*
X58147142Y-83388242D01*
X58147142Y-83388242D01*
G37*
G36*
X124187142Y-83388242D02*
G01*
X124335101Y-83449529D01*
X124468255Y-83538499D01*
X124581501Y-83651745D01*
X124670471Y-83784899D01*
X124731758Y-83932858D01*
X124763000Y-84089925D01*
X124763000Y-84250075D01*
X124731758Y-84407142D01*
X124670471Y-84555101D01*
X124581501Y-84688255D01*
X124468255Y-84801501D01*
X124335101Y-84890471D01*
X124187142Y-84951758D01*
X124030075Y-84983000D01*
X123869925Y-84983000D01*
X123712858Y-84951758D01*
X123564899Y-84890471D01*
X123431745Y-84801501D01*
X123318499Y-84688255D01*
X123229529Y-84555101D01*
X123168242Y-84407142D01*
X123137000Y-84250075D01*
X123137000Y-84089925D01*
X123168242Y-83932858D01*
X123229529Y-83784899D01*
X123318499Y-83651745D01*
X123431745Y-83538499D01*
X123564899Y-83449529D01*
X123712858Y-83388242D01*
X123869925Y-83357000D01*
X124030075Y-83357000D01*
X124187142Y-83388242D01*
X124187142Y-83388242D01*
G37*
G36*
X111487142Y-80848242D02*
G01*
X111635101Y-80909529D01*
X111768255Y-80998499D01*
X111881501Y-81111745D01*
X111970471Y-81244899D01*
X112031758Y-81392858D01*
X112063000Y-81549925D01*
X112063000Y-81710075D01*
X112031758Y-81867142D01*
X111970471Y-82015101D01*
X111881501Y-82148255D01*
X111768255Y-82261501D01*
X111635101Y-82350471D01*
X111487142Y-82411758D01*
X111330075Y-82443000D01*
X111169925Y-82443000D01*
X111012858Y-82411758D01*
X110864899Y-82350471D01*
X110731745Y-82261501D01*
X110618499Y-82148255D01*
X110529529Y-82015101D01*
X110468242Y-81867142D01*
X110437000Y-81710075D01*
X110437000Y-81549925D01*
X110468242Y-81392858D01*
X110529529Y-81244899D01*
X110618499Y-81111745D01*
X110731745Y-80998499D01*
X110864899Y-80909529D01*
X111012858Y-80848242D01*
X111169925Y-80817000D01*
X111330075Y-80817000D01*
X111487142Y-80848242D01*
X111487142Y-80848242D01*
G37*
G36*
X114027142Y-80848242D02*
G01*
X114175101Y-80909529D01*
X114308255Y-80998499D01*
X114421501Y-81111745D01*
X114510471Y-81244899D01*
X114571758Y-81392858D01*
X114603000Y-81549925D01*
X114603000Y-81710075D01*
X114571758Y-81867142D01*
X114510471Y-82015101D01*
X114421501Y-82148255D01*
X114308255Y-82261501D01*
X114175101Y-82350471D01*
X114027142Y-82411758D01*
X113870075Y-82443000D01*
X113709925Y-82443000D01*
X113552858Y-82411758D01*
X113404899Y-82350471D01*
X113271745Y-82261501D01*
X113158499Y-82148255D01*
X113069529Y-82015101D01*
X113008242Y-81867142D01*
X112977000Y-81710075D01*
X112977000Y-81549925D01*
X113008242Y-81392858D01*
X113069529Y-81244899D01*
X113158499Y-81111745D01*
X113271745Y-80998499D01*
X113404899Y-80909529D01*
X113552858Y-80848242D01*
X113709925Y-80817000D01*
X113870075Y-80817000D01*
X114027142Y-80848242D01*
X114027142Y-80848242D01*
G37*
G36*
X116567142Y-80848242D02*
G01*
X116715101Y-80909529D01*
X116848255Y-80998499D01*
X116961501Y-81111745D01*
X117050471Y-81244899D01*
X117111758Y-81392858D01*
X117143000Y-81549925D01*
X117143000Y-81710075D01*
X117111758Y-81867142D01*
X117050471Y-82015101D01*
X116961501Y-82148255D01*
X116848255Y-82261501D01*
X116715101Y-82350471D01*
X116567142Y-82411758D01*
X116410075Y-82443000D01*
X116249925Y-82443000D01*
X116092858Y-82411758D01*
X115944899Y-82350471D01*
X115811745Y-82261501D01*
X115698499Y-82148255D01*
X115609529Y-82015101D01*
X115548242Y-81867142D01*
X115517000Y-81710075D01*
X115517000Y-81549925D01*
X115548242Y-81392858D01*
X115609529Y-81244899D01*
X115698499Y-81111745D01*
X115811745Y-80998499D01*
X115944899Y-80909529D01*
X116092858Y-80848242D01*
X116249925Y-80817000D01*
X116410075Y-80817000D01*
X116567142Y-80848242D01*
X116567142Y-80848242D01*
G37*
G36*
X119107142Y-80848242D02*
G01*
X119255101Y-80909529D01*
X119388255Y-80998499D01*
X119501501Y-81111745D01*
X119590471Y-81244899D01*
X119651758Y-81392858D01*
X119683000Y-81549925D01*
X119683000Y-81710075D01*
X119651758Y-81867142D01*
X119590471Y-82015101D01*
X119501501Y-82148255D01*
X119388255Y-82261501D01*
X119255101Y-82350471D01*
X119107142Y-82411758D01*
X118950075Y-82443000D01*
X118789925Y-82443000D01*
X118632858Y-82411758D01*
X118484899Y-82350471D01*
X118351745Y-82261501D01*
X118238499Y-82148255D01*
X118149529Y-82015101D01*
X118088242Y-81867142D01*
X118057000Y-81710075D01*
X118057000Y-81549925D01*
X118088242Y-81392858D01*
X118149529Y-81244899D01*
X118238499Y-81111745D01*
X118351745Y-80998499D01*
X118484899Y-80909529D01*
X118632858Y-80848242D01*
X118789925Y-80817000D01*
X118950075Y-80817000D01*
X119107142Y-80848242D01*
X119107142Y-80848242D01*
G37*
G36*
X121647142Y-80848242D02*
G01*
X121795101Y-80909529D01*
X121928255Y-80998499D01*
X122041501Y-81111745D01*
X122130471Y-81244899D01*
X122191758Y-81392858D01*
X122223000Y-81549925D01*
X122223000Y-81710075D01*
X122191758Y-81867142D01*
X122130471Y-82015101D01*
X122041501Y-82148255D01*
X121928255Y-82261501D01*
X121795101Y-82350471D01*
X121647142Y-82411758D01*
X121490075Y-82443000D01*
X121329925Y-82443000D01*
X121172858Y-82411758D01*
X121024899Y-82350471D01*
X120891745Y-82261501D01*
X120778499Y-82148255D01*
X120689529Y-82015101D01*
X120628242Y-81867142D01*
X120597000Y-81710075D01*
X120597000Y-81549925D01*
X120628242Y-81392858D01*
X120689529Y-81244899D01*
X120778499Y-81111745D01*
X120891745Y-80998499D01*
X121024899Y-80909529D01*
X121172858Y-80848242D01*
X121329925Y-80817000D01*
X121490075Y-80817000D01*
X121647142Y-80848242D01*
X121647142Y-80848242D01*
G37*
G36*
X124187142Y-80848242D02*
G01*
X124335101Y-80909529D01*
X124468255Y-80998499D01*
X124581501Y-81111745D01*
X124670471Y-81244899D01*
X124731758Y-81392858D01*
X124763000Y-81549925D01*
X124763000Y-81710075D01*
X124731758Y-81867142D01*
X124670471Y-82015101D01*
X124581501Y-82148255D01*
X124468255Y-82261501D01*
X124335101Y-82350471D01*
X124187142Y-82411758D01*
X124030075Y-82443000D01*
X123869925Y-82443000D01*
X123712858Y-82411758D01*
X123564899Y-82350471D01*
X123431745Y-82261501D01*
X123318499Y-82148255D01*
X123229529Y-82015101D01*
X123168242Y-81867142D01*
X123137000Y-81710075D01*
X123137000Y-81549925D01*
X123168242Y-81392858D01*
X123229529Y-81244899D01*
X123318499Y-81111745D01*
X123431745Y-80998499D01*
X123564899Y-80909529D01*
X123712858Y-80848242D01*
X123869925Y-80817000D01*
X124030075Y-80817000D01*
X124187142Y-80848242D01*
X124187142Y-80848242D01*
G37*
G36*
X126727142Y-80848242D02*
G01*
X126875101Y-80909529D01*
X127008255Y-80998499D01*
X127121501Y-81111745D01*
X127210471Y-81244899D01*
X127271758Y-81392858D01*
X127303000Y-81549925D01*
X127303000Y-81710075D01*
X127271758Y-81867142D01*
X127210471Y-82015101D01*
X127121501Y-82148255D01*
X127008255Y-82261501D01*
X126875101Y-82350471D01*
X126727142Y-82411758D01*
X126570075Y-82443000D01*
X126409925Y-82443000D01*
X126252858Y-82411758D01*
X126104899Y-82350471D01*
X125971745Y-82261501D01*
X125858499Y-82148255D01*
X125769529Y-82015101D01*
X125708242Y-81867142D01*
X125677000Y-81710075D01*
X125677000Y-81549925D01*
X125708242Y-81392858D01*
X125769529Y-81244899D01*
X125858499Y-81111745D01*
X125971745Y-80998499D01*
X126104899Y-80909529D01*
X126252858Y-80848242D01*
X126409925Y-80817000D01*
X126570075Y-80817000D01*
X126727142Y-80848242D01*
X126727142Y-80848242D01*
G37*
G36*
X129267142Y-80848242D02*
G01*
X129415101Y-80909529D01*
X129548255Y-80998499D01*
X129661501Y-81111745D01*
X129750471Y-81244899D01*
X129811758Y-81392858D01*
X129843000Y-81549925D01*
X129843000Y-81710075D01*
X129811758Y-81867142D01*
X129750471Y-82015101D01*
X129661501Y-82148255D01*
X129548255Y-82261501D01*
X129415101Y-82350471D01*
X129267142Y-82411758D01*
X129110075Y-82443000D01*
X128949925Y-82443000D01*
X128792858Y-82411758D01*
X128644899Y-82350471D01*
X128511745Y-82261501D01*
X128398499Y-82148255D01*
X128309529Y-82015101D01*
X128248242Y-81867142D01*
X128217000Y-81710075D01*
X128217000Y-81549925D01*
X128248242Y-81392858D01*
X128309529Y-81244899D01*
X128398499Y-81111745D01*
X128511745Y-80998499D01*
X128644899Y-80909529D01*
X128792858Y-80848242D01*
X128949925Y-80817000D01*
X129110075Y-80817000D01*
X129267142Y-80848242D01*
X129267142Y-80848242D01*
G37*
G36*
X131807142Y-80848242D02*
G01*
X131955101Y-80909529D01*
X132088255Y-80998499D01*
X132201501Y-81111745D01*
X132290471Y-81244899D01*
X132351758Y-81392858D01*
X132383000Y-81549925D01*
X132383000Y-81710075D01*
X132351758Y-81867142D01*
X132290471Y-82015101D01*
X132201501Y-82148255D01*
X132088255Y-82261501D01*
X131955101Y-82350471D01*
X131807142Y-82411758D01*
X131650075Y-82443000D01*
X131489925Y-82443000D01*
X131332858Y-82411758D01*
X131184899Y-82350471D01*
X131051745Y-82261501D01*
X130938499Y-82148255D01*
X130849529Y-82015101D01*
X130788242Y-81867142D01*
X130757000Y-81710075D01*
X130757000Y-81549925D01*
X130788242Y-81392858D01*
X130849529Y-81244899D01*
X130938499Y-81111745D01*
X131051745Y-80998499D01*
X131184899Y-80909529D01*
X131332858Y-80848242D01*
X131489925Y-80817000D01*
X131650075Y-80817000D01*
X131807142Y-80848242D01*
X131807142Y-80848242D01*
G37*
G36*
X63227142Y-80848242D02*
G01*
X63375101Y-80909529D01*
X63508255Y-80998499D01*
X63621501Y-81111745D01*
X63710471Y-81244899D01*
X63771758Y-81392858D01*
X63803000Y-81549925D01*
X63803000Y-81710075D01*
X63771758Y-81867142D01*
X63710471Y-82015101D01*
X63621501Y-82148255D01*
X63508255Y-82261501D01*
X63375101Y-82350471D01*
X63227142Y-82411758D01*
X63070075Y-82443000D01*
X62909925Y-82443000D01*
X62752858Y-82411758D01*
X62604899Y-82350471D01*
X62471745Y-82261501D01*
X62358499Y-82148255D01*
X62269529Y-82015101D01*
X62208242Y-81867142D01*
X62177000Y-81710075D01*
X62177000Y-81549925D01*
X62208242Y-81392858D01*
X62269529Y-81244899D01*
X62358499Y-81111745D01*
X62471745Y-80998499D01*
X62604899Y-80909529D01*
X62752858Y-80848242D01*
X62909925Y-80817000D01*
X63070075Y-80817000D01*
X63227142Y-80848242D01*
X63227142Y-80848242D01*
G37*
G36*
X53067142Y-80848242D02*
G01*
X53215101Y-80909529D01*
X53348255Y-80998499D01*
X53461501Y-81111745D01*
X53550471Y-81244899D01*
X53611758Y-81392858D01*
X53643000Y-81549925D01*
X53643000Y-81710075D01*
X53611758Y-81867142D01*
X53550471Y-82015101D01*
X53461501Y-82148255D01*
X53348255Y-82261501D01*
X53215101Y-82350471D01*
X53067142Y-82411758D01*
X52910075Y-82443000D01*
X52749925Y-82443000D01*
X52592858Y-82411758D01*
X52444899Y-82350471D01*
X52311745Y-82261501D01*
X52198499Y-82148255D01*
X52109529Y-82015101D01*
X52048242Y-81867142D01*
X52017000Y-81710075D01*
X52017000Y-81549925D01*
X52048242Y-81392858D01*
X52109529Y-81244899D01*
X52198499Y-81111745D01*
X52311745Y-80998499D01*
X52444899Y-80909529D01*
X52592858Y-80848242D01*
X52749925Y-80817000D01*
X52910075Y-80817000D01*
X53067142Y-80848242D01*
X53067142Y-80848242D01*
G37*
G36*
X55607142Y-80848242D02*
G01*
X55755101Y-80909529D01*
X55888255Y-80998499D01*
X56001501Y-81111745D01*
X56090471Y-81244899D01*
X56151758Y-81392858D01*
X56183000Y-81549925D01*
X56183000Y-81710075D01*
X56151758Y-81867142D01*
X56090471Y-82015101D01*
X56001501Y-82148255D01*
X55888255Y-82261501D01*
X55755101Y-82350471D01*
X55607142Y-82411758D01*
X55450075Y-82443000D01*
X55289925Y-82443000D01*
X55132858Y-82411758D01*
X54984899Y-82350471D01*
X54851745Y-82261501D01*
X54738499Y-82148255D01*
X54649529Y-82015101D01*
X54588242Y-81867142D01*
X54557000Y-81710075D01*
X54557000Y-81549925D01*
X54588242Y-81392858D01*
X54649529Y-81244899D01*
X54738499Y-81111745D01*
X54851745Y-80998499D01*
X54984899Y-80909529D01*
X55132858Y-80848242D01*
X55289925Y-80817000D01*
X55450075Y-80817000D01*
X55607142Y-80848242D01*
X55607142Y-80848242D01*
G37*
G36*
X58147142Y-80848242D02*
G01*
X58295101Y-80909529D01*
X58428255Y-80998499D01*
X58541501Y-81111745D01*
X58630471Y-81244899D01*
X58691758Y-81392858D01*
X58723000Y-81549925D01*
X58723000Y-81710075D01*
X58691758Y-81867142D01*
X58630471Y-82015101D01*
X58541501Y-82148255D01*
X58428255Y-82261501D01*
X58295101Y-82350471D01*
X58147142Y-82411758D01*
X57990075Y-82443000D01*
X57829925Y-82443000D01*
X57672858Y-82411758D01*
X57524899Y-82350471D01*
X57391745Y-82261501D01*
X57278499Y-82148255D01*
X57189529Y-82015101D01*
X57128242Y-81867142D01*
X57097000Y-81710075D01*
X57097000Y-81549925D01*
X57128242Y-81392858D01*
X57189529Y-81244899D01*
X57278499Y-81111745D01*
X57391745Y-80998499D01*
X57524899Y-80909529D01*
X57672858Y-80848242D01*
X57829925Y-80817000D01*
X57990075Y-80817000D01*
X58147142Y-80848242D01*
X58147142Y-80848242D01*
G37*
G36*
X60687142Y-80848242D02*
G01*
X60835101Y-80909529D01*
X60968255Y-80998499D01*
X61081501Y-81111745D01*
X61170471Y-81244899D01*
X61231758Y-81392858D01*
X61263000Y-81549925D01*
X61263000Y-81710075D01*
X61231758Y-81867142D01*
X61170471Y-82015101D01*
X61081501Y-82148255D01*
X60968255Y-82261501D01*
X60835101Y-82350471D01*
X60687142Y-82411758D01*
X60530075Y-82443000D01*
X60369925Y-82443000D01*
X60212858Y-82411758D01*
X60064899Y-82350471D01*
X59931745Y-82261501D01*
X59818499Y-82148255D01*
X59729529Y-82015101D01*
X59668242Y-81867142D01*
X59637000Y-81710075D01*
X59637000Y-81549925D01*
X59668242Y-81392858D01*
X59729529Y-81244899D01*
X59818499Y-81111745D01*
X59931745Y-80998499D01*
X60064899Y-80909529D01*
X60212858Y-80848242D01*
X60369925Y-80817000D01*
X60530075Y-80817000D01*
X60687142Y-80848242D01*
X60687142Y-80848242D01*
G37*
G36*
X65767142Y-80848242D02*
G01*
X65915101Y-80909529D01*
X66048255Y-80998499D01*
X66161501Y-81111745D01*
X66250471Y-81244899D01*
X66311758Y-81392858D01*
X66343000Y-81549925D01*
X66343000Y-81710075D01*
X66311758Y-81867142D01*
X66250471Y-82015101D01*
X66161501Y-82148255D01*
X66048255Y-82261501D01*
X65915101Y-82350471D01*
X65767142Y-82411758D01*
X65610075Y-82443000D01*
X65449925Y-82443000D01*
X65292858Y-82411758D01*
X65144899Y-82350471D01*
X65011745Y-82261501D01*
X64898499Y-82148255D01*
X64809529Y-82015101D01*
X64748242Y-81867142D01*
X64717000Y-81710075D01*
X64717000Y-81549925D01*
X64748242Y-81392858D01*
X64809529Y-81244899D01*
X64898499Y-81111745D01*
X65011745Y-80998499D01*
X65144899Y-80909529D01*
X65292858Y-80848242D01*
X65449925Y-80817000D01*
X65610075Y-80817000D01*
X65767142Y-80848242D01*
X65767142Y-80848242D01*
G37*
G36*
X103867142Y-80848242D02*
G01*
X104015101Y-80909529D01*
X104148255Y-80998499D01*
X104261501Y-81111745D01*
X104350471Y-81244899D01*
X104411758Y-81392858D01*
X104443000Y-81549925D01*
X104443000Y-81710075D01*
X104411758Y-81867142D01*
X104350471Y-82015101D01*
X104261501Y-82148255D01*
X104148255Y-82261501D01*
X104015101Y-82350471D01*
X103867142Y-82411758D01*
X103710075Y-82443000D01*
X103549925Y-82443000D01*
X103392858Y-82411758D01*
X103244899Y-82350471D01*
X103111745Y-82261501D01*
X102998499Y-82148255D01*
X102909529Y-82015101D01*
X102848242Y-81867142D01*
X102817000Y-81710075D01*
X102817000Y-81549925D01*
X102848242Y-81392858D01*
X102909529Y-81244899D01*
X102998499Y-81111745D01*
X103111745Y-80998499D01*
X103244899Y-80909529D01*
X103392858Y-80848242D01*
X103549925Y-80817000D01*
X103710075Y-80817000D01*
X103867142Y-80848242D01*
X103867142Y-80848242D01*
G37*
G36*
X106407142Y-80848242D02*
G01*
X106555101Y-80909529D01*
X106688255Y-80998499D01*
X106801501Y-81111745D01*
X106890471Y-81244899D01*
X106951758Y-81392858D01*
X106983000Y-81549925D01*
X106983000Y-81710075D01*
X106951758Y-81867142D01*
X106890471Y-82015101D01*
X106801501Y-82148255D01*
X106688255Y-82261501D01*
X106555101Y-82350471D01*
X106407142Y-82411758D01*
X106250075Y-82443000D01*
X106089925Y-82443000D01*
X105932858Y-82411758D01*
X105784899Y-82350471D01*
X105651745Y-82261501D01*
X105538499Y-82148255D01*
X105449529Y-82015101D01*
X105388242Y-81867142D01*
X105357000Y-81710075D01*
X105357000Y-81549925D01*
X105388242Y-81392858D01*
X105449529Y-81244899D01*
X105538499Y-81111745D01*
X105651745Y-80998499D01*
X105784899Y-80909529D01*
X105932858Y-80848242D01*
X106089925Y-80817000D01*
X106250075Y-80817000D01*
X106407142Y-80848242D01*
X106407142Y-80848242D01*
G37*
G36*
X101327142Y-80848242D02*
G01*
X101475101Y-80909529D01*
X101608255Y-80998499D01*
X101721501Y-81111745D01*
X101810471Y-81244899D01*
X101871758Y-81392858D01*
X101903000Y-81549925D01*
X101903000Y-81710075D01*
X101871758Y-81867142D01*
X101810471Y-82015101D01*
X101721501Y-82148255D01*
X101608255Y-82261501D01*
X101475101Y-82350471D01*
X101327142Y-82411758D01*
X101170075Y-82443000D01*
X101009925Y-82443000D01*
X100852858Y-82411758D01*
X100704899Y-82350471D01*
X100571745Y-82261501D01*
X100458499Y-82148255D01*
X100369529Y-82015101D01*
X100308242Y-81867142D01*
X100277000Y-81710075D01*
X100277000Y-81549925D01*
X100308242Y-81392858D01*
X100369529Y-81244899D01*
X100458499Y-81111745D01*
X100571745Y-80998499D01*
X100704899Y-80909529D01*
X100852858Y-80848242D01*
X101009925Y-80817000D01*
X101170075Y-80817000D01*
X101327142Y-80848242D01*
X101327142Y-80848242D01*
G37*
G36*
X98787142Y-80848242D02*
G01*
X98935101Y-80909529D01*
X99068255Y-80998499D01*
X99181501Y-81111745D01*
X99270471Y-81244899D01*
X99331758Y-81392858D01*
X99363000Y-81549925D01*
X99363000Y-81710075D01*
X99331758Y-81867142D01*
X99270471Y-82015101D01*
X99181501Y-82148255D01*
X99068255Y-82261501D01*
X98935101Y-82350471D01*
X98787142Y-82411758D01*
X98630075Y-82443000D01*
X98469925Y-82443000D01*
X98312858Y-82411758D01*
X98164899Y-82350471D01*
X98031745Y-82261501D01*
X97918499Y-82148255D01*
X97829529Y-82015101D01*
X97768242Y-81867142D01*
X97737000Y-81710075D01*
X97737000Y-81549925D01*
X97768242Y-81392858D01*
X97829529Y-81244899D01*
X97918499Y-81111745D01*
X98031745Y-80998499D01*
X98164899Y-80909529D01*
X98312858Y-80848242D01*
X98469925Y-80817000D01*
X98630075Y-80817000D01*
X98787142Y-80848242D01*
X98787142Y-80848242D01*
G37*
G36*
X96247142Y-80848242D02*
G01*
X96395101Y-80909529D01*
X96528255Y-80998499D01*
X96641501Y-81111745D01*
X96730471Y-81244899D01*
X96791758Y-81392858D01*
X96823000Y-81549925D01*
X96823000Y-81710075D01*
X96791758Y-81867142D01*
X96730471Y-82015101D01*
X96641501Y-82148255D01*
X96528255Y-82261501D01*
X96395101Y-82350471D01*
X96247142Y-82411758D01*
X96090075Y-82443000D01*
X95929925Y-82443000D01*
X95772858Y-82411758D01*
X95624899Y-82350471D01*
X95491745Y-82261501D01*
X95378499Y-82148255D01*
X95289529Y-82015101D01*
X95228242Y-81867142D01*
X95197000Y-81710075D01*
X95197000Y-81549925D01*
X95228242Y-81392858D01*
X95289529Y-81244899D01*
X95378499Y-81111745D01*
X95491745Y-80998499D01*
X95624899Y-80909529D01*
X95772858Y-80848242D01*
X95929925Y-80817000D01*
X96090075Y-80817000D01*
X96247142Y-80848242D01*
X96247142Y-80848242D01*
G37*
G36*
X93707142Y-80848242D02*
G01*
X93855101Y-80909529D01*
X93988255Y-80998499D01*
X94101501Y-81111745D01*
X94190471Y-81244899D01*
X94251758Y-81392858D01*
X94283000Y-81549925D01*
X94283000Y-81710075D01*
X94251758Y-81867142D01*
X94190471Y-82015101D01*
X94101501Y-82148255D01*
X93988255Y-82261501D01*
X93855101Y-82350471D01*
X93707142Y-82411758D01*
X93550075Y-82443000D01*
X93389925Y-82443000D01*
X93232858Y-82411758D01*
X93084899Y-82350471D01*
X92951745Y-82261501D01*
X92838499Y-82148255D01*
X92749529Y-82015101D01*
X92688242Y-81867142D01*
X92657000Y-81710075D01*
X92657000Y-81549925D01*
X92688242Y-81392858D01*
X92749529Y-81244899D01*
X92838499Y-81111745D01*
X92951745Y-80998499D01*
X93084899Y-80909529D01*
X93232858Y-80848242D01*
X93389925Y-80817000D01*
X93550075Y-80817000D01*
X93707142Y-80848242D01*
X93707142Y-80848242D01*
G37*
G36*
X91167142Y-80848242D02*
G01*
X91315101Y-80909529D01*
X91448255Y-80998499D01*
X91561501Y-81111745D01*
X91650471Y-81244899D01*
X91711758Y-81392858D01*
X91743000Y-81549925D01*
X91743000Y-81710075D01*
X91711758Y-81867142D01*
X91650471Y-82015101D01*
X91561501Y-82148255D01*
X91448255Y-82261501D01*
X91315101Y-82350471D01*
X91167142Y-82411758D01*
X91010075Y-82443000D01*
X90849925Y-82443000D01*
X90692858Y-82411758D01*
X90544899Y-82350471D01*
X90411745Y-82261501D01*
X90298499Y-82148255D01*
X90209529Y-82015101D01*
X90148242Y-81867142D01*
X90117000Y-81710075D01*
X90117000Y-81549925D01*
X90148242Y-81392858D01*
X90209529Y-81244899D01*
X90298499Y-81111745D01*
X90411745Y-80998499D01*
X90544899Y-80909529D01*
X90692858Y-80848242D01*
X90849925Y-80817000D01*
X91010075Y-80817000D01*
X91167142Y-80848242D01*
X91167142Y-80848242D01*
G37*
G36*
X88627142Y-80848242D02*
G01*
X88775101Y-80909529D01*
X88908255Y-80998499D01*
X89021501Y-81111745D01*
X89110471Y-81244899D01*
X89171758Y-81392858D01*
X89203000Y-81549925D01*
X89203000Y-81710075D01*
X89171758Y-81867142D01*
X89110471Y-82015101D01*
X89021501Y-82148255D01*
X88908255Y-82261501D01*
X88775101Y-82350471D01*
X88627142Y-82411758D01*
X88470075Y-82443000D01*
X88309925Y-82443000D01*
X88152858Y-82411758D01*
X88004899Y-82350471D01*
X87871745Y-82261501D01*
X87758499Y-82148255D01*
X87669529Y-82015101D01*
X87608242Y-81867142D01*
X87577000Y-81710075D01*
X87577000Y-81549925D01*
X87608242Y-81392858D01*
X87669529Y-81244899D01*
X87758499Y-81111745D01*
X87871745Y-80998499D01*
X88004899Y-80909529D01*
X88152858Y-80848242D01*
X88309925Y-80817000D01*
X88470075Y-80817000D01*
X88627142Y-80848242D01*
X88627142Y-80848242D01*
G37*
G36*
X86087142Y-80848242D02*
G01*
X86235101Y-80909529D01*
X86368255Y-80998499D01*
X86481501Y-81111745D01*
X86570471Y-81244899D01*
X86631758Y-81392858D01*
X86663000Y-81549925D01*
X86663000Y-81710075D01*
X86631758Y-81867142D01*
X86570471Y-82015101D01*
X86481501Y-82148255D01*
X86368255Y-82261501D01*
X86235101Y-82350471D01*
X86087142Y-82411758D01*
X85930075Y-82443000D01*
X85769925Y-82443000D01*
X85612858Y-82411758D01*
X85464899Y-82350471D01*
X85331745Y-82261501D01*
X85218499Y-82148255D01*
X85129529Y-82015101D01*
X85068242Y-81867142D01*
X85037000Y-81710075D01*
X85037000Y-81549925D01*
X85068242Y-81392858D01*
X85129529Y-81244899D01*
X85218499Y-81111745D01*
X85331745Y-80998499D01*
X85464899Y-80909529D01*
X85612858Y-80848242D01*
X85769925Y-80817000D01*
X85930075Y-80817000D01*
X86087142Y-80848242D01*
X86087142Y-80848242D01*
G37*
G36*
X81007142Y-80848242D02*
G01*
X81155101Y-80909529D01*
X81288255Y-80998499D01*
X81401501Y-81111745D01*
X81490471Y-81244899D01*
X81551758Y-81392858D01*
X81583000Y-81549925D01*
X81583000Y-81710075D01*
X81551758Y-81867142D01*
X81490471Y-82015101D01*
X81401501Y-82148255D01*
X81288255Y-82261501D01*
X81155101Y-82350471D01*
X81007142Y-82411758D01*
X80850075Y-82443000D01*
X80689925Y-82443000D01*
X80532858Y-82411758D01*
X80384899Y-82350471D01*
X80251745Y-82261501D01*
X80138499Y-82148255D01*
X80049529Y-82015101D01*
X79988242Y-81867142D01*
X79957000Y-81710075D01*
X79957000Y-81549925D01*
X79988242Y-81392858D01*
X80049529Y-81244899D01*
X80138499Y-81111745D01*
X80251745Y-80998499D01*
X80384899Y-80909529D01*
X80532858Y-80848242D01*
X80689925Y-80817000D01*
X80850075Y-80817000D01*
X81007142Y-80848242D01*
X81007142Y-80848242D01*
G37*
G36*
X78467142Y-80848242D02*
G01*
X78615101Y-80909529D01*
X78748255Y-80998499D01*
X78861501Y-81111745D01*
X78950471Y-81244899D01*
X79011758Y-81392858D01*
X79043000Y-81549925D01*
X79043000Y-81710075D01*
X79011758Y-81867142D01*
X78950471Y-82015101D01*
X78861501Y-82148255D01*
X78748255Y-82261501D01*
X78615101Y-82350471D01*
X78467142Y-82411758D01*
X78310075Y-82443000D01*
X78149925Y-82443000D01*
X77992858Y-82411758D01*
X77844899Y-82350471D01*
X77711745Y-82261501D01*
X77598499Y-82148255D01*
X77509529Y-82015101D01*
X77448242Y-81867142D01*
X77417000Y-81710075D01*
X77417000Y-81549925D01*
X77448242Y-81392858D01*
X77509529Y-81244899D01*
X77598499Y-81111745D01*
X77711745Y-80998499D01*
X77844899Y-80909529D01*
X77992858Y-80848242D01*
X78149925Y-80817000D01*
X78310075Y-80817000D01*
X78467142Y-80848242D01*
X78467142Y-80848242D01*
G37*
G36*
X75927142Y-80848242D02*
G01*
X76075101Y-80909529D01*
X76208255Y-80998499D01*
X76321501Y-81111745D01*
X76410471Y-81244899D01*
X76471758Y-81392858D01*
X76503000Y-81549925D01*
X76503000Y-81710075D01*
X76471758Y-81867142D01*
X76410471Y-82015101D01*
X76321501Y-82148255D01*
X76208255Y-82261501D01*
X76075101Y-82350471D01*
X75927142Y-82411758D01*
X75770075Y-82443000D01*
X75609925Y-82443000D01*
X75452858Y-82411758D01*
X75304899Y-82350471D01*
X75171745Y-82261501D01*
X75058499Y-82148255D01*
X74969529Y-82015101D01*
X74908242Y-81867142D01*
X74877000Y-81710075D01*
X74877000Y-81549925D01*
X74908242Y-81392858D01*
X74969529Y-81244899D01*
X75058499Y-81111745D01*
X75171745Y-80998499D01*
X75304899Y-80909529D01*
X75452858Y-80848242D01*
X75609925Y-80817000D01*
X75770075Y-80817000D01*
X75927142Y-80848242D01*
X75927142Y-80848242D01*
G37*
G36*
X73387142Y-80848242D02*
G01*
X73535101Y-80909529D01*
X73668255Y-80998499D01*
X73781501Y-81111745D01*
X73870471Y-81244899D01*
X73931758Y-81392858D01*
X73963000Y-81549925D01*
X73963000Y-81710075D01*
X73931758Y-81867142D01*
X73870471Y-82015101D01*
X73781501Y-82148255D01*
X73668255Y-82261501D01*
X73535101Y-82350471D01*
X73387142Y-82411758D01*
X73230075Y-82443000D01*
X73069925Y-82443000D01*
X72912858Y-82411758D01*
X72764899Y-82350471D01*
X72631745Y-82261501D01*
X72518499Y-82148255D01*
X72429529Y-82015101D01*
X72368242Y-81867142D01*
X72337000Y-81710075D01*
X72337000Y-81549925D01*
X72368242Y-81392858D01*
X72429529Y-81244899D01*
X72518499Y-81111745D01*
X72631745Y-80998499D01*
X72764899Y-80909529D01*
X72912858Y-80848242D01*
X73069925Y-80817000D01*
X73230075Y-80817000D01*
X73387142Y-80848242D01*
X73387142Y-80848242D01*
G37*
G36*
X68307142Y-80848242D02*
G01*
X68455101Y-80909529D01*
X68588255Y-80998499D01*
X68701501Y-81111745D01*
X68790471Y-81244899D01*
X68851758Y-81392858D01*
X68883000Y-81549925D01*
X68883000Y-81710075D01*
X68851758Y-81867142D01*
X68790471Y-82015101D01*
X68701501Y-82148255D01*
X68588255Y-82261501D01*
X68455101Y-82350471D01*
X68307142Y-82411758D01*
X68150075Y-82443000D01*
X67989925Y-82443000D01*
X67832858Y-82411758D01*
X67684899Y-82350471D01*
X67551745Y-82261501D01*
X67438499Y-82148255D01*
X67349529Y-82015101D01*
X67288242Y-81867142D01*
X67257000Y-81710075D01*
X67257000Y-81549925D01*
X67288242Y-81392858D01*
X67349529Y-81244899D01*
X67438499Y-81111745D01*
X67551745Y-80998499D01*
X67684899Y-80909529D01*
X67832858Y-80848242D01*
X67989925Y-80817000D01*
X68150075Y-80817000D01*
X68307142Y-80848242D01*
X68307142Y-80848242D01*
G37*
G36*
X70847142Y-80848242D02*
G01*
X70995101Y-80909529D01*
X71128255Y-80998499D01*
X71241501Y-81111745D01*
X71330471Y-81244899D01*
X71391758Y-81392858D01*
X71423000Y-81549925D01*
X71423000Y-81710075D01*
X71391758Y-81867142D01*
X71330471Y-82015101D01*
X71241501Y-82148255D01*
X71128255Y-82261501D01*
X70995101Y-82350471D01*
X70847142Y-82411758D01*
X70690075Y-82443000D01*
X70529925Y-82443000D01*
X70372858Y-82411758D01*
X70224899Y-82350471D01*
X70091745Y-82261501D01*
X69978499Y-82148255D01*
X69889529Y-82015101D01*
X69828242Y-81867142D01*
X69797000Y-81710075D01*
X69797000Y-81549925D01*
X69828242Y-81392858D01*
X69889529Y-81244899D01*
X69978499Y-81111745D01*
X70091745Y-80998499D01*
X70224899Y-80909529D01*
X70372858Y-80848242D01*
X70529925Y-80817000D01*
X70690075Y-80817000D01*
X70847142Y-80848242D01*
X70847142Y-80848242D01*
G37*
G36*
X108947142Y-80848242D02*
G01*
X109095101Y-80909529D01*
X109228255Y-80998499D01*
X109341501Y-81111745D01*
X109430471Y-81244899D01*
X109491758Y-81392858D01*
X109523000Y-81549925D01*
X109523000Y-81710075D01*
X109491758Y-81867142D01*
X109430471Y-82015101D01*
X109341501Y-82148255D01*
X109228255Y-82261501D01*
X109095101Y-82350471D01*
X108947142Y-82411758D01*
X108790075Y-82443000D01*
X108629925Y-82443000D01*
X108472858Y-82411758D01*
X108324899Y-82350471D01*
X108191745Y-82261501D01*
X108078499Y-82148255D01*
X107989529Y-82015101D01*
X107928242Y-81867142D01*
X107897000Y-81710075D01*
X107897000Y-81549925D01*
X107928242Y-81392858D01*
X107989529Y-81244899D01*
X108078499Y-81111745D01*
X108191745Y-80998499D01*
X108324899Y-80909529D01*
X108472858Y-80848242D01*
X108629925Y-80817000D01*
X108790075Y-80817000D01*
X108947142Y-80848242D01*
X108947142Y-80848242D01*
G37*
G36*
X83547142Y-80848242D02*
G01*
X83695101Y-80909529D01*
X83828255Y-80998499D01*
X83941501Y-81111745D01*
X84030471Y-81244899D01*
X84091758Y-81392858D01*
X84123000Y-81549925D01*
X84123000Y-81710075D01*
X84091758Y-81867142D01*
X84030471Y-82015101D01*
X83941501Y-82148255D01*
X83828255Y-82261501D01*
X83695101Y-82350471D01*
X83547142Y-82411758D01*
X83390075Y-82443000D01*
X83229925Y-82443000D01*
X83072858Y-82411758D01*
X82924899Y-82350471D01*
X82791745Y-82261501D01*
X82678499Y-82148255D01*
X82589529Y-82015101D01*
X82528242Y-81867142D01*
X82497000Y-81710075D01*
X82497000Y-81549925D01*
X82528242Y-81392858D01*
X82589529Y-81244899D01*
X82678499Y-81111745D01*
X82791745Y-80998499D01*
X82924899Y-80909529D01*
X83072858Y-80848242D01*
X83229925Y-80817000D01*
X83390075Y-80817000D01*
X83547142Y-80848242D01*
X83547142Y-80848242D01*
G37*
G36*
X117198228Y-62181703D02*
G01*
X117353100Y-62245853D01*
X117492481Y-62338985D01*
X117611015Y-62457519D01*
X117704147Y-62596900D01*
X117768297Y-62751772D01*
X117801000Y-62916184D01*
X117801000Y-63083816D01*
X117768297Y-63248228D01*
X117704147Y-63403100D01*
X117611015Y-63542481D01*
X117492481Y-63661015D01*
X117353100Y-63754147D01*
X117198228Y-63818297D01*
X117033816Y-63851000D01*
X116866184Y-63851000D01*
X116701772Y-63818297D01*
X116546900Y-63754147D01*
X116407519Y-63661015D01*
X116288985Y-63542481D01*
X116195853Y-63403100D01*
X116131703Y-63248228D01*
X116099000Y-63083816D01*
X116099000Y-62916184D01*
X116131703Y-62751772D01*
X116195853Y-62596900D01*
X116288985Y-62457519D01*
X116407519Y-62338985D01*
X116546900Y-62245853D01*
X116701772Y-62181703D01*
X116866184Y-62149000D01*
X117033816Y-62149000D01*
X117198228Y-62181703D01*
X117198228Y-62181703D01*
G37*
G36*
X130898228Y-61681703D02*
G01*
X131053100Y-61745853D01*
X131192481Y-61838985D01*
X131311015Y-61957519D01*
X131404147Y-62096900D01*
X131468297Y-62251772D01*
X131501000Y-62416184D01*
X131501000Y-62583816D01*
X131468297Y-62748228D01*
X131404147Y-62903100D01*
X131311015Y-63042481D01*
X131192481Y-63161015D01*
X131053100Y-63254147D01*
X130898228Y-63318297D01*
X130733816Y-63351000D01*
X130566184Y-63351000D01*
X130401772Y-63318297D01*
X130246900Y-63254147D01*
X130107519Y-63161015D01*
X129988985Y-63042481D01*
X129895853Y-62903100D01*
X129831703Y-62748228D01*
X129799000Y-62583816D01*
X129799000Y-62416184D01*
X129831703Y-62251772D01*
X129895853Y-62096900D01*
X129988985Y-61957519D01*
X130107519Y-61838985D01*
X130246900Y-61745853D01*
X130401772Y-61681703D01*
X130566184Y-61649000D01*
X130733816Y-61649000D01*
X130898228Y-61681703D01*
X130898228Y-61681703D01*
G37*
G36*
X117198228Y-60181703D02*
G01*
X117353100Y-60245853D01*
X117492481Y-60338985D01*
X117611015Y-60457519D01*
X117704147Y-60596900D01*
X117768297Y-60751772D01*
X117801000Y-60916184D01*
X117801000Y-61083816D01*
X117768297Y-61248228D01*
X117704147Y-61403100D01*
X117611015Y-61542481D01*
X117492481Y-61661015D01*
X117353100Y-61754147D01*
X117198228Y-61818297D01*
X117033816Y-61851000D01*
X116866184Y-61851000D01*
X116701772Y-61818297D01*
X116546900Y-61754147D01*
X116407519Y-61661015D01*
X116288985Y-61542481D01*
X116195853Y-61403100D01*
X116131703Y-61248228D01*
X116099000Y-61083816D01*
X116099000Y-60916184D01*
X116131703Y-60751772D01*
X116195853Y-60596900D01*
X116288985Y-60457519D01*
X116407519Y-60338985D01*
X116546900Y-60245853D01*
X116701772Y-60181703D01*
X116866184Y-60149000D01*
X117033816Y-60149000D01*
X117198228Y-60181703D01*
X117198228Y-60181703D01*
G37*
G36*
X130898228Y-59681703D02*
G01*
X131053100Y-59745853D01*
X131192481Y-59838985D01*
X131311015Y-59957519D01*
X131404147Y-60096900D01*
X131468297Y-60251772D01*
X131501000Y-60416184D01*
X131501000Y-60583816D01*
X131468297Y-60748228D01*
X131404147Y-60903100D01*
X131311015Y-61042481D01*
X131192481Y-61161015D01*
X131053100Y-61254147D01*
X130898228Y-61318297D01*
X130733816Y-61351000D01*
X130566184Y-61351000D01*
X130401772Y-61318297D01*
X130246900Y-61254147D01*
X130107519Y-61161015D01*
X129988985Y-61042481D01*
X129895853Y-60903100D01*
X129831703Y-60748228D01*
X129799000Y-60583816D01*
X129799000Y-60416184D01*
X129831703Y-60251772D01*
X129895853Y-60096900D01*
X129988985Y-59957519D01*
X130107519Y-59838985D01*
X130246900Y-59745853D01*
X130401772Y-59681703D01*
X130566184Y-59649000D01*
X130733816Y-59649000D01*
X130898228Y-59681703D01*
X130898228Y-59681703D01*
G37*
G36*
X152598228Y-39081703D02*
G01*
X152753100Y-39145853D01*
X152892481Y-39238985D01*
X153011015Y-39357519D01*
X153104147Y-39496900D01*
X153168297Y-39651772D01*
X153201000Y-39816184D01*
X153201000Y-39983816D01*
X153168297Y-40148228D01*
X153104147Y-40303100D01*
X153011015Y-40442481D01*
X152892481Y-40561015D01*
X152753100Y-40654147D01*
X152598228Y-40718297D01*
X152433816Y-40751000D01*
X152266184Y-40751000D01*
X152101772Y-40718297D01*
X151946900Y-40654147D01*
X151807519Y-40561015D01*
X151688985Y-40442481D01*
X151595853Y-40303100D01*
X151531703Y-40148228D01*
X151499000Y-39983816D01*
X151499000Y-39816184D01*
X151531703Y-39651772D01*
X151595853Y-39496900D01*
X151688985Y-39357519D01*
X151807519Y-39238985D01*
X151946900Y-39145853D01*
X152101772Y-39081703D01*
X152266184Y-39049000D01*
X152433816Y-39049000D01*
X152598228Y-39081703D01*
X152598228Y-39081703D01*
G37*
G36*
X166298228Y-38581703D02*
G01*
X166453100Y-38645853D01*
X166592481Y-38738985D01*
X166711015Y-38857519D01*
X166804147Y-38996900D01*
X166868297Y-39151772D01*
X166901000Y-39316184D01*
X166901000Y-39483816D01*
X166868297Y-39648228D01*
X166804147Y-39803100D01*
X166711015Y-39942481D01*
X166592481Y-40061015D01*
X166453100Y-40154147D01*
X166298228Y-40218297D01*
X166133816Y-40251000D01*
X165966184Y-40251000D01*
X165801772Y-40218297D01*
X165646900Y-40154147D01*
X165507519Y-40061015D01*
X165388985Y-39942481D01*
X165295853Y-39803100D01*
X165231703Y-39648228D01*
X165199000Y-39483816D01*
X165199000Y-39316184D01*
X165231703Y-39151772D01*
X165295853Y-38996900D01*
X165388985Y-38857519D01*
X165507519Y-38738985D01*
X165646900Y-38645853D01*
X165801772Y-38581703D01*
X165966184Y-38549000D01*
X166133816Y-38549000D01*
X166298228Y-38581703D01*
X166298228Y-38581703D01*
G37*
G36*
X87898228Y-38081703D02*
G01*
X88053100Y-38145853D01*
X88192481Y-38238985D01*
X88311015Y-38357519D01*
X88404147Y-38496900D01*
X88468297Y-38651772D01*
X88501000Y-38816184D01*
X88501000Y-38983816D01*
X88468297Y-39148228D01*
X88404147Y-39303100D01*
X88311015Y-39442481D01*
X88192481Y-39561015D01*
X88053100Y-39654147D01*
X87898228Y-39718297D01*
X87733816Y-39751000D01*
X87566184Y-39751000D01*
X87401772Y-39718297D01*
X87246900Y-39654147D01*
X87107519Y-39561015D01*
X86988985Y-39442481D01*
X86895853Y-39303100D01*
X86831703Y-39148228D01*
X86799000Y-38983816D01*
X86799000Y-38816184D01*
X86831703Y-38651772D01*
X86895853Y-38496900D01*
X86988985Y-38357519D01*
X87107519Y-38238985D01*
X87246900Y-38145853D01*
X87401772Y-38081703D01*
X87566184Y-38049000D01*
X87733816Y-38049000D01*
X87898228Y-38081703D01*
X87898228Y-38081703D01*
G37*
G36*
X101598228Y-37581703D02*
G01*
X101753100Y-37645853D01*
X101892481Y-37738985D01*
X102011015Y-37857519D01*
X102104147Y-37996900D01*
X102168297Y-38151772D01*
X102201000Y-38316184D01*
X102201000Y-38483816D01*
X102168297Y-38648228D01*
X102104147Y-38803100D01*
X102011015Y-38942481D01*
X101892481Y-39061015D01*
X101753100Y-39154147D01*
X101598228Y-39218297D01*
X101433816Y-39251000D01*
X101266184Y-39251000D01*
X101101772Y-39218297D01*
X100946900Y-39154147D01*
X100807519Y-39061015D01*
X100688985Y-38942481D01*
X100595853Y-38803100D01*
X100531703Y-38648228D01*
X100499000Y-38483816D01*
X100499000Y-38316184D01*
X100531703Y-38151772D01*
X100595853Y-37996900D01*
X100688985Y-37857519D01*
X100807519Y-37738985D01*
X100946900Y-37645853D01*
X101101772Y-37581703D01*
X101266184Y-37549000D01*
X101433816Y-37549000D01*
X101598228Y-37581703D01*
X101598228Y-37581703D01*
G37*
G36*
X152598228Y-37081703D02*
G01*
X152753100Y-37145853D01*
X152892481Y-37238985D01*
X153011015Y-37357519D01*
X153104147Y-37496900D01*
X153168297Y-37651772D01*
X153201000Y-37816184D01*
X153201000Y-37983816D01*
X153168297Y-38148228D01*
X153104147Y-38303100D01*
X153011015Y-38442481D01*
X152892481Y-38561015D01*
X152753100Y-38654147D01*
X152598228Y-38718297D01*
X152433816Y-38751000D01*
X152266184Y-38751000D01*
X152101772Y-38718297D01*
X151946900Y-38654147D01*
X151807519Y-38561015D01*
X151688985Y-38442481D01*
X151595853Y-38303100D01*
X151531703Y-38148228D01*
X151499000Y-37983816D01*
X151499000Y-37816184D01*
X151531703Y-37651772D01*
X151595853Y-37496900D01*
X151688985Y-37357519D01*
X151807519Y-37238985D01*
X151946900Y-37145853D01*
X152101772Y-37081703D01*
X152266184Y-37049000D01*
X152433816Y-37049000D01*
X152598228Y-37081703D01*
X152598228Y-37081703D01*
G37*
G36*
X166298228Y-36581703D02*
G01*
X166453100Y-36645853D01*
X166592481Y-36738985D01*
X166711015Y-36857519D01*
X166804147Y-36996900D01*
X166868297Y-37151772D01*
X166901000Y-37316184D01*
X166901000Y-37483816D01*
X166868297Y-37648228D01*
X166804147Y-37803100D01*
X166711015Y-37942481D01*
X166592481Y-38061015D01*
X166453100Y-38154147D01*
X166298228Y-38218297D01*
X166133816Y-38251000D01*
X165966184Y-38251000D01*
X165801772Y-38218297D01*
X165646900Y-38154147D01*
X165507519Y-38061015D01*
X165388985Y-37942481D01*
X165295853Y-37803100D01*
X165231703Y-37648228D01*
X165199000Y-37483816D01*
X165199000Y-37316184D01*
X165231703Y-37151772D01*
X165295853Y-36996900D01*
X165388985Y-36857519D01*
X165507519Y-36738985D01*
X165646900Y-36645853D01*
X165801772Y-36581703D01*
X165966184Y-36549000D01*
X166133816Y-36549000D01*
X166298228Y-36581703D01*
X166298228Y-36581703D01*
G37*
G36*
X87898228Y-36081703D02*
G01*
X88053100Y-36145853D01*
X88192481Y-36238985D01*
X88311015Y-36357519D01*
X88404147Y-36496900D01*
X88468297Y-36651772D01*
X88501000Y-36816184D01*
X88501000Y-36983816D01*
X88468297Y-37148228D01*
X88404147Y-37303100D01*
X88311015Y-37442481D01*
X88192481Y-37561015D01*
X88053100Y-37654147D01*
X87898228Y-37718297D01*
X87733816Y-37751000D01*
X87566184Y-37751000D01*
X87401772Y-37718297D01*
X87246900Y-37654147D01*
X87107519Y-37561015D01*
X86988985Y-37442481D01*
X86895853Y-37303100D01*
X86831703Y-37148228D01*
X86799000Y-36983816D01*
X86799000Y-36816184D01*
X86831703Y-36651772D01*
X86895853Y-36496900D01*
X86988985Y-36357519D01*
X87107519Y-36238985D01*
X87246900Y-36145853D01*
X87401772Y-36081703D01*
X87566184Y-36049000D01*
X87733816Y-36049000D01*
X87898228Y-36081703D01*
X87898228Y-36081703D01*
G37*
G36*
X101598228Y-35581703D02*
G01*
X101753100Y-35645853D01*
X101892481Y-35738985D01*
X102011015Y-35857519D01*
X102104147Y-35996900D01*
X102168297Y-36151772D01*
X102201000Y-36316184D01*
X102201000Y-36483816D01*
X102168297Y-36648228D01*
X102104147Y-36803100D01*
X102011015Y-36942481D01*
X101892481Y-37061015D01*
X101753100Y-37154147D01*
X101598228Y-37218297D01*
X101433816Y-37251000D01*
X101266184Y-37251000D01*
X101101772Y-37218297D01*
X100946900Y-37154147D01*
X100807519Y-37061015D01*
X100688985Y-36942481D01*
X100595853Y-36803100D01*
X100531703Y-36648228D01*
X100499000Y-36483816D01*
X100499000Y-36316184D01*
X100531703Y-36151772D01*
X100595853Y-35996900D01*
X100688985Y-35857519D01*
X100807519Y-35738985D01*
X100946900Y-35645853D01*
X101101772Y-35581703D01*
X101266184Y-35549000D01*
X101433816Y-35549000D01*
X101598228Y-35581703D01*
X101598228Y-35581703D01*
G37*
M02*
