G04 #@! TF.GenerationSoftware,KiCad,Pcbnew,(5.1.2)-2*
G04 #@! TF.CreationDate,2019-09-18T13:02:43-07:00*
G04 #@! TF.ProjectId,Cable Tester Board,4361626c-6520-4546-9573-74657220426f,rev?*
G04 #@! TF.SameCoordinates,Original*
G04 #@! TF.FileFunction,Soldermask,Top*
G04 #@! TF.FilePolarity,Negative*
%FSLAX46Y46*%
G04 Gerber Fmt 4.6, Leading zero omitted, Abs format (unit mm)*
G04 Created by KiCad (PCBNEW (5.1.2)-2) date 2019-09-18 13:02:43*
%MOMM*%
%LPD*%
G04 APERTURE LIST*
%ADD10C,0.050000*%
%ADD11C,0.100000*%
G04 APERTURE END LIST*
D10*
X27100000Y-29500000D02*
X27100000Y-135500000D01*
X27100000Y-135500000D02*
X185000000Y-135500000D01*
X185000000Y-29500000D02*
X185000000Y-135500000D01*
X27100000Y-29500000D02*
X185000000Y-29500000D01*
D11*
G36*
X150432517Y-123508781D02*
G01*
X150559946Y-123547436D01*
X150677383Y-123610208D01*
X150780317Y-123694683D01*
X150864792Y-123797617D01*
X150927564Y-123915054D01*
X150966219Y-124042483D01*
X150976000Y-124141795D01*
X150976000Y-126458205D01*
X150966219Y-126557517D01*
X150927564Y-126684946D01*
X150864792Y-126802383D01*
X150780317Y-126905316D01*
X150677382Y-126989792D01*
X150559945Y-127052564D01*
X150432516Y-127091219D01*
X150300000Y-127104270D01*
X150167483Y-127091219D01*
X150040054Y-127052564D01*
X149922617Y-126989792D01*
X149819684Y-126905317D01*
X149735208Y-126802382D01*
X149672436Y-126684945D01*
X149633781Y-126557516D01*
X149624000Y-126458204D01*
X149624001Y-124141795D01*
X149633782Y-124042483D01*
X149672437Y-123915054D01*
X149735209Y-123797617D01*
X149819684Y-123694683D01*
X149922618Y-123610208D01*
X150040055Y-123547436D01*
X150167484Y-123508781D01*
X150300000Y-123495730D01*
X150432517Y-123508781D01*
X150432517Y-123508781D01*
G37*
G36*
X156432517Y-123508781D02*
G01*
X156559946Y-123547436D01*
X156677383Y-123610208D01*
X156780317Y-123694683D01*
X156864792Y-123797617D01*
X156927564Y-123915054D01*
X156966219Y-124042483D01*
X156976000Y-124141795D01*
X156976000Y-126458205D01*
X156966219Y-126557517D01*
X156927564Y-126684946D01*
X156864792Y-126802383D01*
X156780317Y-126905316D01*
X156677382Y-126989792D01*
X156559945Y-127052564D01*
X156432516Y-127091219D01*
X156300000Y-127104270D01*
X156167483Y-127091219D01*
X156040054Y-127052564D01*
X155922617Y-126989792D01*
X155819684Y-126905317D01*
X155735208Y-126802382D01*
X155672436Y-126684945D01*
X155633781Y-126557516D01*
X155624000Y-126458204D01*
X155624001Y-124141795D01*
X155633782Y-124042483D01*
X155672437Y-123915054D01*
X155735209Y-123797617D01*
X155819684Y-123694683D01*
X155922618Y-123610208D01*
X156040055Y-123547436D01*
X156167484Y-123508781D01*
X156300000Y-123495730D01*
X156432517Y-123508781D01*
X156432517Y-123508781D01*
G37*
G36*
X154432517Y-123508781D02*
G01*
X154559946Y-123547436D01*
X154677383Y-123610208D01*
X154780317Y-123694683D01*
X154864792Y-123797617D01*
X154927564Y-123915054D01*
X154966219Y-124042483D01*
X154976000Y-124141795D01*
X154976000Y-126458205D01*
X154966219Y-126557517D01*
X154927564Y-126684946D01*
X154864792Y-126802383D01*
X154780317Y-126905316D01*
X154677382Y-126989792D01*
X154559945Y-127052564D01*
X154432516Y-127091219D01*
X154300000Y-127104270D01*
X154167483Y-127091219D01*
X154040054Y-127052564D01*
X153922617Y-126989792D01*
X153819684Y-126905317D01*
X153735208Y-126802382D01*
X153672436Y-126684945D01*
X153633781Y-126557516D01*
X153624000Y-126458204D01*
X153624001Y-124141795D01*
X153633782Y-124042483D01*
X153672437Y-123915054D01*
X153735209Y-123797617D01*
X153819684Y-123694683D01*
X153922618Y-123610208D01*
X154040055Y-123547436D01*
X154167484Y-123508781D01*
X154300000Y-123495730D01*
X154432517Y-123508781D01*
X154432517Y-123508781D01*
G37*
G36*
X152432517Y-123508781D02*
G01*
X152559946Y-123547436D01*
X152677383Y-123610208D01*
X152780317Y-123694683D01*
X152864792Y-123797617D01*
X152927564Y-123915054D01*
X152966219Y-124042483D01*
X152976000Y-124141795D01*
X152976000Y-126458205D01*
X152966219Y-126557517D01*
X152927564Y-126684946D01*
X152864792Y-126802383D01*
X152780317Y-126905316D01*
X152677382Y-126989792D01*
X152559945Y-127052564D01*
X152432516Y-127091219D01*
X152300000Y-127104270D01*
X152167483Y-127091219D01*
X152040054Y-127052564D01*
X151922617Y-126989792D01*
X151819684Y-126905317D01*
X151735208Y-126802382D01*
X151672436Y-126684945D01*
X151633781Y-126557516D01*
X151624000Y-126458204D01*
X151624001Y-124141795D01*
X151633782Y-124042483D01*
X151672437Y-123915054D01*
X151735209Y-123797617D01*
X151819684Y-123694683D01*
X151922618Y-123610208D01*
X152040055Y-123547436D01*
X152167484Y-123508781D01*
X152300000Y-123495730D01*
X152432517Y-123508781D01*
X152432517Y-123508781D01*
G37*
G36*
X146698228Y-125281703D02*
G01*
X146853100Y-125345853D01*
X146992481Y-125438985D01*
X147111015Y-125557519D01*
X147204147Y-125696900D01*
X147268297Y-125851772D01*
X147301000Y-126016184D01*
X147301000Y-126183816D01*
X147268297Y-126348228D01*
X147204147Y-126503100D01*
X147111015Y-126642481D01*
X146992481Y-126761015D01*
X146853100Y-126854147D01*
X146698228Y-126918297D01*
X146533816Y-126951000D01*
X146366184Y-126951000D01*
X146201772Y-126918297D01*
X146046900Y-126854147D01*
X145907519Y-126761015D01*
X145788985Y-126642481D01*
X145695853Y-126503100D01*
X145631703Y-126348228D01*
X145599000Y-126183816D01*
X145599000Y-126016184D01*
X145631703Y-125851772D01*
X145695853Y-125696900D01*
X145788985Y-125557519D01*
X145907519Y-125438985D01*
X146046900Y-125345853D01*
X146201772Y-125281703D01*
X146366184Y-125249000D01*
X146533816Y-125249000D01*
X146698228Y-125281703D01*
X146698228Y-125281703D01*
G37*
G36*
X160398228Y-124781703D02*
G01*
X160553100Y-124845853D01*
X160692481Y-124938985D01*
X160811015Y-125057519D01*
X160904147Y-125196900D01*
X160968297Y-125351772D01*
X161001000Y-125516184D01*
X161001000Y-125683816D01*
X160968297Y-125848228D01*
X160904147Y-126003100D01*
X160811015Y-126142481D01*
X160692481Y-126261015D01*
X160553100Y-126354147D01*
X160398228Y-126418297D01*
X160233816Y-126451000D01*
X160066184Y-126451000D01*
X159901772Y-126418297D01*
X159746900Y-126354147D01*
X159607519Y-126261015D01*
X159488985Y-126142481D01*
X159395853Y-126003100D01*
X159331703Y-125848228D01*
X159299000Y-125683816D01*
X159299000Y-125516184D01*
X159331703Y-125351772D01*
X159395853Y-125196900D01*
X159488985Y-125057519D01*
X159607519Y-124938985D01*
X159746900Y-124845853D01*
X159901772Y-124781703D01*
X160066184Y-124749000D01*
X160233816Y-124749000D01*
X160398228Y-124781703D01*
X160398228Y-124781703D01*
G37*
G36*
X87732517Y-122508781D02*
G01*
X87859946Y-122547436D01*
X87977383Y-122610208D01*
X88080317Y-122694683D01*
X88164792Y-122797617D01*
X88227564Y-122915054D01*
X88266219Y-123042483D01*
X88276000Y-123141795D01*
X88276000Y-125458205D01*
X88266219Y-125557517D01*
X88227564Y-125684946D01*
X88164792Y-125802383D01*
X88080317Y-125905316D01*
X87977382Y-125989792D01*
X87859945Y-126052564D01*
X87732516Y-126091219D01*
X87600000Y-126104270D01*
X87467483Y-126091219D01*
X87340054Y-126052564D01*
X87222617Y-125989792D01*
X87119684Y-125905317D01*
X87035208Y-125802382D01*
X86972436Y-125684945D01*
X86933781Y-125557516D01*
X86924000Y-125458204D01*
X86924001Y-123141795D01*
X86933782Y-123042483D01*
X86972437Y-122915054D01*
X87035209Y-122797617D01*
X87119684Y-122694683D01*
X87222618Y-122610208D01*
X87340055Y-122547436D01*
X87467484Y-122508781D01*
X87600000Y-122495730D01*
X87732517Y-122508781D01*
X87732517Y-122508781D01*
G37*
G36*
X91732517Y-122508781D02*
G01*
X91859946Y-122547436D01*
X91977383Y-122610208D01*
X92080317Y-122694683D01*
X92164792Y-122797617D01*
X92227564Y-122915054D01*
X92266219Y-123042483D01*
X92276000Y-123141795D01*
X92276000Y-125458205D01*
X92266219Y-125557517D01*
X92227564Y-125684946D01*
X92164792Y-125802383D01*
X92080317Y-125905316D01*
X91977382Y-125989792D01*
X91859945Y-126052564D01*
X91732516Y-126091219D01*
X91600000Y-126104270D01*
X91467483Y-126091219D01*
X91340054Y-126052564D01*
X91222617Y-125989792D01*
X91119684Y-125905317D01*
X91035208Y-125802382D01*
X90972436Y-125684945D01*
X90933781Y-125557516D01*
X90924000Y-125458204D01*
X90924001Y-123141795D01*
X90933782Y-123042483D01*
X90972437Y-122915054D01*
X91035209Y-122797617D01*
X91119684Y-122694683D01*
X91222618Y-122610208D01*
X91340055Y-122547436D01*
X91467484Y-122508781D01*
X91600000Y-122495730D01*
X91732517Y-122508781D01*
X91732517Y-122508781D01*
G37*
G36*
X89732517Y-122508781D02*
G01*
X89859946Y-122547436D01*
X89977383Y-122610208D01*
X90080317Y-122694683D01*
X90164792Y-122797617D01*
X90227564Y-122915054D01*
X90266219Y-123042483D01*
X90276000Y-123141795D01*
X90276000Y-125458205D01*
X90266219Y-125557517D01*
X90227564Y-125684946D01*
X90164792Y-125802383D01*
X90080317Y-125905316D01*
X89977382Y-125989792D01*
X89859945Y-126052564D01*
X89732516Y-126091219D01*
X89600000Y-126104270D01*
X89467483Y-126091219D01*
X89340054Y-126052564D01*
X89222617Y-125989792D01*
X89119684Y-125905317D01*
X89035208Y-125802382D01*
X88972436Y-125684945D01*
X88933781Y-125557516D01*
X88924000Y-125458204D01*
X88924001Y-123141795D01*
X88933782Y-123042483D01*
X88972437Y-122915054D01*
X89035209Y-122797617D01*
X89119684Y-122694683D01*
X89222618Y-122610208D01*
X89340055Y-122547436D01*
X89467484Y-122508781D01*
X89600000Y-122495730D01*
X89732517Y-122508781D01*
X89732517Y-122508781D01*
G37*
G36*
X85732517Y-122508781D02*
G01*
X85859946Y-122547436D01*
X85977383Y-122610208D01*
X86080317Y-122694683D01*
X86164792Y-122797617D01*
X86227564Y-122915054D01*
X86266219Y-123042483D01*
X86276000Y-123141795D01*
X86276000Y-125458205D01*
X86266219Y-125557517D01*
X86227564Y-125684946D01*
X86164792Y-125802383D01*
X86080317Y-125905316D01*
X85977382Y-125989792D01*
X85859945Y-126052564D01*
X85732516Y-126091219D01*
X85600000Y-126104270D01*
X85467483Y-126091219D01*
X85340054Y-126052564D01*
X85222617Y-125989792D01*
X85119684Y-125905317D01*
X85035208Y-125802382D01*
X84972436Y-125684945D01*
X84933781Y-125557516D01*
X84924000Y-125458204D01*
X84924001Y-123141795D01*
X84933782Y-123042483D01*
X84972437Y-122915054D01*
X85035209Y-122797617D01*
X85119684Y-122694683D01*
X85222618Y-122610208D01*
X85340055Y-122547436D01*
X85467484Y-122508781D01*
X85600000Y-122495730D01*
X85732517Y-122508781D01*
X85732517Y-122508781D01*
G37*
G36*
X81998228Y-124281703D02*
G01*
X82153100Y-124345853D01*
X82292481Y-124438985D01*
X82411015Y-124557519D01*
X82504147Y-124696900D01*
X82568297Y-124851772D01*
X82601000Y-125016184D01*
X82601000Y-125183816D01*
X82568297Y-125348228D01*
X82504147Y-125503100D01*
X82411015Y-125642481D01*
X82292481Y-125761015D01*
X82153100Y-125854147D01*
X81998228Y-125918297D01*
X81833816Y-125951000D01*
X81666184Y-125951000D01*
X81501772Y-125918297D01*
X81346900Y-125854147D01*
X81207519Y-125761015D01*
X81088985Y-125642481D01*
X80995853Y-125503100D01*
X80931703Y-125348228D01*
X80899000Y-125183816D01*
X80899000Y-125016184D01*
X80931703Y-124851772D01*
X80995853Y-124696900D01*
X81088985Y-124557519D01*
X81207519Y-124438985D01*
X81346900Y-124345853D01*
X81501772Y-124281703D01*
X81666184Y-124249000D01*
X81833816Y-124249000D01*
X81998228Y-124281703D01*
X81998228Y-124281703D01*
G37*
G36*
X95698228Y-123781703D02*
G01*
X95853100Y-123845853D01*
X95992481Y-123938985D01*
X96111015Y-124057519D01*
X96204147Y-124196900D01*
X96268297Y-124351772D01*
X96301000Y-124516184D01*
X96301000Y-124683816D01*
X96268297Y-124848228D01*
X96204147Y-125003100D01*
X96111015Y-125142481D01*
X95992481Y-125261015D01*
X95853100Y-125354147D01*
X95698228Y-125418297D01*
X95533816Y-125451000D01*
X95366184Y-125451000D01*
X95201772Y-125418297D01*
X95046900Y-125354147D01*
X94907519Y-125261015D01*
X94788985Y-125142481D01*
X94695853Y-125003100D01*
X94631703Y-124848228D01*
X94599000Y-124683816D01*
X94599000Y-124516184D01*
X94631703Y-124351772D01*
X94695853Y-124196900D01*
X94788985Y-124057519D01*
X94907519Y-123938985D01*
X95046900Y-123845853D01*
X95201772Y-123781703D01*
X95366184Y-123749000D01*
X95533816Y-123749000D01*
X95698228Y-123781703D01*
X95698228Y-123781703D01*
G37*
G36*
X146698228Y-123281703D02*
G01*
X146853100Y-123345853D01*
X146992481Y-123438985D01*
X147111015Y-123557519D01*
X147204147Y-123696900D01*
X147268297Y-123851772D01*
X147301000Y-124016184D01*
X147301000Y-124183816D01*
X147268297Y-124348228D01*
X147204147Y-124503100D01*
X147111015Y-124642481D01*
X146992481Y-124761015D01*
X146853100Y-124854147D01*
X146698228Y-124918297D01*
X146533816Y-124951000D01*
X146366184Y-124951000D01*
X146201772Y-124918297D01*
X146046900Y-124854147D01*
X145907519Y-124761015D01*
X145788985Y-124642481D01*
X145695853Y-124503100D01*
X145631703Y-124348228D01*
X145599000Y-124183816D01*
X145599000Y-124016184D01*
X145631703Y-123851772D01*
X145695853Y-123696900D01*
X145788985Y-123557519D01*
X145907519Y-123438985D01*
X146046900Y-123345853D01*
X146201772Y-123281703D01*
X146366184Y-123249000D01*
X146533816Y-123249000D01*
X146698228Y-123281703D01*
X146698228Y-123281703D01*
G37*
G36*
X160398228Y-122781703D02*
G01*
X160553100Y-122845853D01*
X160692481Y-122938985D01*
X160811015Y-123057519D01*
X160904147Y-123196900D01*
X160968297Y-123351772D01*
X161001000Y-123516184D01*
X161001000Y-123683816D01*
X160968297Y-123848228D01*
X160904147Y-124003100D01*
X160811015Y-124142481D01*
X160692481Y-124261015D01*
X160553100Y-124354147D01*
X160398228Y-124418297D01*
X160233816Y-124451000D01*
X160066184Y-124451000D01*
X159901772Y-124418297D01*
X159746900Y-124354147D01*
X159607519Y-124261015D01*
X159488985Y-124142481D01*
X159395853Y-124003100D01*
X159331703Y-123848228D01*
X159299000Y-123683816D01*
X159299000Y-123516184D01*
X159331703Y-123351772D01*
X159395853Y-123196900D01*
X159488985Y-123057519D01*
X159607519Y-122938985D01*
X159746900Y-122845853D01*
X159901772Y-122781703D01*
X160066184Y-122749000D01*
X160233816Y-122749000D01*
X160398228Y-122781703D01*
X160398228Y-122781703D01*
G37*
G36*
X81998228Y-122281703D02*
G01*
X82153100Y-122345853D01*
X82292481Y-122438985D01*
X82411015Y-122557519D01*
X82504147Y-122696900D01*
X82568297Y-122851772D01*
X82601000Y-123016184D01*
X82601000Y-123183816D01*
X82568297Y-123348228D01*
X82504147Y-123503100D01*
X82411015Y-123642481D01*
X82292481Y-123761015D01*
X82153100Y-123854147D01*
X81998228Y-123918297D01*
X81833816Y-123951000D01*
X81666184Y-123951000D01*
X81501772Y-123918297D01*
X81346900Y-123854147D01*
X81207519Y-123761015D01*
X81088985Y-123642481D01*
X80995853Y-123503100D01*
X80931703Y-123348228D01*
X80899000Y-123183816D01*
X80899000Y-123016184D01*
X80931703Y-122851772D01*
X80995853Y-122696900D01*
X81088985Y-122557519D01*
X81207519Y-122438985D01*
X81346900Y-122345853D01*
X81501772Y-122281703D01*
X81666184Y-122249000D01*
X81833816Y-122249000D01*
X81998228Y-122281703D01*
X81998228Y-122281703D01*
G37*
G36*
X95698228Y-121781703D02*
G01*
X95853100Y-121845853D01*
X95992481Y-121938985D01*
X96111015Y-122057519D01*
X96204147Y-122196900D01*
X96268297Y-122351772D01*
X96301000Y-122516184D01*
X96301000Y-122683816D01*
X96268297Y-122848228D01*
X96204147Y-123003100D01*
X96111015Y-123142481D01*
X95992481Y-123261015D01*
X95853100Y-123354147D01*
X95698228Y-123418297D01*
X95533816Y-123451000D01*
X95366184Y-123451000D01*
X95201772Y-123418297D01*
X95046900Y-123354147D01*
X94907519Y-123261015D01*
X94788985Y-123142481D01*
X94695853Y-123003100D01*
X94631703Y-122848228D01*
X94599000Y-122683816D01*
X94599000Y-122516184D01*
X94631703Y-122351772D01*
X94695853Y-122196900D01*
X94788985Y-122057519D01*
X94907519Y-121938985D01*
X95046900Y-121845853D01*
X95201772Y-121781703D01*
X95366184Y-121749000D01*
X95533816Y-121749000D01*
X95698228Y-121781703D01*
X95698228Y-121781703D01*
G37*
G36*
X80139401Y-100401908D02*
G01*
X80158347Y-100407656D01*
X80177291Y-100413402D01*
X80212210Y-100432066D01*
X80242816Y-100457184D01*
X80267934Y-100487790D01*
X80276117Y-100503100D01*
X80286597Y-100522707D01*
X80298092Y-100560599D01*
X80301972Y-100600000D01*
X80298092Y-100639401D01*
X80292344Y-100658347D01*
X80286598Y-100677291D01*
X80267934Y-100712210D01*
X80242816Y-100742816D01*
X80229945Y-100753379D01*
X80212623Y-100770701D01*
X80199009Y-100791075D01*
X80189632Y-100813714D01*
X80184851Y-100837747D01*
X80184851Y-100862251D01*
X80189631Y-100886284D01*
X80199008Y-100908923D01*
X80212622Y-100929298D01*
X80229945Y-100946621D01*
X80242816Y-100957184D01*
X80267934Y-100987790D01*
X80276117Y-101003100D01*
X80286597Y-101022707D01*
X80298092Y-101060599D01*
X80301972Y-101100000D01*
X80298092Y-101139401D01*
X80292344Y-101158347D01*
X80286598Y-101177291D01*
X80267934Y-101212210D01*
X80242816Y-101242816D01*
X80229945Y-101253379D01*
X80212623Y-101270701D01*
X80199009Y-101291075D01*
X80189632Y-101313714D01*
X80184851Y-101337747D01*
X80184851Y-101362251D01*
X80189631Y-101386284D01*
X80199008Y-101408923D01*
X80212622Y-101429298D01*
X80229945Y-101446621D01*
X80242816Y-101457184D01*
X80267934Y-101487790D01*
X80285466Y-101520590D01*
X80286597Y-101522707D01*
X80298092Y-101560599D01*
X80301972Y-101600000D01*
X80298092Y-101639401D01*
X80298091Y-101639403D01*
X80286598Y-101677291D01*
X80267934Y-101712210D01*
X80242816Y-101742816D01*
X80229945Y-101753379D01*
X80212623Y-101770701D01*
X80199009Y-101791075D01*
X80189632Y-101813714D01*
X80184851Y-101837747D01*
X80184851Y-101862251D01*
X80189631Y-101886284D01*
X80199008Y-101908923D01*
X80212622Y-101929298D01*
X80229945Y-101946621D01*
X80242816Y-101957184D01*
X80267934Y-101987790D01*
X80283110Y-102016184D01*
X80286597Y-102022707D01*
X80298092Y-102060599D01*
X80301972Y-102100000D01*
X80298092Y-102139401D01*
X80298091Y-102139403D01*
X80286598Y-102177291D01*
X80267934Y-102212210D01*
X80242816Y-102242816D01*
X80229945Y-102253379D01*
X80212623Y-102270701D01*
X80199009Y-102291075D01*
X80189632Y-102313714D01*
X80184851Y-102337747D01*
X80184851Y-102362251D01*
X80189631Y-102386284D01*
X80199008Y-102408923D01*
X80212622Y-102429298D01*
X80229945Y-102446621D01*
X80242816Y-102457184D01*
X80267934Y-102487790D01*
X80276117Y-102503100D01*
X80286597Y-102522707D01*
X80298092Y-102560599D01*
X80301972Y-102600000D01*
X80298092Y-102639401D01*
X80292345Y-102658347D01*
X80286598Y-102677291D01*
X80267934Y-102712210D01*
X80242816Y-102742816D01*
X80229945Y-102753379D01*
X80212623Y-102770701D01*
X80199009Y-102791075D01*
X80189632Y-102813714D01*
X80184851Y-102837747D01*
X80184851Y-102862251D01*
X80189631Y-102886284D01*
X80199008Y-102908923D01*
X80212622Y-102929298D01*
X80229945Y-102946621D01*
X80242816Y-102957184D01*
X80267934Y-102987790D01*
X80276117Y-103003100D01*
X80286597Y-103022707D01*
X80298092Y-103060599D01*
X80301972Y-103100000D01*
X80298092Y-103139401D01*
X80292345Y-103158347D01*
X80286598Y-103177291D01*
X80267934Y-103212210D01*
X80242816Y-103242816D01*
X80229945Y-103253379D01*
X80212623Y-103270701D01*
X80199009Y-103291075D01*
X80189632Y-103313714D01*
X80184851Y-103337747D01*
X80184851Y-103362251D01*
X80189631Y-103386284D01*
X80199008Y-103408923D01*
X80212622Y-103429298D01*
X80229945Y-103446621D01*
X80242816Y-103457184D01*
X80267934Y-103487790D01*
X80285466Y-103520590D01*
X80286597Y-103522707D01*
X80298092Y-103560599D01*
X80301972Y-103600000D01*
X80298092Y-103639401D01*
X80298091Y-103639403D01*
X80286598Y-103677291D01*
X80267934Y-103712210D01*
X80242816Y-103742816D01*
X80229945Y-103753379D01*
X80212623Y-103770701D01*
X80199009Y-103791075D01*
X80189632Y-103813714D01*
X80184851Y-103837747D01*
X80184851Y-103862251D01*
X80189631Y-103886284D01*
X80199008Y-103908923D01*
X80212622Y-103929298D01*
X80229945Y-103946621D01*
X80242816Y-103957184D01*
X80267934Y-103987790D01*
X80285466Y-104020590D01*
X80286597Y-104022707D01*
X80298092Y-104060599D01*
X80301972Y-104100000D01*
X80298092Y-104139401D01*
X80298091Y-104139403D01*
X80286598Y-104177291D01*
X80267934Y-104212210D01*
X80242816Y-104242816D01*
X80229945Y-104253379D01*
X80212623Y-104270701D01*
X80199009Y-104291075D01*
X80189632Y-104313714D01*
X80184851Y-104337747D01*
X80184851Y-104362251D01*
X80189631Y-104386284D01*
X80199008Y-104408923D01*
X80212622Y-104429298D01*
X80229945Y-104446621D01*
X80242816Y-104457184D01*
X80267934Y-104487790D01*
X80285466Y-104520590D01*
X80286597Y-104522707D01*
X80298092Y-104560599D01*
X80301972Y-104600000D01*
X80298092Y-104639401D01*
X80298091Y-104639403D01*
X80286598Y-104677291D01*
X80267934Y-104712210D01*
X80242816Y-104742816D01*
X80229945Y-104753379D01*
X80212623Y-104770701D01*
X80199009Y-104791075D01*
X80189632Y-104813714D01*
X80184851Y-104837747D01*
X80184851Y-104862251D01*
X80189631Y-104886284D01*
X80199008Y-104908923D01*
X80212622Y-104929298D01*
X80229945Y-104946621D01*
X80242816Y-104957184D01*
X80267934Y-104987790D01*
X80285466Y-105020590D01*
X80286597Y-105022707D01*
X80298092Y-105060599D01*
X80301972Y-105100000D01*
X80298092Y-105139401D01*
X80298091Y-105139403D01*
X80286598Y-105177291D01*
X80267934Y-105212210D01*
X80242816Y-105242816D01*
X80212210Y-105267934D01*
X80177291Y-105286598D01*
X80158347Y-105292344D01*
X80139401Y-105298092D01*
X80109874Y-105301000D01*
X79190126Y-105301000D01*
X79160599Y-105298092D01*
X79141653Y-105292344D01*
X79122709Y-105286598D01*
X79087790Y-105267934D01*
X79057184Y-105242816D01*
X79032066Y-105212210D01*
X79013402Y-105177291D01*
X79001909Y-105139403D01*
X79001908Y-105139401D01*
X78998028Y-105100000D01*
X79001908Y-105060599D01*
X79013403Y-105022707D01*
X79014534Y-105020590D01*
X79032066Y-104987790D01*
X79057184Y-104957184D01*
X79070055Y-104946621D01*
X79087377Y-104929299D01*
X79100991Y-104908925D01*
X79110368Y-104886286D01*
X79115149Y-104862253D01*
X79115149Y-104837749D01*
X79110369Y-104813716D01*
X79100992Y-104791077D01*
X79087378Y-104770702D01*
X79070055Y-104753379D01*
X79057184Y-104742816D01*
X79032066Y-104712210D01*
X79013402Y-104677291D01*
X79001909Y-104639403D01*
X79001908Y-104639401D01*
X78998028Y-104600000D01*
X79001908Y-104560599D01*
X79013403Y-104522707D01*
X79014534Y-104520590D01*
X79032066Y-104487790D01*
X79057184Y-104457184D01*
X79070055Y-104446621D01*
X79087377Y-104429299D01*
X79100991Y-104408925D01*
X79110368Y-104386286D01*
X79115149Y-104362253D01*
X79115149Y-104337749D01*
X79110369Y-104313716D01*
X79100992Y-104291077D01*
X79087378Y-104270702D01*
X79070055Y-104253379D01*
X79057184Y-104242816D01*
X79032066Y-104212210D01*
X79013402Y-104177291D01*
X79001909Y-104139403D01*
X79001908Y-104139401D01*
X78998028Y-104100000D01*
X79001908Y-104060599D01*
X79013403Y-104022707D01*
X79014534Y-104020590D01*
X79032066Y-103987790D01*
X79057184Y-103957184D01*
X79070055Y-103946621D01*
X79087377Y-103929299D01*
X79100991Y-103908925D01*
X79110368Y-103886286D01*
X79115149Y-103862253D01*
X79115149Y-103837749D01*
X79110369Y-103813716D01*
X79100992Y-103791077D01*
X79087378Y-103770702D01*
X79070055Y-103753379D01*
X79057184Y-103742816D01*
X79032066Y-103712210D01*
X79013402Y-103677291D01*
X79001909Y-103639403D01*
X79001908Y-103639401D01*
X78998028Y-103600000D01*
X79001908Y-103560599D01*
X79013403Y-103522707D01*
X79014534Y-103520590D01*
X79032066Y-103487790D01*
X79057184Y-103457184D01*
X79070055Y-103446621D01*
X79087377Y-103429299D01*
X79100991Y-103408925D01*
X79110368Y-103386286D01*
X79115149Y-103362253D01*
X79115149Y-103337749D01*
X79110369Y-103313716D01*
X79100992Y-103291077D01*
X79087378Y-103270702D01*
X79070055Y-103253379D01*
X79057184Y-103242816D01*
X79032066Y-103212210D01*
X79013402Y-103177291D01*
X79007655Y-103158347D01*
X79001908Y-103139401D01*
X78998028Y-103100000D01*
X79001908Y-103060599D01*
X79013403Y-103022707D01*
X79023883Y-103003100D01*
X79032066Y-102987790D01*
X79057184Y-102957184D01*
X79070055Y-102946621D01*
X79087377Y-102929299D01*
X79100991Y-102908925D01*
X79110368Y-102886286D01*
X79115149Y-102862253D01*
X79115149Y-102837749D01*
X79110369Y-102813716D01*
X79100992Y-102791077D01*
X79087378Y-102770702D01*
X79070055Y-102753379D01*
X79057184Y-102742816D01*
X79032066Y-102712210D01*
X79013402Y-102677291D01*
X79007656Y-102658347D01*
X79001908Y-102639401D01*
X78998028Y-102600000D01*
X79001908Y-102560599D01*
X79013403Y-102522707D01*
X79023883Y-102503100D01*
X79032066Y-102487790D01*
X79057184Y-102457184D01*
X79070055Y-102446621D01*
X79087377Y-102429299D01*
X79100991Y-102408925D01*
X79110368Y-102386286D01*
X79115149Y-102362253D01*
X79115149Y-102337749D01*
X79110369Y-102313716D01*
X79100992Y-102291077D01*
X79087378Y-102270702D01*
X79070055Y-102253379D01*
X79057184Y-102242816D01*
X79032066Y-102212210D01*
X79013402Y-102177291D01*
X79001909Y-102139403D01*
X79001908Y-102139401D01*
X78998028Y-102100000D01*
X79001908Y-102060599D01*
X79013403Y-102022707D01*
X79016890Y-102016184D01*
X79032066Y-101987790D01*
X79057184Y-101957184D01*
X79070055Y-101946621D01*
X79087377Y-101929299D01*
X79100991Y-101908925D01*
X79110368Y-101886286D01*
X79115149Y-101862253D01*
X79115149Y-101837749D01*
X79110369Y-101813716D01*
X79100992Y-101791077D01*
X79087378Y-101770702D01*
X79070055Y-101753379D01*
X79057184Y-101742816D01*
X79032066Y-101712210D01*
X79013402Y-101677291D01*
X79001909Y-101639403D01*
X79001908Y-101639401D01*
X78998028Y-101600000D01*
X79001908Y-101560599D01*
X79013403Y-101522707D01*
X79014534Y-101520590D01*
X79032066Y-101487790D01*
X79057184Y-101457184D01*
X79070055Y-101446621D01*
X79087377Y-101429299D01*
X79100991Y-101408925D01*
X79110368Y-101386286D01*
X79115149Y-101362253D01*
X79115149Y-101337749D01*
X79110369Y-101313716D01*
X79100992Y-101291077D01*
X79087378Y-101270702D01*
X79070055Y-101253379D01*
X79057184Y-101242816D01*
X79032066Y-101212210D01*
X79013402Y-101177291D01*
X79007656Y-101158347D01*
X79001908Y-101139401D01*
X78998028Y-101100000D01*
X79001908Y-101060599D01*
X79013403Y-101022707D01*
X79023883Y-101003100D01*
X79032066Y-100987790D01*
X79057184Y-100957184D01*
X79070055Y-100946621D01*
X79087377Y-100929299D01*
X79100991Y-100908925D01*
X79110368Y-100886286D01*
X79115149Y-100862253D01*
X79115149Y-100837749D01*
X79110369Y-100813716D01*
X79100992Y-100791077D01*
X79087378Y-100770702D01*
X79070055Y-100753379D01*
X79057184Y-100742816D01*
X79032066Y-100712210D01*
X79013402Y-100677291D01*
X79007656Y-100658347D01*
X79001908Y-100639401D01*
X78998028Y-100600000D01*
X79001908Y-100560599D01*
X79013403Y-100522707D01*
X79023883Y-100503100D01*
X79032066Y-100487790D01*
X79057184Y-100457184D01*
X79087790Y-100432066D01*
X79122709Y-100413402D01*
X79141653Y-100407656D01*
X79160599Y-100401908D01*
X79190126Y-100399000D01*
X80109874Y-100399000D01*
X80139401Y-100401908D01*
X80139401Y-100401908D01*
G37*
G36*
X77989401Y-100401908D02*
G01*
X78008347Y-100407656D01*
X78027291Y-100413402D01*
X78062210Y-100432066D01*
X78092816Y-100457184D01*
X78117934Y-100487790D01*
X78126117Y-100503100D01*
X78136597Y-100522707D01*
X78148092Y-100560599D01*
X78151972Y-100600000D01*
X78148092Y-100639401D01*
X78142344Y-100658347D01*
X78136598Y-100677291D01*
X78117934Y-100712210D01*
X78092816Y-100742816D01*
X78079945Y-100753379D01*
X78062623Y-100770701D01*
X78049009Y-100791075D01*
X78039632Y-100813714D01*
X78034851Y-100837747D01*
X78034851Y-100862251D01*
X78039631Y-100886284D01*
X78049008Y-100908923D01*
X78062622Y-100929298D01*
X78079945Y-100946621D01*
X78092816Y-100957184D01*
X78117934Y-100987790D01*
X78126117Y-101003100D01*
X78136597Y-101022707D01*
X78148092Y-101060599D01*
X78151972Y-101100000D01*
X78148092Y-101139401D01*
X78142344Y-101158347D01*
X78136598Y-101177291D01*
X78117934Y-101212210D01*
X78092816Y-101242816D01*
X78079945Y-101253379D01*
X78062623Y-101270701D01*
X78049009Y-101291075D01*
X78039632Y-101313714D01*
X78034851Y-101337747D01*
X78034851Y-101362251D01*
X78039631Y-101386284D01*
X78049008Y-101408923D01*
X78062622Y-101429298D01*
X78079945Y-101446621D01*
X78092816Y-101457184D01*
X78117934Y-101487790D01*
X78135466Y-101520590D01*
X78136597Y-101522707D01*
X78148092Y-101560599D01*
X78151972Y-101600000D01*
X78148092Y-101639401D01*
X78148091Y-101639403D01*
X78136598Y-101677291D01*
X78117934Y-101712210D01*
X78092816Y-101742816D01*
X78079945Y-101753379D01*
X78062623Y-101770701D01*
X78049009Y-101791075D01*
X78039632Y-101813714D01*
X78034851Y-101837747D01*
X78034851Y-101862251D01*
X78039631Y-101886284D01*
X78049008Y-101908923D01*
X78062622Y-101929298D01*
X78079945Y-101946621D01*
X78092816Y-101957184D01*
X78117934Y-101987790D01*
X78133110Y-102016184D01*
X78136597Y-102022707D01*
X78148092Y-102060599D01*
X78151972Y-102100000D01*
X78148092Y-102139401D01*
X78148091Y-102139403D01*
X78136598Y-102177291D01*
X78117934Y-102212210D01*
X78092816Y-102242816D01*
X78079945Y-102253379D01*
X78062623Y-102270701D01*
X78049009Y-102291075D01*
X78039632Y-102313714D01*
X78034851Y-102337747D01*
X78034851Y-102362251D01*
X78039631Y-102386284D01*
X78049008Y-102408923D01*
X78062622Y-102429298D01*
X78079945Y-102446621D01*
X78092816Y-102457184D01*
X78117934Y-102487790D01*
X78126117Y-102503100D01*
X78136597Y-102522707D01*
X78148092Y-102560599D01*
X78151972Y-102600000D01*
X78148092Y-102639401D01*
X78142345Y-102658347D01*
X78136598Y-102677291D01*
X78117934Y-102712210D01*
X78092816Y-102742816D01*
X78079945Y-102753379D01*
X78062623Y-102770701D01*
X78049009Y-102791075D01*
X78039632Y-102813714D01*
X78034851Y-102837747D01*
X78034851Y-102862251D01*
X78039631Y-102886284D01*
X78049008Y-102908923D01*
X78062622Y-102929298D01*
X78079945Y-102946621D01*
X78092816Y-102957184D01*
X78117934Y-102987790D01*
X78126117Y-103003100D01*
X78136597Y-103022707D01*
X78148092Y-103060599D01*
X78151972Y-103100000D01*
X78148092Y-103139401D01*
X78142345Y-103158347D01*
X78136598Y-103177291D01*
X78117934Y-103212210D01*
X78092816Y-103242816D01*
X78079945Y-103253379D01*
X78062623Y-103270701D01*
X78049009Y-103291075D01*
X78039632Y-103313714D01*
X78034851Y-103337747D01*
X78034851Y-103362251D01*
X78039631Y-103386284D01*
X78049008Y-103408923D01*
X78062622Y-103429298D01*
X78079945Y-103446621D01*
X78092816Y-103457184D01*
X78117934Y-103487790D01*
X78135466Y-103520590D01*
X78136597Y-103522707D01*
X78148092Y-103560599D01*
X78151972Y-103600000D01*
X78148092Y-103639401D01*
X78148091Y-103639403D01*
X78136598Y-103677291D01*
X78117934Y-103712210D01*
X78092816Y-103742816D01*
X78079945Y-103753379D01*
X78062623Y-103770701D01*
X78049009Y-103791075D01*
X78039632Y-103813714D01*
X78034851Y-103837747D01*
X78034851Y-103862251D01*
X78039631Y-103886284D01*
X78049008Y-103908923D01*
X78062622Y-103929298D01*
X78079945Y-103946621D01*
X78092816Y-103957184D01*
X78117934Y-103987790D01*
X78135466Y-104020590D01*
X78136597Y-104022707D01*
X78148092Y-104060599D01*
X78151972Y-104100000D01*
X78148092Y-104139401D01*
X78148091Y-104139403D01*
X78136598Y-104177291D01*
X78117934Y-104212210D01*
X78092816Y-104242816D01*
X78079945Y-104253379D01*
X78062623Y-104270701D01*
X78049009Y-104291075D01*
X78039632Y-104313714D01*
X78034851Y-104337747D01*
X78034851Y-104362251D01*
X78039631Y-104386284D01*
X78049008Y-104408923D01*
X78062622Y-104429298D01*
X78079945Y-104446621D01*
X78092816Y-104457184D01*
X78117934Y-104487790D01*
X78135466Y-104520590D01*
X78136597Y-104522707D01*
X78148092Y-104560599D01*
X78151972Y-104600000D01*
X78148092Y-104639401D01*
X78148091Y-104639403D01*
X78136598Y-104677291D01*
X78117934Y-104712210D01*
X78092816Y-104742816D01*
X78079945Y-104753379D01*
X78062623Y-104770701D01*
X78049009Y-104791075D01*
X78039632Y-104813714D01*
X78034851Y-104837747D01*
X78034851Y-104862251D01*
X78039631Y-104886284D01*
X78049008Y-104908923D01*
X78062622Y-104929298D01*
X78079945Y-104946621D01*
X78092816Y-104957184D01*
X78117934Y-104987790D01*
X78135466Y-105020590D01*
X78136597Y-105022707D01*
X78148092Y-105060599D01*
X78151972Y-105100000D01*
X78148092Y-105139401D01*
X78148091Y-105139403D01*
X78136598Y-105177291D01*
X78117934Y-105212210D01*
X78092816Y-105242816D01*
X78062210Y-105267934D01*
X78027291Y-105286598D01*
X78008347Y-105292344D01*
X77989401Y-105298092D01*
X77959874Y-105301000D01*
X77640126Y-105301000D01*
X77610599Y-105298092D01*
X77591653Y-105292344D01*
X77572709Y-105286598D01*
X77537790Y-105267934D01*
X77507184Y-105242816D01*
X77482066Y-105212210D01*
X77463402Y-105177291D01*
X77451909Y-105139403D01*
X77451908Y-105139401D01*
X77448028Y-105100000D01*
X77451908Y-105060599D01*
X77463403Y-105022707D01*
X77464534Y-105020590D01*
X77482066Y-104987790D01*
X77507184Y-104957184D01*
X77520055Y-104946621D01*
X77537377Y-104929299D01*
X77550991Y-104908925D01*
X77560368Y-104886286D01*
X77565149Y-104862253D01*
X77565149Y-104837749D01*
X77560369Y-104813716D01*
X77550992Y-104791077D01*
X77537378Y-104770702D01*
X77520055Y-104753379D01*
X77507184Y-104742816D01*
X77482066Y-104712210D01*
X77463402Y-104677291D01*
X77451909Y-104639403D01*
X77451908Y-104639401D01*
X77448028Y-104600000D01*
X77451908Y-104560599D01*
X77463403Y-104522707D01*
X77464534Y-104520590D01*
X77482066Y-104487790D01*
X77507184Y-104457184D01*
X77520055Y-104446621D01*
X77537377Y-104429299D01*
X77550991Y-104408925D01*
X77560368Y-104386286D01*
X77565149Y-104362253D01*
X77565149Y-104337749D01*
X77560369Y-104313716D01*
X77550992Y-104291077D01*
X77537378Y-104270702D01*
X77520055Y-104253379D01*
X77507184Y-104242816D01*
X77482066Y-104212210D01*
X77463402Y-104177291D01*
X77451909Y-104139403D01*
X77451908Y-104139401D01*
X77448028Y-104100000D01*
X77451908Y-104060599D01*
X77463403Y-104022707D01*
X77464534Y-104020590D01*
X77482066Y-103987790D01*
X77507184Y-103957184D01*
X77520055Y-103946621D01*
X77537377Y-103929299D01*
X77550991Y-103908925D01*
X77560368Y-103886286D01*
X77565149Y-103862253D01*
X77565149Y-103837749D01*
X77560369Y-103813716D01*
X77550992Y-103791077D01*
X77537378Y-103770702D01*
X77520055Y-103753379D01*
X77507184Y-103742816D01*
X77482066Y-103712210D01*
X77463402Y-103677291D01*
X77451909Y-103639403D01*
X77451908Y-103639401D01*
X77448028Y-103600000D01*
X77451908Y-103560599D01*
X77463403Y-103522707D01*
X77464534Y-103520590D01*
X77482066Y-103487790D01*
X77507184Y-103457184D01*
X77520055Y-103446621D01*
X77537377Y-103429299D01*
X77550991Y-103408925D01*
X77560368Y-103386286D01*
X77565149Y-103362253D01*
X77565149Y-103337749D01*
X77560369Y-103313716D01*
X77550992Y-103291077D01*
X77537378Y-103270702D01*
X77520055Y-103253379D01*
X77507184Y-103242816D01*
X77482066Y-103212210D01*
X77463402Y-103177291D01*
X77457655Y-103158347D01*
X77451908Y-103139401D01*
X77448028Y-103100000D01*
X77451908Y-103060599D01*
X77463403Y-103022707D01*
X77473883Y-103003100D01*
X77482066Y-102987790D01*
X77507184Y-102957184D01*
X77520055Y-102946621D01*
X77537377Y-102929299D01*
X77550991Y-102908925D01*
X77560368Y-102886286D01*
X77565149Y-102862253D01*
X77565149Y-102837749D01*
X77560369Y-102813716D01*
X77550992Y-102791077D01*
X77537378Y-102770702D01*
X77520055Y-102753379D01*
X77507184Y-102742816D01*
X77482066Y-102712210D01*
X77463402Y-102677291D01*
X77457656Y-102658347D01*
X77451908Y-102639401D01*
X77448028Y-102600000D01*
X77451908Y-102560599D01*
X77463403Y-102522707D01*
X77473883Y-102503100D01*
X77482066Y-102487790D01*
X77507184Y-102457184D01*
X77520055Y-102446621D01*
X77537377Y-102429299D01*
X77550991Y-102408925D01*
X77560368Y-102386286D01*
X77565149Y-102362253D01*
X77565149Y-102337749D01*
X77560369Y-102313716D01*
X77550992Y-102291077D01*
X77537378Y-102270702D01*
X77520055Y-102253379D01*
X77507184Y-102242816D01*
X77482066Y-102212210D01*
X77463402Y-102177291D01*
X77451909Y-102139403D01*
X77451908Y-102139401D01*
X77448028Y-102100000D01*
X77451908Y-102060599D01*
X77463403Y-102022707D01*
X77466890Y-102016184D01*
X77482066Y-101987790D01*
X77507184Y-101957184D01*
X77520055Y-101946621D01*
X77537377Y-101929299D01*
X77550991Y-101908925D01*
X77560368Y-101886286D01*
X77565149Y-101862253D01*
X77565149Y-101837749D01*
X77560369Y-101813716D01*
X77550992Y-101791077D01*
X77537378Y-101770702D01*
X77520055Y-101753379D01*
X77507184Y-101742816D01*
X77482066Y-101712210D01*
X77463402Y-101677291D01*
X77451909Y-101639403D01*
X77451908Y-101639401D01*
X77448028Y-101600000D01*
X77451908Y-101560599D01*
X77463403Y-101522707D01*
X77464534Y-101520590D01*
X77482066Y-101487790D01*
X77507184Y-101457184D01*
X77520055Y-101446621D01*
X77537377Y-101429299D01*
X77550991Y-101408925D01*
X77560368Y-101386286D01*
X77565149Y-101362253D01*
X77565149Y-101337749D01*
X77560369Y-101313716D01*
X77550992Y-101291077D01*
X77537378Y-101270702D01*
X77520055Y-101253379D01*
X77507184Y-101242816D01*
X77482066Y-101212210D01*
X77463402Y-101177291D01*
X77457656Y-101158347D01*
X77451908Y-101139401D01*
X77448028Y-101100000D01*
X77451908Y-101060599D01*
X77463403Y-101022707D01*
X77473883Y-101003100D01*
X77482066Y-100987790D01*
X77507184Y-100957184D01*
X77520055Y-100946621D01*
X77537377Y-100929299D01*
X77550991Y-100908925D01*
X77560368Y-100886286D01*
X77565149Y-100862253D01*
X77565149Y-100837749D01*
X77560369Y-100813716D01*
X77550992Y-100791077D01*
X77537378Y-100770702D01*
X77520055Y-100753379D01*
X77507184Y-100742816D01*
X77482066Y-100712210D01*
X77463402Y-100677291D01*
X77457656Y-100658347D01*
X77451908Y-100639401D01*
X77448028Y-100600000D01*
X77451908Y-100560599D01*
X77463403Y-100522707D01*
X77473883Y-100503100D01*
X77482066Y-100487790D01*
X77507184Y-100457184D01*
X77537790Y-100432066D01*
X77572709Y-100413402D01*
X77591653Y-100407656D01*
X77610599Y-100401908D01*
X77640126Y-100399000D01*
X77959874Y-100399000D01*
X77989401Y-100401908D01*
X77989401Y-100401908D01*
G37*
G36*
X75039401Y-100401908D02*
G01*
X75058347Y-100407656D01*
X75077291Y-100413402D01*
X75112210Y-100432066D01*
X75142816Y-100457184D01*
X75167934Y-100487790D01*
X75176117Y-100503100D01*
X75186597Y-100522707D01*
X75198092Y-100560599D01*
X75201972Y-100600000D01*
X75198092Y-100639401D01*
X75192344Y-100658347D01*
X75186598Y-100677291D01*
X75167934Y-100712210D01*
X75142816Y-100742816D01*
X75129945Y-100753379D01*
X75112623Y-100770701D01*
X75099009Y-100791075D01*
X75089632Y-100813714D01*
X75084851Y-100837747D01*
X75084851Y-100862251D01*
X75089631Y-100886284D01*
X75099008Y-100908923D01*
X75112622Y-100929298D01*
X75129945Y-100946621D01*
X75142816Y-100957184D01*
X75167934Y-100987790D01*
X75176117Y-101003100D01*
X75186597Y-101022707D01*
X75198092Y-101060599D01*
X75201972Y-101100000D01*
X75198092Y-101139401D01*
X75192344Y-101158347D01*
X75186598Y-101177291D01*
X75167934Y-101212210D01*
X75142816Y-101242816D01*
X75129945Y-101253379D01*
X75112623Y-101270701D01*
X75099009Y-101291075D01*
X75089632Y-101313714D01*
X75084851Y-101337747D01*
X75084851Y-101362251D01*
X75089631Y-101386284D01*
X75099008Y-101408923D01*
X75112622Y-101429298D01*
X75129945Y-101446621D01*
X75142816Y-101457184D01*
X75167934Y-101487790D01*
X75185466Y-101520590D01*
X75186597Y-101522707D01*
X75198092Y-101560599D01*
X75201972Y-101600000D01*
X75198092Y-101639401D01*
X75198091Y-101639403D01*
X75186598Y-101677291D01*
X75167934Y-101712210D01*
X75142816Y-101742816D01*
X75129945Y-101753379D01*
X75112623Y-101770701D01*
X75099009Y-101791075D01*
X75089632Y-101813714D01*
X75084851Y-101837747D01*
X75084851Y-101862251D01*
X75089631Y-101886284D01*
X75099008Y-101908923D01*
X75112622Y-101929298D01*
X75129945Y-101946621D01*
X75142816Y-101957184D01*
X75167934Y-101987790D01*
X75183110Y-102016184D01*
X75186597Y-102022707D01*
X75198092Y-102060599D01*
X75201972Y-102100000D01*
X75198092Y-102139401D01*
X75198091Y-102139403D01*
X75186598Y-102177291D01*
X75167934Y-102212210D01*
X75142816Y-102242816D01*
X75129945Y-102253379D01*
X75112623Y-102270701D01*
X75099009Y-102291075D01*
X75089632Y-102313714D01*
X75084851Y-102337747D01*
X75084851Y-102362251D01*
X75089631Y-102386284D01*
X75099008Y-102408923D01*
X75112622Y-102429298D01*
X75129945Y-102446621D01*
X75142816Y-102457184D01*
X75167934Y-102487790D01*
X75176117Y-102503100D01*
X75186597Y-102522707D01*
X75198092Y-102560599D01*
X75201972Y-102600000D01*
X75198092Y-102639401D01*
X75192345Y-102658347D01*
X75186598Y-102677291D01*
X75167934Y-102712210D01*
X75142816Y-102742816D01*
X75129945Y-102753379D01*
X75112623Y-102770701D01*
X75099009Y-102791075D01*
X75089632Y-102813714D01*
X75084851Y-102837747D01*
X75084851Y-102862251D01*
X75089631Y-102886284D01*
X75099008Y-102908923D01*
X75112622Y-102929298D01*
X75129945Y-102946621D01*
X75142816Y-102957184D01*
X75167934Y-102987790D01*
X75176117Y-103003100D01*
X75186597Y-103022707D01*
X75198092Y-103060599D01*
X75201972Y-103100000D01*
X75198092Y-103139401D01*
X75192345Y-103158347D01*
X75186598Y-103177291D01*
X75167934Y-103212210D01*
X75142816Y-103242816D01*
X75129945Y-103253379D01*
X75112623Y-103270701D01*
X75099009Y-103291075D01*
X75089632Y-103313714D01*
X75084851Y-103337747D01*
X75084851Y-103362251D01*
X75089631Y-103386284D01*
X75099008Y-103408923D01*
X75112622Y-103429298D01*
X75129945Y-103446621D01*
X75142816Y-103457184D01*
X75167934Y-103487790D01*
X75185466Y-103520590D01*
X75186597Y-103522707D01*
X75198092Y-103560599D01*
X75201972Y-103600000D01*
X75198092Y-103639401D01*
X75198091Y-103639403D01*
X75186598Y-103677291D01*
X75167934Y-103712210D01*
X75142816Y-103742816D01*
X75129945Y-103753379D01*
X75112623Y-103770701D01*
X75099009Y-103791075D01*
X75089632Y-103813714D01*
X75084851Y-103837747D01*
X75084851Y-103862251D01*
X75089631Y-103886284D01*
X75099008Y-103908923D01*
X75112622Y-103929298D01*
X75129945Y-103946621D01*
X75142816Y-103957184D01*
X75167934Y-103987790D01*
X75185466Y-104020590D01*
X75186597Y-104022707D01*
X75198092Y-104060599D01*
X75201972Y-104100000D01*
X75198092Y-104139401D01*
X75198091Y-104139403D01*
X75186598Y-104177291D01*
X75167934Y-104212210D01*
X75142816Y-104242816D01*
X75129945Y-104253379D01*
X75112623Y-104270701D01*
X75099009Y-104291075D01*
X75089632Y-104313714D01*
X75084851Y-104337747D01*
X75084851Y-104362251D01*
X75089631Y-104386284D01*
X75099008Y-104408923D01*
X75112622Y-104429298D01*
X75129945Y-104446621D01*
X75142816Y-104457184D01*
X75167934Y-104487790D01*
X75185466Y-104520590D01*
X75186597Y-104522707D01*
X75198092Y-104560599D01*
X75201972Y-104600000D01*
X75198092Y-104639401D01*
X75198091Y-104639403D01*
X75186598Y-104677291D01*
X75167934Y-104712210D01*
X75142816Y-104742816D01*
X75129945Y-104753379D01*
X75112623Y-104770701D01*
X75099009Y-104791075D01*
X75089632Y-104813714D01*
X75084851Y-104837747D01*
X75084851Y-104862251D01*
X75089631Y-104886284D01*
X75099008Y-104908923D01*
X75112622Y-104929298D01*
X75129945Y-104946621D01*
X75142816Y-104957184D01*
X75167934Y-104987790D01*
X75185466Y-105020590D01*
X75186597Y-105022707D01*
X75198092Y-105060599D01*
X75201972Y-105100000D01*
X75198092Y-105139401D01*
X75198091Y-105139403D01*
X75186598Y-105177291D01*
X75167934Y-105212210D01*
X75142816Y-105242816D01*
X75112210Y-105267934D01*
X75077291Y-105286598D01*
X75058347Y-105292344D01*
X75039401Y-105298092D01*
X75009874Y-105301000D01*
X74090126Y-105301000D01*
X74060599Y-105298092D01*
X74041653Y-105292344D01*
X74022709Y-105286598D01*
X73987790Y-105267934D01*
X73957184Y-105242816D01*
X73932066Y-105212210D01*
X73913402Y-105177291D01*
X73901909Y-105139403D01*
X73901908Y-105139401D01*
X73898028Y-105100000D01*
X73901908Y-105060599D01*
X73913403Y-105022707D01*
X73914534Y-105020590D01*
X73932066Y-104987790D01*
X73957184Y-104957184D01*
X73970055Y-104946621D01*
X73987377Y-104929299D01*
X74000991Y-104908925D01*
X74010368Y-104886286D01*
X74015149Y-104862253D01*
X74015149Y-104837749D01*
X74010369Y-104813716D01*
X74000992Y-104791077D01*
X73987378Y-104770702D01*
X73970055Y-104753379D01*
X73957184Y-104742816D01*
X73932066Y-104712210D01*
X73913402Y-104677291D01*
X73901909Y-104639403D01*
X73901908Y-104639401D01*
X73898028Y-104600000D01*
X73901908Y-104560599D01*
X73913403Y-104522707D01*
X73914534Y-104520590D01*
X73932066Y-104487790D01*
X73957184Y-104457184D01*
X73970055Y-104446621D01*
X73987377Y-104429299D01*
X74000991Y-104408925D01*
X74010368Y-104386286D01*
X74015149Y-104362253D01*
X74015149Y-104337749D01*
X74010369Y-104313716D01*
X74000992Y-104291077D01*
X73987378Y-104270702D01*
X73970055Y-104253379D01*
X73957184Y-104242816D01*
X73932066Y-104212210D01*
X73913402Y-104177291D01*
X73901909Y-104139403D01*
X73901908Y-104139401D01*
X73898028Y-104100000D01*
X73901908Y-104060599D01*
X73913403Y-104022707D01*
X73914534Y-104020590D01*
X73932066Y-103987790D01*
X73957184Y-103957184D01*
X73970055Y-103946621D01*
X73987377Y-103929299D01*
X74000991Y-103908925D01*
X74010368Y-103886286D01*
X74015149Y-103862253D01*
X74015149Y-103837749D01*
X74010369Y-103813716D01*
X74000992Y-103791077D01*
X73987378Y-103770702D01*
X73970055Y-103753379D01*
X73957184Y-103742816D01*
X73932066Y-103712210D01*
X73913402Y-103677291D01*
X73901909Y-103639403D01*
X73901908Y-103639401D01*
X73898028Y-103600000D01*
X73901908Y-103560599D01*
X73913403Y-103522707D01*
X73914534Y-103520590D01*
X73932066Y-103487790D01*
X73957184Y-103457184D01*
X73970055Y-103446621D01*
X73987377Y-103429299D01*
X74000991Y-103408925D01*
X74010368Y-103386286D01*
X74015149Y-103362253D01*
X74015149Y-103337749D01*
X74010369Y-103313716D01*
X74000992Y-103291077D01*
X73987378Y-103270702D01*
X73970055Y-103253379D01*
X73957184Y-103242816D01*
X73932066Y-103212210D01*
X73913402Y-103177291D01*
X73907655Y-103158347D01*
X73901908Y-103139401D01*
X73898028Y-103100000D01*
X73901908Y-103060599D01*
X73913403Y-103022707D01*
X73923883Y-103003100D01*
X73932066Y-102987790D01*
X73957184Y-102957184D01*
X73970055Y-102946621D01*
X73987377Y-102929299D01*
X74000991Y-102908925D01*
X74010368Y-102886286D01*
X74015149Y-102862253D01*
X74015149Y-102837749D01*
X74010369Y-102813716D01*
X74000992Y-102791077D01*
X73987378Y-102770702D01*
X73970055Y-102753379D01*
X73957184Y-102742816D01*
X73932066Y-102712210D01*
X73913402Y-102677291D01*
X73907656Y-102658347D01*
X73901908Y-102639401D01*
X73898028Y-102600000D01*
X73901908Y-102560599D01*
X73913403Y-102522707D01*
X73923883Y-102503100D01*
X73932066Y-102487790D01*
X73957184Y-102457184D01*
X73970055Y-102446621D01*
X73987377Y-102429299D01*
X74000991Y-102408925D01*
X74010368Y-102386286D01*
X74015149Y-102362253D01*
X74015149Y-102337749D01*
X74010369Y-102313716D01*
X74000992Y-102291077D01*
X73987378Y-102270702D01*
X73970055Y-102253379D01*
X73957184Y-102242816D01*
X73932066Y-102212210D01*
X73913402Y-102177291D01*
X73901909Y-102139403D01*
X73901908Y-102139401D01*
X73898028Y-102100000D01*
X73901908Y-102060599D01*
X73913403Y-102022707D01*
X73916890Y-102016184D01*
X73932066Y-101987790D01*
X73957184Y-101957184D01*
X73970055Y-101946621D01*
X73987377Y-101929299D01*
X74000991Y-101908925D01*
X74010368Y-101886286D01*
X74015149Y-101862253D01*
X74015149Y-101837749D01*
X74010369Y-101813716D01*
X74000992Y-101791077D01*
X73987378Y-101770702D01*
X73970055Y-101753379D01*
X73957184Y-101742816D01*
X73932066Y-101712210D01*
X73913402Y-101677291D01*
X73901909Y-101639403D01*
X73901908Y-101639401D01*
X73898028Y-101600000D01*
X73901908Y-101560599D01*
X73913403Y-101522707D01*
X73914534Y-101520590D01*
X73932066Y-101487790D01*
X73957184Y-101457184D01*
X73970055Y-101446621D01*
X73987377Y-101429299D01*
X74000991Y-101408925D01*
X74010368Y-101386286D01*
X74015149Y-101362253D01*
X74015149Y-101337749D01*
X74010369Y-101313716D01*
X74000992Y-101291077D01*
X73987378Y-101270702D01*
X73970055Y-101253379D01*
X73957184Y-101242816D01*
X73932066Y-101212210D01*
X73913402Y-101177291D01*
X73907656Y-101158347D01*
X73901908Y-101139401D01*
X73898028Y-101100000D01*
X73901908Y-101060599D01*
X73913403Y-101022707D01*
X73923883Y-101003100D01*
X73932066Y-100987790D01*
X73957184Y-100957184D01*
X73970055Y-100946621D01*
X73987377Y-100929299D01*
X74000991Y-100908925D01*
X74010368Y-100886286D01*
X74015149Y-100862253D01*
X74015149Y-100837749D01*
X74010369Y-100813716D01*
X74000992Y-100791077D01*
X73987378Y-100770702D01*
X73970055Y-100753379D01*
X73957184Y-100742816D01*
X73932066Y-100712210D01*
X73913402Y-100677291D01*
X73907656Y-100658347D01*
X73901908Y-100639401D01*
X73898028Y-100600000D01*
X73901908Y-100560599D01*
X73913403Y-100522707D01*
X73923883Y-100503100D01*
X73932066Y-100487790D01*
X73957184Y-100457184D01*
X73987790Y-100432066D01*
X74022709Y-100413402D01*
X74041653Y-100407656D01*
X74060599Y-100401908D01*
X74090126Y-100399000D01*
X75009874Y-100399000D01*
X75039401Y-100401908D01*
X75039401Y-100401908D01*
G37*
G36*
X76589401Y-100401908D02*
G01*
X76608347Y-100407656D01*
X76627291Y-100413402D01*
X76662210Y-100432066D01*
X76692816Y-100457184D01*
X76717934Y-100487790D01*
X76726117Y-100503100D01*
X76736597Y-100522707D01*
X76748092Y-100560599D01*
X76751972Y-100600000D01*
X76748092Y-100639401D01*
X76742344Y-100658347D01*
X76736598Y-100677291D01*
X76717934Y-100712210D01*
X76692816Y-100742816D01*
X76679945Y-100753379D01*
X76662623Y-100770701D01*
X76649009Y-100791075D01*
X76639632Y-100813714D01*
X76634851Y-100837747D01*
X76634851Y-100862251D01*
X76639631Y-100886284D01*
X76649008Y-100908923D01*
X76662622Y-100929298D01*
X76679945Y-100946621D01*
X76692816Y-100957184D01*
X76717934Y-100987790D01*
X76726117Y-101003100D01*
X76736597Y-101022707D01*
X76748092Y-101060599D01*
X76751972Y-101100000D01*
X76748092Y-101139401D01*
X76742344Y-101158347D01*
X76736598Y-101177291D01*
X76717934Y-101212210D01*
X76692816Y-101242816D01*
X76679945Y-101253379D01*
X76662623Y-101270701D01*
X76649009Y-101291075D01*
X76639632Y-101313714D01*
X76634851Y-101337747D01*
X76634851Y-101362251D01*
X76639631Y-101386284D01*
X76649008Y-101408923D01*
X76662622Y-101429298D01*
X76679945Y-101446621D01*
X76692816Y-101457184D01*
X76717934Y-101487790D01*
X76735466Y-101520590D01*
X76736597Y-101522707D01*
X76748092Y-101560599D01*
X76751972Y-101600000D01*
X76748092Y-101639401D01*
X76748091Y-101639403D01*
X76736598Y-101677291D01*
X76717934Y-101712210D01*
X76692816Y-101742816D01*
X76679945Y-101753379D01*
X76662623Y-101770701D01*
X76649009Y-101791075D01*
X76639632Y-101813714D01*
X76634851Y-101837747D01*
X76634851Y-101862251D01*
X76639631Y-101886284D01*
X76649008Y-101908923D01*
X76662622Y-101929298D01*
X76679945Y-101946621D01*
X76692816Y-101957184D01*
X76717934Y-101987790D01*
X76733110Y-102016184D01*
X76736597Y-102022707D01*
X76748092Y-102060599D01*
X76751972Y-102100000D01*
X76748092Y-102139401D01*
X76748091Y-102139403D01*
X76736598Y-102177291D01*
X76717934Y-102212210D01*
X76692816Y-102242816D01*
X76679945Y-102253379D01*
X76662623Y-102270701D01*
X76649009Y-102291075D01*
X76639632Y-102313714D01*
X76634851Y-102337747D01*
X76634851Y-102362251D01*
X76639631Y-102386284D01*
X76649008Y-102408923D01*
X76662622Y-102429298D01*
X76679945Y-102446621D01*
X76692816Y-102457184D01*
X76717934Y-102487790D01*
X76726117Y-102503100D01*
X76736597Y-102522707D01*
X76748092Y-102560599D01*
X76751972Y-102600000D01*
X76748092Y-102639401D01*
X76742345Y-102658347D01*
X76736598Y-102677291D01*
X76717934Y-102712210D01*
X76692816Y-102742816D01*
X76679945Y-102753379D01*
X76662623Y-102770701D01*
X76649009Y-102791075D01*
X76639632Y-102813714D01*
X76634851Y-102837747D01*
X76634851Y-102862251D01*
X76639631Y-102886284D01*
X76649008Y-102908923D01*
X76662622Y-102929298D01*
X76679945Y-102946621D01*
X76692816Y-102957184D01*
X76717934Y-102987790D01*
X76726117Y-103003100D01*
X76736597Y-103022707D01*
X76748092Y-103060599D01*
X76751972Y-103100000D01*
X76748092Y-103139401D01*
X76742345Y-103158347D01*
X76736598Y-103177291D01*
X76717934Y-103212210D01*
X76692816Y-103242816D01*
X76679945Y-103253379D01*
X76662623Y-103270701D01*
X76649009Y-103291075D01*
X76639632Y-103313714D01*
X76634851Y-103337747D01*
X76634851Y-103362251D01*
X76639631Y-103386284D01*
X76649008Y-103408923D01*
X76662622Y-103429298D01*
X76679945Y-103446621D01*
X76692816Y-103457184D01*
X76717934Y-103487790D01*
X76735466Y-103520590D01*
X76736597Y-103522707D01*
X76748092Y-103560599D01*
X76751972Y-103600000D01*
X76748092Y-103639401D01*
X76748091Y-103639403D01*
X76736598Y-103677291D01*
X76717934Y-103712210D01*
X76692816Y-103742816D01*
X76679945Y-103753379D01*
X76662623Y-103770701D01*
X76649009Y-103791075D01*
X76639632Y-103813714D01*
X76634851Y-103837747D01*
X76634851Y-103862251D01*
X76639631Y-103886284D01*
X76649008Y-103908923D01*
X76662622Y-103929298D01*
X76679945Y-103946621D01*
X76692816Y-103957184D01*
X76717934Y-103987790D01*
X76735466Y-104020590D01*
X76736597Y-104022707D01*
X76748092Y-104060599D01*
X76751972Y-104100000D01*
X76748092Y-104139401D01*
X76748091Y-104139403D01*
X76736598Y-104177291D01*
X76717934Y-104212210D01*
X76692816Y-104242816D01*
X76679945Y-104253379D01*
X76662623Y-104270701D01*
X76649009Y-104291075D01*
X76639632Y-104313714D01*
X76634851Y-104337747D01*
X76634851Y-104362251D01*
X76639631Y-104386284D01*
X76649008Y-104408923D01*
X76662622Y-104429298D01*
X76679945Y-104446621D01*
X76692816Y-104457184D01*
X76717934Y-104487790D01*
X76735466Y-104520590D01*
X76736597Y-104522707D01*
X76748092Y-104560599D01*
X76751972Y-104600000D01*
X76748092Y-104639401D01*
X76748091Y-104639403D01*
X76736598Y-104677291D01*
X76717934Y-104712210D01*
X76692816Y-104742816D01*
X76679945Y-104753379D01*
X76662623Y-104770701D01*
X76649009Y-104791075D01*
X76639632Y-104813714D01*
X76634851Y-104837747D01*
X76634851Y-104862251D01*
X76639631Y-104886284D01*
X76649008Y-104908923D01*
X76662622Y-104929298D01*
X76679945Y-104946621D01*
X76692816Y-104957184D01*
X76717934Y-104987790D01*
X76735466Y-105020590D01*
X76736597Y-105022707D01*
X76748092Y-105060599D01*
X76751972Y-105100000D01*
X76748092Y-105139401D01*
X76748091Y-105139403D01*
X76736598Y-105177291D01*
X76717934Y-105212210D01*
X76692816Y-105242816D01*
X76662210Y-105267934D01*
X76627291Y-105286598D01*
X76608347Y-105292344D01*
X76589401Y-105298092D01*
X76559874Y-105301000D01*
X76240126Y-105301000D01*
X76210599Y-105298092D01*
X76191653Y-105292344D01*
X76172709Y-105286598D01*
X76137790Y-105267934D01*
X76107184Y-105242816D01*
X76082066Y-105212210D01*
X76063402Y-105177291D01*
X76051909Y-105139403D01*
X76051908Y-105139401D01*
X76048028Y-105100000D01*
X76051908Y-105060599D01*
X76063403Y-105022707D01*
X76064534Y-105020590D01*
X76082066Y-104987790D01*
X76107184Y-104957184D01*
X76120055Y-104946621D01*
X76137377Y-104929299D01*
X76150991Y-104908925D01*
X76160368Y-104886286D01*
X76165149Y-104862253D01*
X76165149Y-104837749D01*
X76160369Y-104813716D01*
X76150992Y-104791077D01*
X76137378Y-104770702D01*
X76120055Y-104753379D01*
X76107184Y-104742816D01*
X76082066Y-104712210D01*
X76063402Y-104677291D01*
X76051909Y-104639403D01*
X76051908Y-104639401D01*
X76048028Y-104600000D01*
X76051908Y-104560599D01*
X76063403Y-104522707D01*
X76064534Y-104520590D01*
X76082066Y-104487790D01*
X76107184Y-104457184D01*
X76120055Y-104446621D01*
X76137377Y-104429299D01*
X76150991Y-104408925D01*
X76160368Y-104386286D01*
X76165149Y-104362253D01*
X76165149Y-104337749D01*
X76160369Y-104313716D01*
X76150992Y-104291077D01*
X76137378Y-104270702D01*
X76120055Y-104253379D01*
X76107184Y-104242816D01*
X76082066Y-104212210D01*
X76063402Y-104177291D01*
X76051909Y-104139403D01*
X76051908Y-104139401D01*
X76048028Y-104100000D01*
X76051908Y-104060599D01*
X76063403Y-104022707D01*
X76064534Y-104020590D01*
X76082066Y-103987790D01*
X76107184Y-103957184D01*
X76120055Y-103946621D01*
X76137377Y-103929299D01*
X76150991Y-103908925D01*
X76160368Y-103886286D01*
X76165149Y-103862253D01*
X76165149Y-103837749D01*
X76160369Y-103813716D01*
X76150992Y-103791077D01*
X76137378Y-103770702D01*
X76120055Y-103753379D01*
X76107184Y-103742816D01*
X76082066Y-103712210D01*
X76063402Y-103677291D01*
X76051909Y-103639403D01*
X76051908Y-103639401D01*
X76048028Y-103600000D01*
X76051908Y-103560599D01*
X76063403Y-103522707D01*
X76064534Y-103520590D01*
X76082066Y-103487790D01*
X76107184Y-103457184D01*
X76120055Y-103446621D01*
X76137377Y-103429299D01*
X76150991Y-103408925D01*
X76160368Y-103386286D01*
X76165149Y-103362253D01*
X76165149Y-103337749D01*
X76160369Y-103313716D01*
X76150992Y-103291077D01*
X76137378Y-103270702D01*
X76120055Y-103253379D01*
X76107184Y-103242816D01*
X76082066Y-103212210D01*
X76063402Y-103177291D01*
X76057655Y-103158347D01*
X76051908Y-103139401D01*
X76048028Y-103100000D01*
X76051908Y-103060599D01*
X76063403Y-103022707D01*
X76073883Y-103003100D01*
X76082066Y-102987790D01*
X76107184Y-102957184D01*
X76120055Y-102946621D01*
X76137377Y-102929299D01*
X76150991Y-102908925D01*
X76160368Y-102886286D01*
X76165149Y-102862253D01*
X76165149Y-102837749D01*
X76160369Y-102813716D01*
X76150992Y-102791077D01*
X76137378Y-102770702D01*
X76120055Y-102753379D01*
X76107184Y-102742816D01*
X76082066Y-102712210D01*
X76063402Y-102677291D01*
X76057656Y-102658347D01*
X76051908Y-102639401D01*
X76048028Y-102600000D01*
X76051908Y-102560599D01*
X76063403Y-102522707D01*
X76073883Y-102503100D01*
X76082066Y-102487790D01*
X76107184Y-102457184D01*
X76120055Y-102446621D01*
X76137377Y-102429299D01*
X76150991Y-102408925D01*
X76160368Y-102386286D01*
X76165149Y-102362253D01*
X76165149Y-102337749D01*
X76160369Y-102313716D01*
X76150992Y-102291077D01*
X76137378Y-102270702D01*
X76120055Y-102253379D01*
X76107184Y-102242816D01*
X76082066Y-102212210D01*
X76063402Y-102177291D01*
X76051909Y-102139403D01*
X76051908Y-102139401D01*
X76048028Y-102100000D01*
X76051908Y-102060599D01*
X76063403Y-102022707D01*
X76066890Y-102016184D01*
X76082066Y-101987790D01*
X76107184Y-101957184D01*
X76120055Y-101946621D01*
X76137377Y-101929299D01*
X76150991Y-101908925D01*
X76160368Y-101886286D01*
X76165149Y-101862253D01*
X76165149Y-101837749D01*
X76160369Y-101813716D01*
X76150992Y-101791077D01*
X76137378Y-101770702D01*
X76120055Y-101753379D01*
X76107184Y-101742816D01*
X76082066Y-101712210D01*
X76063402Y-101677291D01*
X76051909Y-101639403D01*
X76051908Y-101639401D01*
X76048028Y-101600000D01*
X76051908Y-101560599D01*
X76063403Y-101522707D01*
X76064534Y-101520590D01*
X76082066Y-101487790D01*
X76107184Y-101457184D01*
X76120055Y-101446621D01*
X76137377Y-101429299D01*
X76150991Y-101408925D01*
X76160368Y-101386286D01*
X76165149Y-101362253D01*
X76165149Y-101337749D01*
X76160369Y-101313716D01*
X76150992Y-101291077D01*
X76137378Y-101270702D01*
X76120055Y-101253379D01*
X76107184Y-101242816D01*
X76082066Y-101212210D01*
X76063402Y-101177291D01*
X76057656Y-101158347D01*
X76051908Y-101139401D01*
X76048028Y-101100000D01*
X76051908Y-101060599D01*
X76063403Y-101022707D01*
X76073883Y-101003100D01*
X76082066Y-100987790D01*
X76107184Y-100957184D01*
X76120055Y-100946621D01*
X76137377Y-100929299D01*
X76150991Y-100908925D01*
X76160368Y-100886286D01*
X76165149Y-100862253D01*
X76165149Y-100837749D01*
X76160369Y-100813716D01*
X76150992Y-100791077D01*
X76137378Y-100770702D01*
X76120055Y-100753379D01*
X76107184Y-100742816D01*
X76082066Y-100712210D01*
X76063402Y-100677291D01*
X76057656Y-100658347D01*
X76051908Y-100639401D01*
X76048028Y-100600000D01*
X76051908Y-100560599D01*
X76063403Y-100522707D01*
X76073883Y-100503100D01*
X76082066Y-100487790D01*
X76107184Y-100457184D01*
X76137790Y-100432066D01*
X76172709Y-100413402D01*
X76191653Y-100407656D01*
X76210599Y-100401908D01*
X76240126Y-100399000D01*
X76559874Y-100399000D01*
X76589401Y-100401908D01*
X76589401Y-100401908D01*
G37*
G36*
X117832517Y-100008781D02*
G01*
X117959946Y-100047436D01*
X118077383Y-100110208D01*
X118180317Y-100194683D01*
X118264792Y-100297617D01*
X118327564Y-100415054D01*
X118366219Y-100542483D01*
X118376000Y-100641795D01*
X118376000Y-102958205D01*
X118366219Y-103057517D01*
X118327564Y-103184946D01*
X118264792Y-103302383D01*
X118180317Y-103405316D01*
X118077382Y-103489792D01*
X117959945Y-103552564D01*
X117832516Y-103591219D01*
X117700000Y-103604270D01*
X117567483Y-103591219D01*
X117440054Y-103552564D01*
X117322617Y-103489792D01*
X117219684Y-103405317D01*
X117135208Y-103302382D01*
X117072436Y-103184945D01*
X117033781Y-103057516D01*
X117024000Y-102958204D01*
X117024001Y-100641795D01*
X117033782Y-100542483D01*
X117072437Y-100415054D01*
X117135209Y-100297617D01*
X117219684Y-100194683D01*
X117322618Y-100110208D01*
X117440055Y-100047436D01*
X117567484Y-100008781D01*
X117700000Y-99995730D01*
X117832517Y-100008781D01*
X117832517Y-100008781D01*
G37*
G36*
X121832517Y-100008781D02*
G01*
X121959946Y-100047436D01*
X122077383Y-100110208D01*
X122180317Y-100194683D01*
X122264792Y-100297617D01*
X122327564Y-100415054D01*
X122366219Y-100542483D01*
X122376000Y-100641795D01*
X122376000Y-102958205D01*
X122366219Y-103057517D01*
X122327564Y-103184946D01*
X122264792Y-103302383D01*
X122180317Y-103405316D01*
X122077382Y-103489792D01*
X121959945Y-103552564D01*
X121832516Y-103591219D01*
X121700000Y-103604270D01*
X121567483Y-103591219D01*
X121440054Y-103552564D01*
X121322617Y-103489792D01*
X121219684Y-103405317D01*
X121135208Y-103302382D01*
X121072436Y-103184945D01*
X121033781Y-103057516D01*
X121024000Y-102958204D01*
X121024001Y-100641795D01*
X121033782Y-100542483D01*
X121072437Y-100415054D01*
X121135209Y-100297617D01*
X121219684Y-100194683D01*
X121322618Y-100110208D01*
X121440055Y-100047436D01*
X121567484Y-100008781D01*
X121700000Y-99995730D01*
X121832517Y-100008781D01*
X121832517Y-100008781D01*
G37*
G36*
X119832517Y-100008781D02*
G01*
X119959946Y-100047436D01*
X120077383Y-100110208D01*
X120180317Y-100194683D01*
X120264792Y-100297617D01*
X120327564Y-100415054D01*
X120366219Y-100542483D01*
X120376000Y-100641795D01*
X120376000Y-102958205D01*
X120366219Y-103057517D01*
X120327564Y-103184946D01*
X120264792Y-103302383D01*
X120180317Y-103405316D01*
X120077382Y-103489792D01*
X119959945Y-103552564D01*
X119832516Y-103591219D01*
X119700000Y-103604270D01*
X119567483Y-103591219D01*
X119440054Y-103552564D01*
X119322617Y-103489792D01*
X119219684Y-103405317D01*
X119135208Y-103302382D01*
X119072436Y-103184945D01*
X119033781Y-103057516D01*
X119024000Y-102958204D01*
X119024001Y-100641795D01*
X119033782Y-100542483D01*
X119072437Y-100415054D01*
X119135209Y-100297617D01*
X119219684Y-100194683D01*
X119322618Y-100110208D01*
X119440055Y-100047436D01*
X119567484Y-100008781D01*
X119700000Y-99995730D01*
X119832517Y-100008781D01*
X119832517Y-100008781D01*
G37*
G36*
X115832517Y-100008781D02*
G01*
X115959946Y-100047436D01*
X116077383Y-100110208D01*
X116180317Y-100194683D01*
X116264792Y-100297617D01*
X116327564Y-100415054D01*
X116366219Y-100542483D01*
X116376000Y-100641795D01*
X116376000Y-102958205D01*
X116366219Y-103057517D01*
X116327564Y-103184946D01*
X116264792Y-103302383D01*
X116180317Y-103405316D01*
X116077382Y-103489792D01*
X115959945Y-103552564D01*
X115832516Y-103591219D01*
X115700000Y-103604270D01*
X115567483Y-103591219D01*
X115440054Y-103552564D01*
X115322617Y-103489792D01*
X115219684Y-103405317D01*
X115135208Y-103302382D01*
X115072436Y-103184945D01*
X115033781Y-103057516D01*
X115024000Y-102958204D01*
X115024001Y-100641795D01*
X115033782Y-100542483D01*
X115072437Y-100415054D01*
X115135209Y-100297617D01*
X115219684Y-100194683D01*
X115322618Y-100110208D01*
X115440055Y-100047436D01*
X115567484Y-100008781D01*
X115700000Y-99995730D01*
X115832517Y-100008781D01*
X115832517Y-100008781D01*
G37*
G36*
X112098228Y-101781703D02*
G01*
X112253100Y-101845853D01*
X112392481Y-101938985D01*
X112511015Y-102057519D01*
X112604147Y-102196900D01*
X112668297Y-102351772D01*
X112701000Y-102516184D01*
X112701000Y-102683816D01*
X112668297Y-102848228D01*
X112604147Y-103003100D01*
X112511015Y-103142481D01*
X112392481Y-103261015D01*
X112253100Y-103354147D01*
X112098228Y-103418297D01*
X111933816Y-103451000D01*
X111766184Y-103451000D01*
X111601772Y-103418297D01*
X111446900Y-103354147D01*
X111307519Y-103261015D01*
X111188985Y-103142481D01*
X111095853Y-103003100D01*
X111031703Y-102848228D01*
X110999000Y-102683816D01*
X110999000Y-102516184D01*
X111031703Y-102351772D01*
X111095853Y-102196900D01*
X111188985Y-102057519D01*
X111307519Y-101938985D01*
X111446900Y-101845853D01*
X111601772Y-101781703D01*
X111766184Y-101749000D01*
X111933816Y-101749000D01*
X112098228Y-101781703D01*
X112098228Y-101781703D01*
G37*
G36*
X125798228Y-101281703D02*
G01*
X125953100Y-101345853D01*
X126092481Y-101438985D01*
X126211015Y-101557519D01*
X126304147Y-101696900D01*
X126368297Y-101851772D01*
X126401000Y-102016184D01*
X126401000Y-102183816D01*
X126368297Y-102348228D01*
X126304147Y-102503100D01*
X126211015Y-102642481D01*
X126092481Y-102761015D01*
X125953100Y-102854147D01*
X125798228Y-102918297D01*
X125633816Y-102951000D01*
X125466184Y-102951000D01*
X125301772Y-102918297D01*
X125146900Y-102854147D01*
X125007519Y-102761015D01*
X124888985Y-102642481D01*
X124795853Y-102503100D01*
X124731703Y-102348228D01*
X124699000Y-102183816D01*
X124699000Y-102016184D01*
X124731703Y-101851772D01*
X124795853Y-101696900D01*
X124888985Y-101557519D01*
X125007519Y-101438985D01*
X125146900Y-101345853D01*
X125301772Y-101281703D01*
X125466184Y-101249000D01*
X125633816Y-101249000D01*
X125798228Y-101281703D01*
X125798228Y-101281703D01*
G37*
G36*
X112098228Y-99781703D02*
G01*
X112253100Y-99845853D01*
X112392481Y-99938985D01*
X112511015Y-100057519D01*
X112604147Y-100196900D01*
X112668297Y-100351772D01*
X112701000Y-100516184D01*
X112701000Y-100683816D01*
X112668297Y-100848228D01*
X112604147Y-101003100D01*
X112511015Y-101142481D01*
X112392481Y-101261015D01*
X112253100Y-101354147D01*
X112098228Y-101418297D01*
X111933816Y-101451000D01*
X111766184Y-101451000D01*
X111601772Y-101418297D01*
X111446900Y-101354147D01*
X111307519Y-101261015D01*
X111188985Y-101142481D01*
X111095853Y-101003100D01*
X111031703Y-100848228D01*
X110999000Y-100683816D01*
X110999000Y-100516184D01*
X111031703Y-100351772D01*
X111095853Y-100196900D01*
X111188985Y-100057519D01*
X111307519Y-99938985D01*
X111446900Y-99845853D01*
X111601772Y-99781703D01*
X111766184Y-99749000D01*
X111933816Y-99749000D01*
X112098228Y-99781703D01*
X112098228Y-99781703D01*
G37*
G36*
X125798228Y-99281703D02*
G01*
X125953100Y-99345853D01*
X126092481Y-99438985D01*
X126211015Y-99557519D01*
X126304147Y-99696900D01*
X126368297Y-99851772D01*
X126401000Y-100016184D01*
X126401000Y-100183816D01*
X126368297Y-100348228D01*
X126304147Y-100503100D01*
X126211015Y-100642481D01*
X126092481Y-100761015D01*
X125953100Y-100854147D01*
X125798228Y-100918297D01*
X125633816Y-100951000D01*
X125466184Y-100951000D01*
X125301772Y-100918297D01*
X125146900Y-100854147D01*
X125007519Y-100761015D01*
X124888985Y-100642481D01*
X124795853Y-100503100D01*
X124731703Y-100348228D01*
X124699000Y-100183816D01*
X124699000Y-100016184D01*
X124731703Y-99851772D01*
X124795853Y-99696900D01*
X124888985Y-99557519D01*
X125007519Y-99438985D01*
X125146900Y-99345853D01*
X125301772Y-99281703D01*
X125466184Y-99249000D01*
X125633816Y-99249000D01*
X125798228Y-99281703D01*
X125798228Y-99281703D01*
G37*
G36*
X129267142Y-83388242D02*
G01*
X129415101Y-83449529D01*
X129548255Y-83538499D01*
X129661501Y-83651745D01*
X129750471Y-83784899D01*
X129811758Y-83932858D01*
X129843000Y-84089925D01*
X129843000Y-84250075D01*
X129811758Y-84407142D01*
X129750471Y-84555101D01*
X129661501Y-84688255D01*
X129548255Y-84801501D01*
X129415101Y-84890471D01*
X129267142Y-84951758D01*
X129110075Y-84983000D01*
X128949925Y-84983000D01*
X128792858Y-84951758D01*
X128644899Y-84890471D01*
X128511745Y-84801501D01*
X128398499Y-84688255D01*
X128309529Y-84555101D01*
X128248242Y-84407142D01*
X128217000Y-84250075D01*
X128217000Y-84089925D01*
X128248242Y-83932858D01*
X128309529Y-83784899D01*
X128398499Y-83651745D01*
X128511745Y-83538499D01*
X128644899Y-83449529D01*
X128792858Y-83388242D01*
X128949925Y-83357000D01*
X129110075Y-83357000D01*
X129267142Y-83388242D01*
X129267142Y-83388242D01*
G37*
G36*
X111487142Y-83388242D02*
G01*
X111635101Y-83449529D01*
X111768255Y-83538499D01*
X111881501Y-83651745D01*
X111970471Y-83784899D01*
X112031758Y-83932858D01*
X112063000Y-84089925D01*
X112063000Y-84250075D01*
X112031758Y-84407142D01*
X111970471Y-84555101D01*
X111881501Y-84688255D01*
X111768255Y-84801501D01*
X111635101Y-84890471D01*
X111487142Y-84951758D01*
X111330075Y-84983000D01*
X111169925Y-84983000D01*
X111012858Y-84951758D01*
X110864899Y-84890471D01*
X110731745Y-84801501D01*
X110618499Y-84688255D01*
X110529529Y-84555101D01*
X110468242Y-84407142D01*
X110437000Y-84250075D01*
X110437000Y-84089925D01*
X110468242Y-83932858D01*
X110529529Y-83784899D01*
X110618499Y-83651745D01*
X110731745Y-83538499D01*
X110864899Y-83449529D01*
X111012858Y-83388242D01*
X111169925Y-83357000D01*
X111330075Y-83357000D01*
X111487142Y-83388242D01*
X111487142Y-83388242D01*
G37*
G36*
X131807142Y-83388242D02*
G01*
X131955101Y-83449529D01*
X132088255Y-83538499D01*
X132201501Y-83651745D01*
X132290471Y-83784899D01*
X132351758Y-83932858D01*
X132383000Y-84089925D01*
X132383000Y-84250075D01*
X132351758Y-84407142D01*
X132290471Y-84555101D01*
X132201501Y-84688255D01*
X132088255Y-84801501D01*
X131955101Y-84890471D01*
X131807142Y-84951758D01*
X131650075Y-84983000D01*
X131489925Y-84983000D01*
X131332858Y-84951758D01*
X131184899Y-84890471D01*
X131051745Y-84801501D01*
X130938499Y-84688255D01*
X130849529Y-84555101D01*
X130788242Y-84407142D01*
X130757000Y-84250075D01*
X130757000Y-84089925D01*
X130788242Y-83932858D01*
X130849529Y-83784899D01*
X130938499Y-83651745D01*
X131051745Y-83538499D01*
X131184899Y-83449529D01*
X131332858Y-83388242D01*
X131489925Y-83357000D01*
X131650075Y-83357000D01*
X131807142Y-83388242D01*
X131807142Y-83388242D01*
G37*
G36*
X55607142Y-83388242D02*
G01*
X55755101Y-83449529D01*
X55888255Y-83538499D01*
X56001501Y-83651745D01*
X56090471Y-83784899D01*
X56151758Y-83932858D01*
X56183000Y-84089925D01*
X56183000Y-84250075D01*
X56151758Y-84407142D01*
X56090471Y-84555101D01*
X56001501Y-84688255D01*
X55888255Y-84801501D01*
X55755101Y-84890471D01*
X55607142Y-84951758D01*
X55450075Y-84983000D01*
X55289925Y-84983000D01*
X55132858Y-84951758D01*
X54984899Y-84890471D01*
X54851745Y-84801501D01*
X54738499Y-84688255D01*
X54649529Y-84555101D01*
X54588242Y-84407142D01*
X54557000Y-84250075D01*
X54557000Y-84089925D01*
X54588242Y-83932858D01*
X54649529Y-83784899D01*
X54738499Y-83651745D01*
X54851745Y-83538499D01*
X54984899Y-83449529D01*
X55132858Y-83388242D01*
X55289925Y-83357000D01*
X55450075Y-83357000D01*
X55607142Y-83388242D01*
X55607142Y-83388242D01*
G37*
G36*
X58147142Y-83388242D02*
G01*
X58295101Y-83449529D01*
X58428255Y-83538499D01*
X58541501Y-83651745D01*
X58630471Y-83784899D01*
X58691758Y-83932858D01*
X58723000Y-84089925D01*
X58723000Y-84250075D01*
X58691758Y-84407142D01*
X58630471Y-84555101D01*
X58541501Y-84688255D01*
X58428255Y-84801501D01*
X58295101Y-84890471D01*
X58147142Y-84951758D01*
X57990075Y-84983000D01*
X57829925Y-84983000D01*
X57672858Y-84951758D01*
X57524899Y-84890471D01*
X57391745Y-84801501D01*
X57278499Y-84688255D01*
X57189529Y-84555101D01*
X57128242Y-84407142D01*
X57097000Y-84250075D01*
X57097000Y-84089925D01*
X57128242Y-83932858D01*
X57189529Y-83784899D01*
X57278499Y-83651745D01*
X57391745Y-83538499D01*
X57524899Y-83449529D01*
X57672858Y-83388242D01*
X57829925Y-83357000D01*
X57990075Y-83357000D01*
X58147142Y-83388242D01*
X58147142Y-83388242D01*
G37*
G36*
X60687142Y-83388242D02*
G01*
X60835101Y-83449529D01*
X60968255Y-83538499D01*
X61081501Y-83651745D01*
X61170471Y-83784899D01*
X61231758Y-83932858D01*
X61263000Y-84089925D01*
X61263000Y-84250075D01*
X61231758Y-84407142D01*
X61170471Y-84555101D01*
X61081501Y-84688255D01*
X60968255Y-84801501D01*
X60835101Y-84890471D01*
X60687142Y-84951758D01*
X60530075Y-84983000D01*
X60369925Y-84983000D01*
X60212858Y-84951758D01*
X60064899Y-84890471D01*
X59931745Y-84801501D01*
X59818499Y-84688255D01*
X59729529Y-84555101D01*
X59668242Y-84407142D01*
X59637000Y-84250075D01*
X59637000Y-84089925D01*
X59668242Y-83932858D01*
X59729529Y-83784899D01*
X59818499Y-83651745D01*
X59931745Y-83538499D01*
X60064899Y-83449529D01*
X60212858Y-83388242D01*
X60369925Y-83357000D01*
X60530075Y-83357000D01*
X60687142Y-83388242D01*
X60687142Y-83388242D01*
G37*
G36*
X63227142Y-83388242D02*
G01*
X63375101Y-83449529D01*
X63508255Y-83538499D01*
X63621501Y-83651745D01*
X63710471Y-83784899D01*
X63771758Y-83932858D01*
X63803000Y-84089925D01*
X63803000Y-84250075D01*
X63771758Y-84407142D01*
X63710471Y-84555101D01*
X63621501Y-84688255D01*
X63508255Y-84801501D01*
X63375101Y-84890471D01*
X63227142Y-84951758D01*
X63070075Y-84983000D01*
X62909925Y-84983000D01*
X62752858Y-84951758D01*
X62604899Y-84890471D01*
X62471745Y-84801501D01*
X62358499Y-84688255D01*
X62269529Y-84555101D01*
X62208242Y-84407142D01*
X62177000Y-84250075D01*
X62177000Y-84089925D01*
X62208242Y-83932858D01*
X62269529Y-83784899D01*
X62358499Y-83651745D01*
X62471745Y-83538499D01*
X62604899Y-83449529D01*
X62752858Y-83388242D01*
X62909925Y-83357000D01*
X63070075Y-83357000D01*
X63227142Y-83388242D01*
X63227142Y-83388242D01*
G37*
G36*
X78467142Y-83388242D02*
G01*
X78615101Y-83449529D01*
X78748255Y-83538499D01*
X78861501Y-83651745D01*
X78950471Y-83784899D01*
X79011758Y-83932858D01*
X79043000Y-84089925D01*
X79043000Y-84250075D01*
X79011758Y-84407142D01*
X78950471Y-84555101D01*
X78861501Y-84688255D01*
X78748255Y-84801501D01*
X78615101Y-84890471D01*
X78467142Y-84951758D01*
X78310075Y-84983000D01*
X78149925Y-84983000D01*
X77992858Y-84951758D01*
X77844899Y-84890471D01*
X77711745Y-84801501D01*
X77598499Y-84688255D01*
X77509529Y-84555101D01*
X77448242Y-84407142D01*
X77417000Y-84250075D01*
X77417000Y-84089925D01*
X77448242Y-83932858D01*
X77509529Y-83784899D01*
X77598499Y-83651745D01*
X77711745Y-83538499D01*
X77844899Y-83449529D01*
X77992858Y-83388242D01*
X78149925Y-83357000D01*
X78310075Y-83357000D01*
X78467142Y-83388242D01*
X78467142Y-83388242D01*
G37*
G36*
X65767142Y-83388242D02*
G01*
X65915101Y-83449529D01*
X66048255Y-83538499D01*
X66161501Y-83651745D01*
X66250471Y-83784899D01*
X66311758Y-83932858D01*
X66343000Y-84089925D01*
X66343000Y-84250075D01*
X66311758Y-84407142D01*
X66250471Y-84555101D01*
X66161501Y-84688255D01*
X66048255Y-84801501D01*
X65915101Y-84890471D01*
X65767142Y-84951758D01*
X65610075Y-84983000D01*
X65449925Y-84983000D01*
X65292858Y-84951758D01*
X65144899Y-84890471D01*
X65011745Y-84801501D01*
X64898499Y-84688255D01*
X64809529Y-84555101D01*
X64748242Y-84407142D01*
X64717000Y-84250075D01*
X64717000Y-84089925D01*
X64748242Y-83932858D01*
X64809529Y-83784899D01*
X64898499Y-83651745D01*
X65011745Y-83538499D01*
X65144899Y-83449529D01*
X65292858Y-83388242D01*
X65449925Y-83357000D01*
X65610075Y-83357000D01*
X65767142Y-83388242D01*
X65767142Y-83388242D01*
G37*
G36*
X68307142Y-83388242D02*
G01*
X68455101Y-83449529D01*
X68588255Y-83538499D01*
X68701501Y-83651745D01*
X68790471Y-83784899D01*
X68851758Y-83932858D01*
X68883000Y-84089925D01*
X68883000Y-84250075D01*
X68851758Y-84407142D01*
X68790471Y-84555101D01*
X68701501Y-84688255D01*
X68588255Y-84801501D01*
X68455101Y-84890471D01*
X68307142Y-84951758D01*
X68150075Y-84983000D01*
X67989925Y-84983000D01*
X67832858Y-84951758D01*
X67684899Y-84890471D01*
X67551745Y-84801501D01*
X67438499Y-84688255D01*
X67349529Y-84555101D01*
X67288242Y-84407142D01*
X67257000Y-84250075D01*
X67257000Y-84089925D01*
X67288242Y-83932858D01*
X67349529Y-83784899D01*
X67438499Y-83651745D01*
X67551745Y-83538499D01*
X67684899Y-83449529D01*
X67832858Y-83388242D01*
X67989925Y-83357000D01*
X68150075Y-83357000D01*
X68307142Y-83388242D01*
X68307142Y-83388242D01*
G37*
G36*
X70847142Y-83388242D02*
G01*
X70995101Y-83449529D01*
X71128255Y-83538499D01*
X71241501Y-83651745D01*
X71330471Y-83784899D01*
X71391758Y-83932858D01*
X71423000Y-84089925D01*
X71423000Y-84250075D01*
X71391758Y-84407142D01*
X71330471Y-84555101D01*
X71241501Y-84688255D01*
X71128255Y-84801501D01*
X70995101Y-84890471D01*
X70847142Y-84951758D01*
X70690075Y-84983000D01*
X70529925Y-84983000D01*
X70372858Y-84951758D01*
X70224899Y-84890471D01*
X70091745Y-84801501D01*
X69978499Y-84688255D01*
X69889529Y-84555101D01*
X69828242Y-84407142D01*
X69797000Y-84250075D01*
X69797000Y-84089925D01*
X69828242Y-83932858D01*
X69889529Y-83784899D01*
X69978499Y-83651745D01*
X70091745Y-83538499D01*
X70224899Y-83449529D01*
X70372858Y-83388242D01*
X70529925Y-83357000D01*
X70690075Y-83357000D01*
X70847142Y-83388242D01*
X70847142Y-83388242D01*
G37*
G36*
X86087142Y-83388242D02*
G01*
X86235101Y-83449529D01*
X86368255Y-83538499D01*
X86481501Y-83651745D01*
X86570471Y-83784899D01*
X86631758Y-83932858D01*
X86663000Y-84089925D01*
X86663000Y-84250075D01*
X86631758Y-84407142D01*
X86570471Y-84555101D01*
X86481501Y-84688255D01*
X86368255Y-84801501D01*
X86235101Y-84890471D01*
X86087142Y-84951758D01*
X85930075Y-84983000D01*
X85769925Y-84983000D01*
X85612858Y-84951758D01*
X85464899Y-84890471D01*
X85331745Y-84801501D01*
X85218499Y-84688255D01*
X85129529Y-84555101D01*
X85068242Y-84407142D01*
X85037000Y-84250075D01*
X85037000Y-84089925D01*
X85068242Y-83932858D01*
X85129529Y-83784899D01*
X85218499Y-83651745D01*
X85331745Y-83538499D01*
X85464899Y-83449529D01*
X85612858Y-83388242D01*
X85769925Y-83357000D01*
X85930075Y-83357000D01*
X86087142Y-83388242D01*
X86087142Y-83388242D01*
G37*
G36*
X73387142Y-83388242D02*
G01*
X73535101Y-83449529D01*
X73668255Y-83538499D01*
X73781501Y-83651745D01*
X73870471Y-83784899D01*
X73931758Y-83932858D01*
X73963000Y-84089925D01*
X73963000Y-84250075D01*
X73931758Y-84407142D01*
X73870471Y-84555101D01*
X73781501Y-84688255D01*
X73668255Y-84801501D01*
X73535101Y-84890471D01*
X73387142Y-84951758D01*
X73230075Y-84983000D01*
X73069925Y-84983000D01*
X72912858Y-84951758D01*
X72764899Y-84890471D01*
X72631745Y-84801501D01*
X72518499Y-84688255D01*
X72429529Y-84555101D01*
X72368242Y-84407142D01*
X72337000Y-84250075D01*
X72337000Y-84089925D01*
X72368242Y-83932858D01*
X72429529Y-83784899D01*
X72518499Y-83651745D01*
X72631745Y-83538499D01*
X72764899Y-83449529D01*
X72912858Y-83388242D01*
X73069925Y-83357000D01*
X73230075Y-83357000D01*
X73387142Y-83388242D01*
X73387142Y-83388242D01*
G37*
G36*
X75927142Y-83388242D02*
G01*
X76075101Y-83449529D01*
X76208255Y-83538499D01*
X76321501Y-83651745D01*
X76410471Y-83784899D01*
X76471758Y-83932858D01*
X76503000Y-84089925D01*
X76503000Y-84250075D01*
X76471758Y-84407142D01*
X76410471Y-84555101D01*
X76321501Y-84688255D01*
X76208255Y-84801501D01*
X76075101Y-84890471D01*
X75927142Y-84951758D01*
X75770075Y-84983000D01*
X75609925Y-84983000D01*
X75452858Y-84951758D01*
X75304899Y-84890471D01*
X75171745Y-84801501D01*
X75058499Y-84688255D01*
X74969529Y-84555101D01*
X74908242Y-84407142D01*
X74877000Y-84250075D01*
X74877000Y-84089925D01*
X74908242Y-83932858D01*
X74969529Y-83784899D01*
X75058499Y-83651745D01*
X75171745Y-83538499D01*
X75304899Y-83449529D01*
X75452858Y-83388242D01*
X75609925Y-83357000D01*
X75770075Y-83357000D01*
X75927142Y-83388242D01*
X75927142Y-83388242D01*
G37*
G36*
X81007142Y-83388242D02*
G01*
X81155101Y-83449529D01*
X81288255Y-83538499D01*
X81401501Y-83651745D01*
X81490471Y-83784899D01*
X81551758Y-83932858D01*
X81583000Y-84089925D01*
X81583000Y-84250075D01*
X81551758Y-84407142D01*
X81490471Y-84555101D01*
X81401501Y-84688255D01*
X81288255Y-84801501D01*
X81155101Y-84890471D01*
X81007142Y-84951758D01*
X80850075Y-84983000D01*
X80689925Y-84983000D01*
X80532858Y-84951758D01*
X80384899Y-84890471D01*
X80251745Y-84801501D01*
X80138499Y-84688255D01*
X80049529Y-84555101D01*
X79988242Y-84407142D01*
X79957000Y-84250075D01*
X79957000Y-84089925D01*
X79988242Y-83932858D01*
X80049529Y-83784899D01*
X80138499Y-83651745D01*
X80251745Y-83538499D01*
X80384899Y-83449529D01*
X80532858Y-83388242D01*
X80689925Y-83357000D01*
X80850075Y-83357000D01*
X81007142Y-83388242D01*
X81007142Y-83388242D01*
G37*
G36*
X53067142Y-83388242D02*
G01*
X53215101Y-83449529D01*
X53348255Y-83538499D01*
X53461501Y-83651745D01*
X53550471Y-83784899D01*
X53611758Y-83932858D01*
X53643000Y-84089925D01*
X53643000Y-84250075D01*
X53611758Y-84407142D01*
X53550471Y-84555101D01*
X53461501Y-84688255D01*
X53348255Y-84801501D01*
X53215101Y-84890471D01*
X53067142Y-84951758D01*
X52910075Y-84983000D01*
X52749925Y-84983000D01*
X52592858Y-84951758D01*
X52444899Y-84890471D01*
X52311745Y-84801501D01*
X52198499Y-84688255D01*
X52109529Y-84555101D01*
X52048242Y-84407142D01*
X52017000Y-84250075D01*
X52017000Y-84089925D01*
X52048242Y-83932858D01*
X52109529Y-83784899D01*
X52198499Y-83651745D01*
X52311745Y-83538499D01*
X52444899Y-83449529D01*
X52592858Y-83388242D01*
X52749925Y-83357000D01*
X52910075Y-83357000D01*
X53067142Y-83388242D01*
X53067142Y-83388242D01*
G37*
G36*
X124187142Y-83388242D02*
G01*
X124335101Y-83449529D01*
X124468255Y-83538499D01*
X124581501Y-83651745D01*
X124670471Y-83784899D01*
X124731758Y-83932858D01*
X124763000Y-84089925D01*
X124763000Y-84250075D01*
X124731758Y-84407142D01*
X124670471Y-84555101D01*
X124581501Y-84688255D01*
X124468255Y-84801501D01*
X124335101Y-84890471D01*
X124187142Y-84951758D01*
X124030075Y-84983000D01*
X123869925Y-84983000D01*
X123712858Y-84951758D01*
X123564899Y-84890471D01*
X123431745Y-84801501D01*
X123318499Y-84688255D01*
X123229529Y-84555101D01*
X123168242Y-84407142D01*
X123137000Y-84250075D01*
X123137000Y-84089925D01*
X123168242Y-83932858D01*
X123229529Y-83784899D01*
X123318499Y-83651745D01*
X123431745Y-83538499D01*
X123564899Y-83449529D01*
X123712858Y-83388242D01*
X123869925Y-83357000D01*
X124030075Y-83357000D01*
X124187142Y-83388242D01*
X124187142Y-83388242D01*
G37*
G36*
X106407142Y-83388242D02*
G01*
X106555101Y-83449529D01*
X106688255Y-83538499D01*
X106801501Y-83651745D01*
X106890471Y-83784899D01*
X106951758Y-83932858D01*
X106983000Y-84089925D01*
X106983000Y-84250075D01*
X106951758Y-84407142D01*
X106890471Y-84555101D01*
X106801501Y-84688255D01*
X106688255Y-84801501D01*
X106555101Y-84890471D01*
X106407142Y-84951758D01*
X106250075Y-84983000D01*
X106089925Y-84983000D01*
X105932858Y-84951758D01*
X105784899Y-84890471D01*
X105651745Y-84801501D01*
X105538499Y-84688255D01*
X105449529Y-84555101D01*
X105388242Y-84407142D01*
X105357000Y-84250075D01*
X105357000Y-84089925D01*
X105388242Y-83932858D01*
X105449529Y-83784899D01*
X105538499Y-83651745D01*
X105651745Y-83538499D01*
X105784899Y-83449529D01*
X105932858Y-83388242D01*
X106089925Y-83357000D01*
X106250075Y-83357000D01*
X106407142Y-83388242D01*
X106407142Y-83388242D01*
G37*
G36*
X103867142Y-83388242D02*
G01*
X104015101Y-83449529D01*
X104148255Y-83538499D01*
X104261501Y-83651745D01*
X104350471Y-83784899D01*
X104411758Y-83932858D01*
X104443000Y-84089925D01*
X104443000Y-84250075D01*
X104411758Y-84407142D01*
X104350471Y-84555101D01*
X104261501Y-84688255D01*
X104148255Y-84801501D01*
X104015101Y-84890471D01*
X103867142Y-84951758D01*
X103710075Y-84983000D01*
X103549925Y-84983000D01*
X103392858Y-84951758D01*
X103244899Y-84890471D01*
X103111745Y-84801501D01*
X102998499Y-84688255D01*
X102909529Y-84555101D01*
X102848242Y-84407142D01*
X102817000Y-84250075D01*
X102817000Y-84089925D01*
X102848242Y-83932858D01*
X102909529Y-83784899D01*
X102998499Y-83651745D01*
X103111745Y-83538499D01*
X103244899Y-83449529D01*
X103392858Y-83388242D01*
X103549925Y-83357000D01*
X103710075Y-83357000D01*
X103867142Y-83388242D01*
X103867142Y-83388242D01*
G37*
G36*
X101327142Y-83388242D02*
G01*
X101475101Y-83449529D01*
X101608255Y-83538499D01*
X101721501Y-83651745D01*
X101810471Y-83784899D01*
X101871758Y-83932858D01*
X101903000Y-84089925D01*
X101903000Y-84250075D01*
X101871758Y-84407142D01*
X101810471Y-84555101D01*
X101721501Y-84688255D01*
X101608255Y-84801501D01*
X101475101Y-84890471D01*
X101327142Y-84951758D01*
X101170075Y-84983000D01*
X101009925Y-84983000D01*
X100852858Y-84951758D01*
X100704899Y-84890471D01*
X100571745Y-84801501D01*
X100458499Y-84688255D01*
X100369529Y-84555101D01*
X100308242Y-84407142D01*
X100277000Y-84250075D01*
X100277000Y-84089925D01*
X100308242Y-83932858D01*
X100369529Y-83784899D01*
X100458499Y-83651745D01*
X100571745Y-83538499D01*
X100704899Y-83449529D01*
X100852858Y-83388242D01*
X101009925Y-83357000D01*
X101170075Y-83357000D01*
X101327142Y-83388242D01*
X101327142Y-83388242D01*
G37*
G36*
X98787142Y-83388242D02*
G01*
X98935101Y-83449529D01*
X99068255Y-83538499D01*
X99181501Y-83651745D01*
X99270471Y-83784899D01*
X99331758Y-83932858D01*
X99363000Y-84089925D01*
X99363000Y-84250075D01*
X99331758Y-84407142D01*
X99270471Y-84555101D01*
X99181501Y-84688255D01*
X99068255Y-84801501D01*
X98935101Y-84890471D01*
X98787142Y-84951758D01*
X98630075Y-84983000D01*
X98469925Y-84983000D01*
X98312858Y-84951758D01*
X98164899Y-84890471D01*
X98031745Y-84801501D01*
X97918499Y-84688255D01*
X97829529Y-84555101D01*
X97768242Y-84407142D01*
X97737000Y-84250075D01*
X97737000Y-84089925D01*
X97768242Y-83932858D01*
X97829529Y-83784899D01*
X97918499Y-83651745D01*
X98031745Y-83538499D01*
X98164899Y-83449529D01*
X98312858Y-83388242D01*
X98469925Y-83357000D01*
X98630075Y-83357000D01*
X98787142Y-83388242D01*
X98787142Y-83388242D01*
G37*
G36*
X88627142Y-83388242D02*
G01*
X88775101Y-83449529D01*
X88908255Y-83538499D01*
X89021501Y-83651745D01*
X89110471Y-83784899D01*
X89171758Y-83932858D01*
X89203000Y-84089925D01*
X89203000Y-84250075D01*
X89171758Y-84407142D01*
X89110471Y-84555101D01*
X89021501Y-84688255D01*
X88908255Y-84801501D01*
X88775101Y-84890471D01*
X88627142Y-84951758D01*
X88470075Y-84983000D01*
X88309925Y-84983000D01*
X88152858Y-84951758D01*
X88004899Y-84890471D01*
X87871745Y-84801501D01*
X87758499Y-84688255D01*
X87669529Y-84555101D01*
X87608242Y-84407142D01*
X87577000Y-84250075D01*
X87577000Y-84089925D01*
X87608242Y-83932858D01*
X87669529Y-83784899D01*
X87758499Y-83651745D01*
X87871745Y-83538499D01*
X88004899Y-83449529D01*
X88152858Y-83388242D01*
X88309925Y-83357000D01*
X88470075Y-83357000D01*
X88627142Y-83388242D01*
X88627142Y-83388242D01*
G37*
G36*
X91167142Y-83388242D02*
G01*
X91315101Y-83449529D01*
X91448255Y-83538499D01*
X91561501Y-83651745D01*
X91650471Y-83784899D01*
X91711758Y-83932858D01*
X91743000Y-84089925D01*
X91743000Y-84250075D01*
X91711758Y-84407142D01*
X91650471Y-84555101D01*
X91561501Y-84688255D01*
X91448255Y-84801501D01*
X91315101Y-84890471D01*
X91167142Y-84951758D01*
X91010075Y-84983000D01*
X90849925Y-84983000D01*
X90692858Y-84951758D01*
X90544899Y-84890471D01*
X90411745Y-84801501D01*
X90298499Y-84688255D01*
X90209529Y-84555101D01*
X90148242Y-84407142D01*
X90117000Y-84250075D01*
X90117000Y-84089925D01*
X90148242Y-83932858D01*
X90209529Y-83784899D01*
X90298499Y-83651745D01*
X90411745Y-83538499D01*
X90544899Y-83449529D01*
X90692858Y-83388242D01*
X90849925Y-83357000D01*
X91010075Y-83357000D01*
X91167142Y-83388242D01*
X91167142Y-83388242D01*
G37*
G36*
X93707142Y-83388242D02*
G01*
X93855101Y-83449529D01*
X93988255Y-83538499D01*
X94101501Y-83651745D01*
X94190471Y-83784899D01*
X94251758Y-83932858D01*
X94283000Y-84089925D01*
X94283000Y-84250075D01*
X94251758Y-84407142D01*
X94190471Y-84555101D01*
X94101501Y-84688255D01*
X93988255Y-84801501D01*
X93855101Y-84890471D01*
X93707142Y-84951758D01*
X93550075Y-84983000D01*
X93389925Y-84983000D01*
X93232858Y-84951758D01*
X93084899Y-84890471D01*
X92951745Y-84801501D01*
X92838499Y-84688255D01*
X92749529Y-84555101D01*
X92688242Y-84407142D01*
X92657000Y-84250075D01*
X92657000Y-84089925D01*
X92688242Y-83932858D01*
X92749529Y-83784899D01*
X92838499Y-83651745D01*
X92951745Y-83538499D01*
X93084899Y-83449529D01*
X93232858Y-83388242D01*
X93389925Y-83357000D01*
X93550075Y-83357000D01*
X93707142Y-83388242D01*
X93707142Y-83388242D01*
G37*
G36*
X96247142Y-83388242D02*
G01*
X96395101Y-83449529D01*
X96528255Y-83538499D01*
X96641501Y-83651745D01*
X96730471Y-83784899D01*
X96791758Y-83932858D01*
X96823000Y-84089925D01*
X96823000Y-84250075D01*
X96791758Y-84407142D01*
X96730471Y-84555101D01*
X96641501Y-84688255D01*
X96528255Y-84801501D01*
X96395101Y-84890471D01*
X96247142Y-84951758D01*
X96090075Y-84983000D01*
X95929925Y-84983000D01*
X95772858Y-84951758D01*
X95624899Y-84890471D01*
X95491745Y-84801501D01*
X95378499Y-84688255D01*
X95289529Y-84555101D01*
X95228242Y-84407142D01*
X95197000Y-84250075D01*
X95197000Y-84089925D01*
X95228242Y-83932858D01*
X95289529Y-83784899D01*
X95378499Y-83651745D01*
X95491745Y-83538499D01*
X95624899Y-83449529D01*
X95772858Y-83388242D01*
X95929925Y-83357000D01*
X96090075Y-83357000D01*
X96247142Y-83388242D01*
X96247142Y-83388242D01*
G37*
G36*
X108947142Y-83388242D02*
G01*
X109095101Y-83449529D01*
X109228255Y-83538499D01*
X109341501Y-83651745D01*
X109430471Y-83784899D01*
X109491758Y-83932858D01*
X109523000Y-84089925D01*
X109523000Y-84250075D01*
X109491758Y-84407142D01*
X109430471Y-84555101D01*
X109341501Y-84688255D01*
X109228255Y-84801501D01*
X109095101Y-84890471D01*
X108947142Y-84951758D01*
X108790075Y-84983000D01*
X108629925Y-84983000D01*
X108472858Y-84951758D01*
X108324899Y-84890471D01*
X108191745Y-84801501D01*
X108078499Y-84688255D01*
X107989529Y-84555101D01*
X107928242Y-84407142D01*
X107897000Y-84250075D01*
X107897000Y-84089925D01*
X107928242Y-83932858D01*
X107989529Y-83784899D01*
X108078499Y-83651745D01*
X108191745Y-83538499D01*
X108324899Y-83449529D01*
X108472858Y-83388242D01*
X108629925Y-83357000D01*
X108790075Y-83357000D01*
X108947142Y-83388242D01*
X108947142Y-83388242D01*
G37*
G36*
X83547142Y-83388242D02*
G01*
X83695101Y-83449529D01*
X83828255Y-83538499D01*
X83941501Y-83651745D01*
X84030471Y-83784899D01*
X84091758Y-83932858D01*
X84123000Y-84089925D01*
X84123000Y-84250075D01*
X84091758Y-84407142D01*
X84030471Y-84555101D01*
X83941501Y-84688255D01*
X83828255Y-84801501D01*
X83695101Y-84890471D01*
X83547142Y-84951758D01*
X83390075Y-84983000D01*
X83229925Y-84983000D01*
X83072858Y-84951758D01*
X82924899Y-84890471D01*
X82791745Y-84801501D01*
X82678499Y-84688255D01*
X82589529Y-84555101D01*
X82528242Y-84407142D01*
X82497000Y-84250075D01*
X82497000Y-84089925D01*
X82528242Y-83932858D01*
X82589529Y-83784899D01*
X82678499Y-83651745D01*
X82791745Y-83538499D01*
X82924899Y-83449529D01*
X83072858Y-83388242D01*
X83229925Y-83357000D01*
X83390075Y-83357000D01*
X83547142Y-83388242D01*
X83547142Y-83388242D01*
G37*
G36*
X114027142Y-83388242D02*
G01*
X114175101Y-83449529D01*
X114308255Y-83538499D01*
X114421501Y-83651745D01*
X114510471Y-83784899D01*
X114571758Y-83932858D01*
X114603000Y-84089925D01*
X114603000Y-84250075D01*
X114571758Y-84407142D01*
X114510471Y-84555101D01*
X114421501Y-84688255D01*
X114308255Y-84801501D01*
X114175101Y-84890471D01*
X114027142Y-84951758D01*
X113870075Y-84983000D01*
X113709925Y-84983000D01*
X113552858Y-84951758D01*
X113404899Y-84890471D01*
X113271745Y-84801501D01*
X113158499Y-84688255D01*
X113069529Y-84555101D01*
X113008242Y-84407142D01*
X112977000Y-84250075D01*
X112977000Y-84089925D01*
X113008242Y-83932858D01*
X113069529Y-83784899D01*
X113158499Y-83651745D01*
X113271745Y-83538499D01*
X113404899Y-83449529D01*
X113552858Y-83388242D01*
X113709925Y-83357000D01*
X113870075Y-83357000D01*
X114027142Y-83388242D01*
X114027142Y-83388242D01*
G37*
G36*
X116567142Y-83388242D02*
G01*
X116715101Y-83449529D01*
X116848255Y-83538499D01*
X116961501Y-83651745D01*
X117050471Y-83784899D01*
X117111758Y-83932858D01*
X117143000Y-84089925D01*
X117143000Y-84250075D01*
X117111758Y-84407142D01*
X117050471Y-84555101D01*
X116961501Y-84688255D01*
X116848255Y-84801501D01*
X116715101Y-84890471D01*
X116567142Y-84951758D01*
X116410075Y-84983000D01*
X116249925Y-84983000D01*
X116092858Y-84951758D01*
X115944899Y-84890471D01*
X115811745Y-84801501D01*
X115698499Y-84688255D01*
X115609529Y-84555101D01*
X115548242Y-84407142D01*
X115517000Y-84250075D01*
X115517000Y-84089925D01*
X115548242Y-83932858D01*
X115609529Y-83784899D01*
X115698499Y-83651745D01*
X115811745Y-83538499D01*
X115944899Y-83449529D01*
X116092858Y-83388242D01*
X116249925Y-83357000D01*
X116410075Y-83357000D01*
X116567142Y-83388242D01*
X116567142Y-83388242D01*
G37*
G36*
X119107142Y-83388242D02*
G01*
X119255101Y-83449529D01*
X119388255Y-83538499D01*
X119501501Y-83651745D01*
X119590471Y-83784899D01*
X119651758Y-83932858D01*
X119683000Y-84089925D01*
X119683000Y-84250075D01*
X119651758Y-84407142D01*
X119590471Y-84555101D01*
X119501501Y-84688255D01*
X119388255Y-84801501D01*
X119255101Y-84890471D01*
X119107142Y-84951758D01*
X118950075Y-84983000D01*
X118789925Y-84983000D01*
X118632858Y-84951758D01*
X118484899Y-84890471D01*
X118351745Y-84801501D01*
X118238499Y-84688255D01*
X118149529Y-84555101D01*
X118088242Y-84407142D01*
X118057000Y-84250075D01*
X118057000Y-84089925D01*
X118088242Y-83932858D01*
X118149529Y-83784899D01*
X118238499Y-83651745D01*
X118351745Y-83538499D01*
X118484899Y-83449529D01*
X118632858Y-83388242D01*
X118789925Y-83357000D01*
X118950075Y-83357000D01*
X119107142Y-83388242D01*
X119107142Y-83388242D01*
G37*
G36*
X121647142Y-83388242D02*
G01*
X121795101Y-83449529D01*
X121928255Y-83538499D01*
X122041501Y-83651745D01*
X122130471Y-83784899D01*
X122191758Y-83932858D01*
X122223000Y-84089925D01*
X122223000Y-84250075D01*
X122191758Y-84407142D01*
X122130471Y-84555101D01*
X122041501Y-84688255D01*
X121928255Y-84801501D01*
X121795101Y-84890471D01*
X121647142Y-84951758D01*
X121490075Y-84983000D01*
X121329925Y-84983000D01*
X121172858Y-84951758D01*
X121024899Y-84890471D01*
X120891745Y-84801501D01*
X120778499Y-84688255D01*
X120689529Y-84555101D01*
X120628242Y-84407142D01*
X120597000Y-84250075D01*
X120597000Y-84089925D01*
X120628242Y-83932858D01*
X120689529Y-83784899D01*
X120778499Y-83651745D01*
X120891745Y-83538499D01*
X121024899Y-83449529D01*
X121172858Y-83388242D01*
X121329925Y-83357000D01*
X121490075Y-83357000D01*
X121647142Y-83388242D01*
X121647142Y-83388242D01*
G37*
G36*
X126727142Y-83388242D02*
G01*
X126875101Y-83449529D01*
X127008255Y-83538499D01*
X127121501Y-83651745D01*
X127210471Y-83784899D01*
X127271758Y-83932858D01*
X127303000Y-84089925D01*
X127303000Y-84250075D01*
X127271758Y-84407142D01*
X127210471Y-84555101D01*
X127121501Y-84688255D01*
X127008255Y-84801501D01*
X126875101Y-84890471D01*
X126727142Y-84951758D01*
X126570075Y-84983000D01*
X126409925Y-84983000D01*
X126252858Y-84951758D01*
X126104899Y-84890471D01*
X125971745Y-84801501D01*
X125858499Y-84688255D01*
X125769529Y-84555101D01*
X125708242Y-84407142D01*
X125677000Y-84250075D01*
X125677000Y-84089925D01*
X125708242Y-83932858D01*
X125769529Y-83784899D01*
X125858499Y-83651745D01*
X125971745Y-83538499D01*
X126104899Y-83449529D01*
X126252858Y-83388242D01*
X126409925Y-83357000D01*
X126570075Y-83357000D01*
X126727142Y-83388242D01*
X126727142Y-83388242D01*
G37*
G36*
X119107142Y-80848242D02*
G01*
X119255101Y-80909529D01*
X119388255Y-80998499D01*
X119501501Y-81111745D01*
X119590471Y-81244899D01*
X119651758Y-81392858D01*
X119683000Y-81549925D01*
X119683000Y-81710075D01*
X119651758Y-81867142D01*
X119590471Y-82015101D01*
X119501501Y-82148255D01*
X119388255Y-82261501D01*
X119255101Y-82350471D01*
X119107142Y-82411758D01*
X118950075Y-82443000D01*
X118789925Y-82443000D01*
X118632858Y-82411758D01*
X118484899Y-82350471D01*
X118351745Y-82261501D01*
X118238499Y-82148255D01*
X118149529Y-82015101D01*
X118088242Y-81867142D01*
X118057000Y-81710075D01*
X118057000Y-81549925D01*
X118088242Y-81392858D01*
X118149529Y-81244899D01*
X118238499Y-81111745D01*
X118351745Y-80998499D01*
X118484899Y-80909529D01*
X118632858Y-80848242D01*
X118789925Y-80817000D01*
X118950075Y-80817000D01*
X119107142Y-80848242D01*
X119107142Y-80848242D01*
G37*
G36*
X121647142Y-80848242D02*
G01*
X121795101Y-80909529D01*
X121928255Y-80998499D01*
X122041501Y-81111745D01*
X122130471Y-81244899D01*
X122191758Y-81392858D01*
X122223000Y-81549925D01*
X122223000Y-81710075D01*
X122191758Y-81867142D01*
X122130471Y-82015101D01*
X122041501Y-82148255D01*
X121928255Y-82261501D01*
X121795101Y-82350471D01*
X121647142Y-82411758D01*
X121490075Y-82443000D01*
X121329925Y-82443000D01*
X121172858Y-82411758D01*
X121024899Y-82350471D01*
X120891745Y-82261501D01*
X120778499Y-82148255D01*
X120689529Y-82015101D01*
X120628242Y-81867142D01*
X120597000Y-81710075D01*
X120597000Y-81549925D01*
X120628242Y-81392858D01*
X120689529Y-81244899D01*
X120778499Y-81111745D01*
X120891745Y-80998499D01*
X121024899Y-80909529D01*
X121172858Y-80848242D01*
X121329925Y-80817000D01*
X121490075Y-80817000D01*
X121647142Y-80848242D01*
X121647142Y-80848242D01*
G37*
G36*
X124187142Y-80848242D02*
G01*
X124335101Y-80909529D01*
X124468255Y-80998499D01*
X124581501Y-81111745D01*
X124670471Y-81244899D01*
X124731758Y-81392858D01*
X124763000Y-81549925D01*
X124763000Y-81710075D01*
X124731758Y-81867142D01*
X124670471Y-82015101D01*
X124581501Y-82148255D01*
X124468255Y-82261501D01*
X124335101Y-82350471D01*
X124187142Y-82411758D01*
X124030075Y-82443000D01*
X123869925Y-82443000D01*
X123712858Y-82411758D01*
X123564899Y-82350471D01*
X123431745Y-82261501D01*
X123318499Y-82148255D01*
X123229529Y-82015101D01*
X123168242Y-81867142D01*
X123137000Y-81710075D01*
X123137000Y-81549925D01*
X123168242Y-81392858D01*
X123229529Y-81244899D01*
X123318499Y-81111745D01*
X123431745Y-80998499D01*
X123564899Y-80909529D01*
X123712858Y-80848242D01*
X123869925Y-80817000D01*
X124030075Y-80817000D01*
X124187142Y-80848242D01*
X124187142Y-80848242D01*
G37*
G36*
X126727142Y-80848242D02*
G01*
X126875101Y-80909529D01*
X127008255Y-80998499D01*
X127121501Y-81111745D01*
X127210471Y-81244899D01*
X127271758Y-81392858D01*
X127303000Y-81549925D01*
X127303000Y-81710075D01*
X127271758Y-81867142D01*
X127210471Y-82015101D01*
X127121501Y-82148255D01*
X127008255Y-82261501D01*
X126875101Y-82350471D01*
X126727142Y-82411758D01*
X126570075Y-82443000D01*
X126409925Y-82443000D01*
X126252858Y-82411758D01*
X126104899Y-82350471D01*
X125971745Y-82261501D01*
X125858499Y-82148255D01*
X125769529Y-82015101D01*
X125708242Y-81867142D01*
X125677000Y-81710075D01*
X125677000Y-81549925D01*
X125708242Y-81392858D01*
X125769529Y-81244899D01*
X125858499Y-81111745D01*
X125971745Y-80998499D01*
X126104899Y-80909529D01*
X126252858Y-80848242D01*
X126409925Y-80817000D01*
X126570075Y-80817000D01*
X126727142Y-80848242D01*
X126727142Y-80848242D01*
G37*
G36*
X78467142Y-80848242D02*
G01*
X78615101Y-80909529D01*
X78748255Y-80998499D01*
X78861501Y-81111745D01*
X78950471Y-81244899D01*
X79011758Y-81392858D01*
X79043000Y-81549925D01*
X79043000Y-81710075D01*
X79011758Y-81867142D01*
X78950471Y-82015101D01*
X78861501Y-82148255D01*
X78748255Y-82261501D01*
X78615101Y-82350471D01*
X78467142Y-82411758D01*
X78310075Y-82443000D01*
X78149925Y-82443000D01*
X77992858Y-82411758D01*
X77844899Y-82350471D01*
X77711745Y-82261501D01*
X77598499Y-82148255D01*
X77509529Y-82015101D01*
X77448242Y-81867142D01*
X77417000Y-81710075D01*
X77417000Y-81549925D01*
X77448242Y-81392858D01*
X77509529Y-81244899D01*
X77598499Y-81111745D01*
X77711745Y-80998499D01*
X77844899Y-80909529D01*
X77992858Y-80848242D01*
X78149925Y-80817000D01*
X78310075Y-80817000D01*
X78467142Y-80848242D01*
X78467142Y-80848242D01*
G37*
G36*
X75927142Y-80848242D02*
G01*
X76075101Y-80909529D01*
X76208255Y-80998499D01*
X76321501Y-81111745D01*
X76410471Y-81244899D01*
X76471758Y-81392858D01*
X76503000Y-81549925D01*
X76503000Y-81710075D01*
X76471758Y-81867142D01*
X76410471Y-82015101D01*
X76321501Y-82148255D01*
X76208255Y-82261501D01*
X76075101Y-82350471D01*
X75927142Y-82411758D01*
X75770075Y-82443000D01*
X75609925Y-82443000D01*
X75452858Y-82411758D01*
X75304899Y-82350471D01*
X75171745Y-82261501D01*
X75058499Y-82148255D01*
X74969529Y-82015101D01*
X74908242Y-81867142D01*
X74877000Y-81710075D01*
X74877000Y-81549925D01*
X74908242Y-81392858D01*
X74969529Y-81244899D01*
X75058499Y-81111745D01*
X75171745Y-80998499D01*
X75304899Y-80909529D01*
X75452858Y-80848242D01*
X75609925Y-80817000D01*
X75770075Y-80817000D01*
X75927142Y-80848242D01*
X75927142Y-80848242D01*
G37*
G36*
X73387142Y-80848242D02*
G01*
X73535101Y-80909529D01*
X73668255Y-80998499D01*
X73781501Y-81111745D01*
X73870471Y-81244899D01*
X73931758Y-81392858D01*
X73963000Y-81549925D01*
X73963000Y-81710075D01*
X73931758Y-81867142D01*
X73870471Y-82015101D01*
X73781501Y-82148255D01*
X73668255Y-82261501D01*
X73535101Y-82350471D01*
X73387142Y-82411758D01*
X73230075Y-82443000D01*
X73069925Y-82443000D01*
X72912858Y-82411758D01*
X72764899Y-82350471D01*
X72631745Y-82261501D01*
X72518499Y-82148255D01*
X72429529Y-82015101D01*
X72368242Y-81867142D01*
X72337000Y-81710075D01*
X72337000Y-81549925D01*
X72368242Y-81392858D01*
X72429529Y-81244899D01*
X72518499Y-81111745D01*
X72631745Y-80998499D01*
X72764899Y-80909529D01*
X72912858Y-80848242D01*
X73069925Y-80817000D01*
X73230075Y-80817000D01*
X73387142Y-80848242D01*
X73387142Y-80848242D01*
G37*
G36*
X70847142Y-80848242D02*
G01*
X70995101Y-80909529D01*
X71128255Y-80998499D01*
X71241501Y-81111745D01*
X71330471Y-81244899D01*
X71391758Y-81392858D01*
X71423000Y-81549925D01*
X71423000Y-81710075D01*
X71391758Y-81867142D01*
X71330471Y-82015101D01*
X71241501Y-82148255D01*
X71128255Y-82261501D01*
X70995101Y-82350471D01*
X70847142Y-82411758D01*
X70690075Y-82443000D01*
X70529925Y-82443000D01*
X70372858Y-82411758D01*
X70224899Y-82350471D01*
X70091745Y-82261501D01*
X69978499Y-82148255D01*
X69889529Y-82015101D01*
X69828242Y-81867142D01*
X69797000Y-81710075D01*
X69797000Y-81549925D01*
X69828242Y-81392858D01*
X69889529Y-81244899D01*
X69978499Y-81111745D01*
X70091745Y-80998499D01*
X70224899Y-80909529D01*
X70372858Y-80848242D01*
X70529925Y-80817000D01*
X70690075Y-80817000D01*
X70847142Y-80848242D01*
X70847142Y-80848242D01*
G37*
G36*
X91167142Y-80848242D02*
G01*
X91315101Y-80909529D01*
X91448255Y-80998499D01*
X91561501Y-81111745D01*
X91650471Y-81244899D01*
X91711758Y-81392858D01*
X91743000Y-81549925D01*
X91743000Y-81710075D01*
X91711758Y-81867142D01*
X91650471Y-82015101D01*
X91561501Y-82148255D01*
X91448255Y-82261501D01*
X91315101Y-82350471D01*
X91167142Y-82411758D01*
X91010075Y-82443000D01*
X90849925Y-82443000D01*
X90692858Y-82411758D01*
X90544899Y-82350471D01*
X90411745Y-82261501D01*
X90298499Y-82148255D01*
X90209529Y-82015101D01*
X90148242Y-81867142D01*
X90117000Y-81710075D01*
X90117000Y-81549925D01*
X90148242Y-81392858D01*
X90209529Y-81244899D01*
X90298499Y-81111745D01*
X90411745Y-80998499D01*
X90544899Y-80909529D01*
X90692858Y-80848242D01*
X90849925Y-80817000D01*
X91010075Y-80817000D01*
X91167142Y-80848242D01*
X91167142Y-80848242D01*
G37*
G36*
X88627142Y-80848242D02*
G01*
X88775101Y-80909529D01*
X88908255Y-80998499D01*
X89021501Y-81111745D01*
X89110471Y-81244899D01*
X89171758Y-81392858D01*
X89203000Y-81549925D01*
X89203000Y-81710075D01*
X89171758Y-81867142D01*
X89110471Y-82015101D01*
X89021501Y-82148255D01*
X88908255Y-82261501D01*
X88775101Y-82350471D01*
X88627142Y-82411758D01*
X88470075Y-82443000D01*
X88309925Y-82443000D01*
X88152858Y-82411758D01*
X88004899Y-82350471D01*
X87871745Y-82261501D01*
X87758499Y-82148255D01*
X87669529Y-82015101D01*
X87608242Y-81867142D01*
X87577000Y-81710075D01*
X87577000Y-81549925D01*
X87608242Y-81392858D01*
X87669529Y-81244899D01*
X87758499Y-81111745D01*
X87871745Y-80998499D01*
X88004899Y-80909529D01*
X88152858Y-80848242D01*
X88309925Y-80817000D01*
X88470075Y-80817000D01*
X88627142Y-80848242D01*
X88627142Y-80848242D01*
G37*
G36*
X86087142Y-80848242D02*
G01*
X86235101Y-80909529D01*
X86368255Y-80998499D01*
X86481501Y-81111745D01*
X86570471Y-81244899D01*
X86631758Y-81392858D01*
X86663000Y-81549925D01*
X86663000Y-81710075D01*
X86631758Y-81867142D01*
X86570471Y-82015101D01*
X86481501Y-82148255D01*
X86368255Y-82261501D01*
X86235101Y-82350471D01*
X86087142Y-82411758D01*
X85930075Y-82443000D01*
X85769925Y-82443000D01*
X85612858Y-82411758D01*
X85464899Y-82350471D01*
X85331745Y-82261501D01*
X85218499Y-82148255D01*
X85129529Y-82015101D01*
X85068242Y-81867142D01*
X85037000Y-81710075D01*
X85037000Y-81549925D01*
X85068242Y-81392858D01*
X85129529Y-81244899D01*
X85218499Y-81111745D01*
X85331745Y-80998499D01*
X85464899Y-80909529D01*
X85612858Y-80848242D01*
X85769925Y-80817000D01*
X85930075Y-80817000D01*
X86087142Y-80848242D01*
X86087142Y-80848242D01*
G37*
G36*
X83547142Y-80848242D02*
G01*
X83695101Y-80909529D01*
X83828255Y-80998499D01*
X83941501Y-81111745D01*
X84030471Y-81244899D01*
X84091758Y-81392858D01*
X84123000Y-81549925D01*
X84123000Y-81710075D01*
X84091758Y-81867142D01*
X84030471Y-82015101D01*
X83941501Y-82148255D01*
X83828255Y-82261501D01*
X83695101Y-82350471D01*
X83547142Y-82411758D01*
X83390075Y-82443000D01*
X83229925Y-82443000D01*
X83072858Y-82411758D01*
X82924899Y-82350471D01*
X82791745Y-82261501D01*
X82678499Y-82148255D01*
X82589529Y-82015101D01*
X82528242Y-81867142D01*
X82497000Y-81710075D01*
X82497000Y-81549925D01*
X82528242Y-81392858D01*
X82589529Y-81244899D01*
X82678499Y-81111745D01*
X82791745Y-80998499D01*
X82924899Y-80909529D01*
X83072858Y-80848242D01*
X83229925Y-80817000D01*
X83390075Y-80817000D01*
X83547142Y-80848242D01*
X83547142Y-80848242D01*
G37*
G36*
X81007142Y-80848242D02*
G01*
X81155101Y-80909529D01*
X81288255Y-80998499D01*
X81401501Y-81111745D01*
X81490471Y-81244899D01*
X81551758Y-81392858D01*
X81583000Y-81549925D01*
X81583000Y-81710075D01*
X81551758Y-81867142D01*
X81490471Y-82015101D01*
X81401501Y-82148255D01*
X81288255Y-82261501D01*
X81155101Y-82350471D01*
X81007142Y-82411758D01*
X80850075Y-82443000D01*
X80689925Y-82443000D01*
X80532858Y-82411758D01*
X80384899Y-82350471D01*
X80251745Y-82261501D01*
X80138499Y-82148255D01*
X80049529Y-82015101D01*
X79988242Y-81867142D01*
X79957000Y-81710075D01*
X79957000Y-81549925D01*
X79988242Y-81392858D01*
X80049529Y-81244899D01*
X80138499Y-81111745D01*
X80251745Y-80998499D01*
X80384899Y-80909529D01*
X80532858Y-80848242D01*
X80689925Y-80817000D01*
X80850075Y-80817000D01*
X81007142Y-80848242D01*
X81007142Y-80848242D01*
G37*
G36*
X131807142Y-80848242D02*
G01*
X131955101Y-80909529D01*
X132088255Y-80998499D01*
X132201501Y-81111745D01*
X132290471Y-81244899D01*
X132351758Y-81392858D01*
X132383000Y-81549925D01*
X132383000Y-81710075D01*
X132351758Y-81867142D01*
X132290471Y-82015101D01*
X132201501Y-82148255D01*
X132088255Y-82261501D01*
X131955101Y-82350471D01*
X131807142Y-82411758D01*
X131650075Y-82443000D01*
X131489925Y-82443000D01*
X131332858Y-82411758D01*
X131184899Y-82350471D01*
X131051745Y-82261501D01*
X130938499Y-82148255D01*
X130849529Y-82015101D01*
X130788242Y-81867142D01*
X130757000Y-81710075D01*
X130757000Y-81549925D01*
X130788242Y-81392858D01*
X130849529Y-81244899D01*
X130938499Y-81111745D01*
X131051745Y-80998499D01*
X131184899Y-80909529D01*
X131332858Y-80848242D01*
X131489925Y-80817000D01*
X131650075Y-80817000D01*
X131807142Y-80848242D01*
X131807142Y-80848242D01*
G37*
G36*
X129267142Y-80848242D02*
G01*
X129415101Y-80909529D01*
X129548255Y-80998499D01*
X129661501Y-81111745D01*
X129750471Y-81244899D01*
X129811758Y-81392858D01*
X129843000Y-81549925D01*
X129843000Y-81710075D01*
X129811758Y-81867142D01*
X129750471Y-82015101D01*
X129661501Y-82148255D01*
X129548255Y-82261501D01*
X129415101Y-82350471D01*
X129267142Y-82411758D01*
X129110075Y-82443000D01*
X128949925Y-82443000D01*
X128792858Y-82411758D01*
X128644899Y-82350471D01*
X128511745Y-82261501D01*
X128398499Y-82148255D01*
X128309529Y-82015101D01*
X128248242Y-81867142D01*
X128217000Y-81710075D01*
X128217000Y-81549925D01*
X128248242Y-81392858D01*
X128309529Y-81244899D01*
X128398499Y-81111745D01*
X128511745Y-80998499D01*
X128644899Y-80909529D01*
X128792858Y-80848242D01*
X128949925Y-80817000D01*
X129110075Y-80817000D01*
X129267142Y-80848242D01*
X129267142Y-80848242D01*
G37*
G36*
X108947142Y-80848242D02*
G01*
X109095101Y-80909529D01*
X109228255Y-80998499D01*
X109341501Y-81111745D01*
X109430471Y-81244899D01*
X109491758Y-81392858D01*
X109523000Y-81549925D01*
X109523000Y-81710075D01*
X109491758Y-81867142D01*
X109430471Y-82015101D01*
X109341501Y-82148255D01*
X109228255Y-82261501D01*
X109095101Y-82350471D01*
X108947142Y-82411758D01*
X108790075Y-82443000D01*
X108629925Y-82443000D01*
X108472858Y-82411758D01*
X108324899Y-82350471D01*
X108191745Y-82261501D01*
X108078499Y-82148255D01*
X107989529Y-82015101D01*
X107928242Y-81867142D01*
X107897000Y-81710075D01*
X107897000Y-81549925D01*
X107928242Y-81392858D01*
X107989529Y-81244899D01*
X108078499Y-81111745D01*
X108191745Y-80998499D01*
X108324899Y-80909529D01*
X108472858Y-80848242D01*
X108629925Y-80817000D01*
X108790075Y-80817000D01*
X108947142Y-80848242D01*
X108947142Y-80848242D01*
G37*
G36*
X114027142Y-80848242D02*
G01*
X114175101Y-80909529D01*
X114308255Y-80998499D01*
X114421501Y-81111745D01*
X114510471Y-81244899D01*
X114571758Y-81392858D01*
X114603000Y-81549925D01*
X114603000Y-81710075D01*
X114571758Y-81867142D01*
X114510471Y-82015101D01*
X114421501Y-82148255D01*
X114308255Y-82261501D01*
X114175101Y-82350471D01*
X114027142Y-82411758D01*
X113870075Y-82443000D01*
X113709925Y-82443000D01*
X113552858Y-82411758D01*
X113404899Y-82350471D01*
X113271745Y-82261501D01*
X113158499Y-82148255D01*
X113069529Y-82015101D01*
X113008242Y-81867142D01*
X112977000Y-81710075D01*
X112977000Y-81549925D01*
X113008242Y-81392858D01*
X113069529Y-81244899D01*
X113158499Y-81111745D01*
X113271745Y-80998499D01*
X113404899Y-80909529D01*
X113552858Y-80848242D01*
X113709925Y-80817000D01*
X113870075Y-80817000D01*
X114027142Y-80848242D01*
X114027142Y-80848242D01*
G37*
G36*
X116567142Y-80848242D02*
G01*
X116715101Y-80909529D01*
X116848255Y-80998499D01*
X116961501Y-81111745D01*
X117050471Y-81244899D01*
X117111758Y-81392858D01*
X117143000Y-81549925D01*
X117143000Y-81710075D01*
X117111758Y-81867142D01*
X117050471Y-82015101D01*
X116961501Y-82148255D01*
X116848255Y-82261501D01*
X116715101Y-82350471D01*
X116567142Y-82411758D01*
X116410075Y-82443000D01*
X116249925Y-82443000D01*
X116092858Y-82411758D01*
X115944899Y-82350471D01*
X115811745Y-82261501D01*
X115698499Y-82148255D01*
X115609529Y-82015101D01*
X115548242Y-81867142D01*
X115517000Y-81710075D01*
X115517000Y-81549925D01*
X115548242Y-81392858D01*
X115609529Y-81244899D01*
X115698499Y-81111745D01*
X115811745Y-80998499D01*
X115944899Y-80909529D01*
X116092858Y-80848242D01*
X116249925Y-80817000D01*
X116410075Y-80817000D01*
X116567142Y-80848242D01*
X116567142Y-80848242D01*
G37*
G36*
X68307142Y-80848242D02*
G01*
X68455101Y-80909529D01*
X68588255Y-80998499D01*
X68701501Y-81111745D01*
X68790471Y-81244899D01*
X68851758Y-81392858D01*
X68883000Y-81549925D01*
X68883000Y-81710075D01*
X68851758Y-81867142D01*
X68790471Y-82015101D01*
X68701501Y-82148255D01*
X68588255Y-82261501D01*
X68455101Y-82350471D01*
X68307142Y-82411758D01*
X68150075Y-82443000D01*
X67989925Y-82443000D01*
X67832858Y-82411758D01*
X67684899Y-82350471D01*
X67551745Y-82261501D01*
X67438499Y-82148255D01*
X67349529Y-82015101D01*
X67288242Y-81867142D01*
X67257000Y-81710075D01*
X67257000Y-81549925D01*
X67288242Y-81392858D01*
X67349529Y-81244899D01*
X67438499Y-81111745D01*
X67551745Y-80998499D01*
X67684899Y-80909529D01*
X67832858Y-80848242D01*
X67989925Y-80817000D01*
X68150075Y-80817000D01*
X68307142Y-80848242D01*
X68307142Y-80848242D01*
G37*
G36*
X106407142Y-80848242D02*
G01*
X106555101Y-80909529D01*
X106688255Y-80998499D01*
X106801501Y-81111745D01*
X106890471Y-81244899D01*
X106951758Y-81392858D01*
X106983000Y-81549925D01*
X106983000Y-81710075D01*
X106951758Y-81867142D01*
X106890471Y-82015101D01*
X106801501Y-82148255D01*
X106688255Y-82261501D01*
X106555101Y-82350471D01*
X106407142Y-82411758D01*
X106250075Y-82443000D01*
X106089925Y-82443000D01*
X105932858Y-82411758D01*
X105784899Y-82350471D01*
X105651745Y-82261501D01*
X105538499Y-82148255D01*
X105449529Y-82015101D01*
X105388242Y-81867142D01*
X105357000Y-81710075D01*
X105357000Y-81549925D01*
X105388242Y-81392858D01*
X105449529Y-81244899D01*
X105538499Y-81111745D01*
X105651745Y-80998499D01*
X105784899Y-80909529D01*
X105932858Y-80848242D01*
X106089925Y-80817000D01*
X106250075Y-80817000D01*
X106407142Y-80848242D01*
X106407142Y-80848242D01*
G37*
G36*
X103867142Y-80848242D02*
G01*
X104015101Y-80909529D01*
X104148255Y-80998499D01*
X104261501Y-81111745D01*
X104350471Y-81244899D01*
X104411758Y-81392858D01*
X104443000Y-81549925D01*
X104443000Y-81710075D01*
X104411758Y-81867142D01*
X104350471Y-82015101D01*
X104261501Y-82148255D01*
X104148255Y-82261501D01*
X104015101Y-82350471D01*
X103867142Y-82411758D01*
X103710075Y-82443000D01*
X103549925Y-82443000D01*
X103392858Y-82411758D01*
X103244899Y-82350471D01*
X103111745Y-82261501D01*
X102998499Y-82148255D01*
X102909529Y-82015101D01*
X102848242Y-81867142D01*
X102817000Y-81710075D01*
X102817000Y-81549925D01*
X102848242Y-81392858D01*
X102909529Y-81244899D01*
X102998499Y-81111745D01*
X103111745Y-80998499D01*
X103244899Y-80909529D01*
X103392858Y-80848242D01*
X103549925Y-80817000D01*
X103710075Y-80817000D01*
X103867142Y-80848242D01*
X103867142Y-80848242D01*
G37*
G36*
X101327142Y-80848242D02*
G01*
X101475101Y-80909529D01*
X101608255Y-80998499D01*
X101721501Y-81111745D01*
X101810471Y-81244899D01*
X101871758Y-81392858D01*
X101903000Y-81549925D01*
X101903000Y-81710075D01*
X101871758Y-81867142D01*
X101810471Y-82015101D01*
X101721501Y-82148255D01*
X101608255Y-82261501D01*
X101475101Y-82350471D01*
X101327142Y-82411758D01*
X101170075Y-82443000D01*
X101009925Y-82443000D01*
X100852858Y-82411758D01*
X100704899Y-82350471D01*
X100571745Y-82261501D01*
X100458499Y-82148255D01*
X100369529Y-82015101D01*
X100308242Y-81867142D01*
X100277000Y-81710075D01*
X100277000Y-81549925D01*
X100308242Y-81392858D01*
X100369529Y-81244899D01*
X100458499Y-81111745D01*
X100571745Y-80998499D01*
X100704899Y-80909529D01*
X100852858Y-80848242D01*
X101009925Y-80817000D01*
X101170075Y-80817000D01*
X101327142Y-80848242D01*
X101327142Y-80848242D01*
G37*
G36*
X98787142Y-80848242D02*
G01*
X98935101Y-80909529D01*
X99068255Y-80998499D01*
X99181501Y-81111745D01*
X99270471Y-81244899D01*
X99331758Y-81392858D01*
X99363000Y-81549925D01*
X99363000Y-81710075D01*
X99331758Y-81867142D01*
X99270471Y-82015101D01*
X99181501Y-82148255D01*
X99068255Y-82261501D01*
X98935101Y-82350471D01*
X98787142Y-82411758D01*
X98630075Y-82443000D01*
X98469925Y-82443000D01*
X98312858Y-82411758D01*
X98164899Y-82350471D01*
X98031745Y-82261501D01*
X97918499Y-82148255D01*
X97829529Y-82015101D01*
X97768242Y-81867142D01*
X97737000Y-81710075D01*
X97737000Y-81549925D01*
X97768242Y-81392858D01*
X97829529Y-81244899D01*
X97918499Y-81111745D01*
X98031745Y-80998499D01*
X98164899Y-80909529D01*
X98312858Y-80848242D01*
X98469925Y-80817000D01*
X98630075Y-80817000D01*
X98787142Y-80848242D01*
X98787142Y-80848242D01*
G37*
G36*
X96247142Y-80848242D02*
G01*
X96395101Y-80909529D01*
X96528255Y-80998499D01*
X96641501Y-81111745D01*
X96730471Y-81244899D01*
X96791758Y-81392858D01*
X96823000Y-81549925D01*
X96823000Y-81710075D01*
X96791758Y-81867142D01*
X96730471Y-82015101D01*
X96641501Y-82148255D01*
X96528255Y-82261501D01*
X96395101Y-82350471D01*
X96247142Y-82411758D01*
X96090075Y-82443000D01*
X95929925Y-82443000D01*
X95772858Y-82411758D01*
X95624899Y-82350471D01*
X95491745Y-82261501D01*
X95378499Y-82148255D01*
X95289529Y-82015101D01*
X95228242Y-81867142D01*
X95197000Y-81710075D01*
X95197000Y-81549925D01*
X95228242Y-81392858D01*
X95289529Y-81244899D01*
X95378499Y-81111745D01*
X95491745Y-80998499D01*
X95624899Y-80909529D01*
X95772858Y-80848242D01*
X95929925Y-80817000D01*
X96090075Y-80817000D01*
X96247142Y-80848242D01*
X96247142Y-80848242D01*
G37*
G36*
X93707142Y-80848242D02*
G01*
X93855101Y-80909529D01*
X93988255Y-80998499D01*
X94101501Y-81111745D01*
X94190471Y-81244899D01*
X94251758Y-81392858D01*
X94283000Y-81549925D01*
X94283000Y-81710075D01*
X94251758Y-81867142D01*
X94190471Y-82015101D01*
X94101501Y-82148255D01*
X93988255Y-82261501D01*
X93855101Y-82350471D01*
X93707142Y-82411758D01*
X93550075Y-82443000D01*
X93389925Y-82443000D01*
X93232858Y-82411758D01*
X93084899Y-82350471D01*
X92951745Y-82261501D01*
X92838499Y-82148255D01*
X92749529Y-82015101D01*
X92688242Y-81867142D01*
X92657000Y-81710075D01*
X92657000Y-81549925D01*
X92688242Y-81392858D01*
X92749529Y-81244899D01*
X92838499Y-81111745D01*
X92951745Y-80998499D01*
X93084899Y-80909529D01*
X93232858Y-80848242D01*
X93389925Y-80817000D01*
X93550075Y-80817000D01*
X93707142Y-80848242D01*
X93707142Y-80848242D01*
G37*
G36*
X53067142Y-80848242D02*
G01*
X53215101Y-80909529D01*
X53348255Y-80998499D01*
X53461501Y-81111745D01*
X53550471Y-81244899D01*
X53611758Y-81392858D01*
X53643000Y-81549925D01*
X53643000Y-81710075D01*
X53611758Y-81867142D01*
X53550471Y-82015101D01*
X53461501Y-82148255D01*
X53348255Y-82261501D01*
X53215101Y-82350471D01*
X53067142Y-82411758D01*
X52910075Y-82443000D01*
X52749925Y-82443000D01*
X52592858Y-82411758D01*
X52444899Y-82350471D01*
X52311745Y-82261501D01*
X52198499Y-82148255D01*
X52109529Y-82015101D01*
X52048242Y-81867142D01*
X52017000Y-81710075D01*
X52017000Y-81549925D01*
X52048242Y-81392858D01*
X52109529Y-81244899D01*
X52198499Y-81111745D01*
X52311745Y-80998499D01*
X52444899Y-80909529D01*
X52592858Y-80848242D01*
X52749925Y-80817000D01*
X52910075Y-80817000D01*
X53067142Y-80848242D01*
X53067142Y-80848242D01*
G37*
G36*
X55607142Y-80848242D02*
G01*
X55755101Y-80909529D01*
X55888255Y-80998499D01*
X56001501Y-81111745D01*
X56090471Y-81244899D01*
X56151758Y-81392858D01*
X56183000Y-81549925D01*
X56183000Y-81710075D01*
X56151758Y-81867142D01*
X56090471Y-82015101D01*
X56001501Y-82148255D01*
X55888255Y-82261501D01*
X55755101Y-82350471D01*
X55607142Y-82411758D01*
X55450075Y-82443000D01*
X55289925Y-82443000D01*
X55132858Y-82411758D01*
X54984899Y-82350471D01*
X54851745Y-82261501D01*
X54738499Y-82148255D01*
X54649529Y-82015101D01*
X54588242Y-81867142D01*
X54557000Y-81710075D01*
X54557000Y-81549925D01*
X54588242Y-81392858D01*
X54649529Y-81244899D01*
X54738499Y-81111745D01*
X54851745Y-80998499D01*
X54984899Y-80909529D01*
X55132858Y-80848242D01*
X55289925Y-80817000D01*
X55450075Y-80817000D01*
X55607142Y-80848242D01*
X55607142Y-80848242D01*
G37*
G36*
X58147142Y-80848242D02*
G01*
X58295101Y-80909529D01*
X58428255Y-80998499D01*
X58541501Y-81111745D01*
X58630471Y-81244899D01*
X58691758Y-81392858D01*
X58723000Y-81549925D01*
X58723000Y-81710075D01*
X58691758Y-81867142D01*
X58630471Y-82015101D01*
X58541501Y-82148255D01*
X58428255Y-82261501D01*
X58295101Y-82350471D01*
X58147142Y-82411758D01*
X57990075Y-82443000D01*
X57829925Y-82443000D01*
X57672858Y-82411758D01*
X57524899Y-82350471D01*
X57391745Y-82261501D01*
X57278499Y-82148255D01*
X57189529Y-82015101D01*
X57128242Y-81867142D01*
X57097000Y-81710075D01*
X57097000Y-81549925D01*
X57128242Y-81392858D01*
X57189529Y-81244899D01*
X57278499Y-81111745D01*
X57391745Y-80998499D01*
X57524899Y-80909529D01*
X57672858Y-80848242D01*
X57829925Y-80817000D01*
X57990075Y-80817000D01*
X58147142Y-80848242D01*
X58147142Y-80848242D01*
G37*
G36*
X60687142Y-80848242D02*
G01*
X60835101Y-80909529D01*
X60968255Y-80998499D01*
X61081501Y-81111745D01*
X61170471Y-81244899D01*
X61231758Y-81392858D01*
X61263000Y-81549925D01*
X61263000Y-81710075D01*
X61231758Y-81867142D01*
X61170471Y-82015101D01*
X61081501Y-82148255D01*
X60968255Y-82261501D01*
X60835101Y-82350471D01*
X60687142Y-82411758D01*
X60530075Y-82443000D01*
X60369925Y-82443000D01*
X60212858Y-82411758D01*
X60064899Y-82350471D01*
X59931745Y-82261501D01*
X59818499Y-82148255D01*
X59729529Y-82015101D01*
X59668242Y-81867142D01*
X59637000Y-81710075D01*
X59637000Y-81549925D01*
X59668242Y-81392858D01*
X59729529Y-81244899D01*
X59818499Y-81111745D01*
X59931745Y-80998499D01*
X60064899Y-80909529D01*
X60212858Y-80848242D01*
X60369925Y-80817000D01*
X60530075Y-80817000D01*
X60687142Y-80848242D01*
X60687142Y-80848242D01*
G37*
G36*
X63227142Y-80848242D02*
G01*
X63375101Y-80909529D01*
X63508255Y-80998499D01*
X63621501Y-81111745D01*
X63710471Y-81244899D01*
X63771758Y-81392858D01*
X63803000Y-81549925D01*
X63803000Y-81710075D01*
X63771758Y-81867142D01*
X63710471Y-82015101D01*
X63621501Y-82148255D01*
X63508255Y-82261501D01*
X63375101Y-82350471D01*
X63227142Y-82411758D01*
X63070075Y-82443000D01*
X62909925Y-82443000D01*
X62752858Y-82411758D01*
X62604899Y-82350471D01*
X62471745Y-82261501D01*
X62358499Y-82148255D01*
X62269529Y-82015101D01*
X62208242Y-81867142D01*
X62177000Y-81710075D01*
X62177000Y-81549925D01*
X62208242Y-81392858D01*
X62269529Y-81244899D01*
X62358499Y-81111745D01*
X62471745Y-80998499D01*
X62604899Y-80909529D01*
X62752858Y-80848242D01*
X62909925Y-80817000D01*
X63070075Y-80817000D01*
X63227142Y-80848242D01*
X63227142Y-80848242D01*
G37*
G36*
X65767142Y-80848242D02*
G01*
X65915101Y-80909529D01*
X66048255Y-80998499D01*
X66161501Y-81111745D01*
X66250471Y-81244899D01*
X66311758Y-81392858D01*
X66343000Y-81549925D01*
X66343000Y-81710075D01*
X66311758Y-81867142D01*
X66250471Y-82015101D01*
X66161501Y-82148255D01*
X66048255Y-82261501D01*
X65915101Y-82350471D01*
X65767142Y-82411758D01*
X65610075Y-82443000D01*
X65449925Y-82443000D01*
X65292858Y-82411758D01*
X65144899Y-82350471D01*
X65011745Y-82261501D01*
X64898499Y-82148255D01*
X64809529Y-82015101D01*
X64748242Y-81867142D01*
X64717000Y-81710075D01*
X64717000Y-81549925D01*
X64748242Y-81392858D01*
X64809529Y-81244899D01*
X64898499Y-81111745D01*
X65011745Y-80998499D01*
X65144899Y-80909529D01*
X65292858Y-80848242D01*
X65449925Y-80817000D01*
X65610075Y-80817000D01*
X65767142Y-80848242D01*
X65767142Y-80848242D01*
G37*
G36*
X111487142Y-80848242D02*
G01*
X111635101Y-80909529D01*
X111768255Y-80998499D01*
X111881501Y-81111745D01*
X111970471Y-81244899D01*
X112031758Y-81392858D01*
X112063000Y-81549925D01*
X112063000Y-81710075D01*
X112031758Y-81867142D01*
X111970471Y-82015101D01*
X111881501Y-82148255D01*
X111768255Y-82261501D01*
X111635101Y-82350471D01*
X111487142Y-82411758D01*
X111330075Y-82443000D01*
X111169925Y-82443000D01*
X111012858Y-82411758D01*
X110864899Y-82350471D01*
X110731745Y-82261501D01*
X110618499Y-82148255D01*
X110529529Y-82015101D01*
X110468242Y-81867142D01*
X110437000Y-81710075D01*
X110437000Y-81549925D01*
X110468242Y-81392858D01*
X110529529Y-81244899D01*
X110618499Y-81111745D01*
X110731745Y-80998499D01*
X110864899Y-80909529D01*
X111012858Y-80848242D01*
X111169925Y-80817000D01*
X111330075Y-80817000D01*
X111487142Y-80848242D01*
X111487142Y-80848242D01*
G37*
G36*
X79839401Y-60501908D02*
G01*
X79858347Y-60507655D01*
X79877291Y-60513402D01*
X79912210Y-60532066D01*
X79942816Y-60557184D01*
X79967934Y-60587790D01*
X79985466Y-60620590D01*
X79986597Y-60622707D01*
X79998092Y-60660599D01*
X80001972Y-60700000D01*
X79998092Y-60739401D01*
X79998091Y-60739403D01*
X79986598Y-60777291D01*
X79967934Y-60812210D01*
X79942816Y-60842816D01*
X79929945Y-60853379D01*
X79912623Y-60870701D01*
X79899009Y-60891075D01*
X79889632Y-60913714D01*
X79884851Y-60937747D01*
X79884851Y-60962251D01*
X79889631Y-60986284D01*
X79899008Y-61008923D01*
X79912622Y-61029298D01*
X79929945Y-61046621D01*
X79942816Y-61057184D01*
X79967934Y-61087790D01*
X79985466Y-61120590D01*
X79986597Y-61122707D01*
X79998092Y-61160599D01*
X80001972Y-61200000D01*
X79998092Y-61239401D01*
X79998091Y-61239403D01*
X79986598Y-61277291D01*
X79967934Y-61312210D01*
X79942816Y-61342816D01*
X79929945Y-61353379D01*
X79912623Y-61370701D01*
X79899009Y-61391075D01*
X79889632Y-61413714D01*
X79884851Y-61437747D01*
X79884851Y-61462251D01*
X79889631Y-61486284D01*
X79899008Y-61508923D01*
X79912622Y-61529298D01*
X79929945Y-61546621D01*
X79942816Y-61557184D01*
X79967934Y-61587790D01*
X79985466Y-61620590D01*
X79986597Y-61622707D01*
X79998092Y-61660599D01*
X80001972Y-61700000D01*
X79998092Y-61739401D01*
X79993619Y-61754147D01*
X79986598Y-61777291D01*
X79967934Y-61812210D01*
X79942816Y-61842816D01*
X79929945Y-61853379D01*
X79912623Y-61870701D01*
X79899009Y-61891075D01*
X79889632Y-61913714D01*
X79884851Y-61937747D01*
X79884851Y-61962251D01*
X79889631Y-61986284D01*
X79899008Y-62008923D01*
X79912622Y-62029298D01*
X79929945Y-62046621D01*
X79942816Y-62057184D01*
X79967934Y-62087790D01*
X79985466Y-62120590D01*
X79986597Y-62122707D01*
X79998092Y-62160599D01*
X80001972Y-62200000D01*
X79998092Y-62239401D01*
X79994339Y-62251771D01*
X79986598Y-62277291D01*
X79967934Y-62312210D01*
X79942816Y-62342816D01*
X79929945Y-62353379D01*
X79912623Y-62370701D01*
X79899009Y-62391075D01*
X79889632Y-62413714D01*
X79884851Y-62437747D01*
X79884851Y-62462251D01*
X79889631Y-62486284D01*
X79899008Y-62508923D01*
X79912622Y-62529298D01*
X79929945Y-62546621D01*
X79942816Y-62557184D01*
X79967934Y-62587790D01*
X79985466Y-62620590D01*
X79986597Y-62622707D01*
X79998092Y-62660599D01*
X80001972Y-62700000D01*
X79998092Y-62739401D01*
X79998091Y-62739403D01*
X79986598Y-62777291D01*
X79967934Y-62812210D01*
X79942816Y-62842816D01*
X79929945Y-62853379D01*
X79912623Y-62870701D01*
X79899009Y-62891075D01*
X79889632Y-62913714D01*
X79884851Y-62937747D01*
X79884851Y-62962251D01*
X79889631Y-62986284D01*
X79899008Y-63008923D01*
X79912622Y-63029298D01*
X79929945Y-63046621D01*
X79942816Y-63057184D01*
X79967934Y-63087790D01*
X79976742Y-63104270D01*
X79986597Y-63122707D01*
X79998092Y-63160599D01*
X80001972Y-63200000D01*
X79998092Y-63239401D01*
X79998091Y-63239403D01*
X79986598Y-63277291D01*
X79967934Y-63312210D01*
X79942816Y-63342816D01*
X79929945Y-63353379D01*
X79912623Y-63370701D01*
X79899009Y-63391075D01*
X79889632Y-63413714D01*
X79884851Y-63437747D01*
X79884851Y-63462251D01*
X79889631Y-63486284D01*
X79899008Y-63508923D01*
X79912622Y-63529298D01*
X79929945Y-63546621D01*
X79942816Y-63557184D01*
X79967934Y-63587790D01*
X79985466Y-63620590D01*
X79986597Y-63622707D01*
X79998092Y-63660599D01*
X80001972Y-63700000D01*
X79998092Y-63739401D01*
X79998091Y-63739403D01*
X79986598Y-63777291D01*
X79967934Y-63812210D01*
X79942816Y-63842816D01*
X79929945Y-63853379D01*
X79912623Y-63870701D01*
X79899009Y-63891075D01*
X79889632Y-63913714D01*
X79884851Y-63937747D01*
X79884851Y-63962251D01*
X79889631Y-63986284D01*
X79899008Y-64008923D01*
X79912622Y-64029298D01*
X79929945Y-64046621D01*
X79942816Y-64057184D01*
X79967934Y-64087790D01*
X79985466Y-64120590D01*
X79986597Y-64122707D01*
X79998092Y-64160599D01*
X80001972Y-64200000D01*
X79998092Y-64239401D01*
X79998091Y-64239403D01*
X79986598Y-64277291D01*
X79967934Y-64312210D01*
X79942816Y-64342816D01*
X79929945Y-64353379D01*
X79912623Y-64370701D01*
X79899009Y-64391075D01*
X79889632Y-64413714D01*
X79884851Y-64437747D01*
X79884851Y-64462251D01*
X79889631Y-64486284D01*
X79899008Y-64508923D01*
X79912622Y-64529298D01*
X79929945Y-64546621D01*
X79942816Y-64557184D01*
X79967934Y-64587790D01*
X79985466Y-64620590D01*
X79986597Y-64622707D01*
X79998092Y-64660599D01*
X80001972Y-64700000D01*
X79998092Y-64739401D01*
X79998091Y-64739403D01*
X79986598Y-64777291D01*
X79967934Y-64812210D01*
X79942816Y-64842816D01*
X79929945Y-64853379D01*
X79912623Y-64870701D01*
X79899009Y-64891075D01*
X79889632Y-64913714D01*
X79884851Y-64937747D01*
X79884851Y-64962251D01*
X79889631Y-64986284D01*
X79899008Y-65008923D01*
X79912622Y-65029298D01*
X79929945Y-65046621D01*
X79942816Y-65057184D01*
X79967934Y-65087790D01*
X79985466Y-65120590D01*
X79986597Y-65122707D01*
X79998092Y-65160599D01*
X80001972Y-65200000D01*
X79998092Y-65239401D01*
X79998091Y-65239403D01*
X79986598Y-65277291D01*
X79967934Y-65312210D01*
X79942816Y-65342816D01*
X79912210Y-65367934D01*
X79877291Y-65386598D01*
X79858347Y-65392345D01*
X79839401Y-65398092D01*
X79809874Y-65401000D01*
X78890126Y-65401000D01*
X78860599Y-65398092D01*
X78841653Y-65392345D01*
X78822709Y-65386598D01*
X78787790Y-65367934D01*
X78757184Y-65342816D01*
X78732066Y-65312210D01*
X78713402Y-65277291D01*
X78701909Y-65239403D01*
X78701908Y-65239401D01*
X78698028Y-65200000D01*
X78701908Y-65160599D01*
X78713403Y-65122707D01*
X78714534Y-65120590D01*
X78732066Y-65087790D01*
X78757184Y-65057184D01*
X78770055Y-65046621D01*
X78787377Y-65029299D01*
X78800991Y-65008925D01*
X78810368Y-64986286D01*
X78815149Y-64962253D01*
X78815149Y-64937749D01*
X78810369Y-64913716D01*
X78800992Y-64891077D01*
X78787378Y-64870702D01*
X78770055Y-64853379D01*
X78757184Y-64842816D01*
X78732066Y-64812210D01*
X78713402Y-64777291D01*
X78701909Y-64739403D01*
X78701908Y-64739401D01*
X78698028Y-64700000D01*
X78701908Y-64660599D01*
X78713403Y-64622707D01*
X78714534Y-64620590D01*
X78732066Y-64587790D01*
X78757184Y-64557184D01*
X78770055Y-64546621D01*
X78787377Y-64529299D01*
X78800991Y-64508925D01*
X78810368Y-64486286D01*
X78815149Y-64462253D01*
X78815149Y-64437749D01*
X78810369Y-64413716D01*
X78800992Y-64391077D01*
X78787378Y-64370702D01*
X78770055Y-64353379D01*
X78757184Y-64342816D01*
X78732066Y-64312210D01*
X78713402Y-64277291D01*
X78701909Y-64239403D01*
X78701908Y-64239401D01*
X78698028Y-64200000D01*
X78701908Y-64160599D01*
X78713403Y-64122707D01*
X78714534Y-64120590D01*
X78732066Y-64087790D01*
X78757184Y-64057184D01*
X78770055Y-64046621D01*
X78787377Y-64029299D01*
X78800991Y-64008925D01*
X78810368Y-63986286D01*
X78815149Y-63962253D01*
X78815149Y-63937749D01*
X78810369Y-63913716D01*
X78800992Y-63891077D01*
X78787378Y-63870702D01*
X78770055Y-63853379D01*
X78757184Y-63842816D01*
X78732066Y-63812210D01*
X78713402Y-63777291D01*
X78701909Y-63739403D01*
X78701908Y-63739401D01*
X78698028Y-63700000D01*
X78701908Y-63660599D01*
X78713403Y-63622707D01*
X78714534Y-63620590D01*
X78732066Y-63587790D01*
X78757184Y-63557184D01*
X78770055Y-63546621D01*
X78787377Y-63529299D01*
X78800991Y-63508925D01*
X78810368Y-63486286D01*
X78815149Y-63462253D01*
X78815149Y-63437749D01*
X78810369Y-63413716D01*
X78800992Y-63391077D01*
X78787378Y-63370702D01*
X78770055Y-63353379D01*
X78757184Y-63342816D01*
X78732066Y-63312210D01*
X78713402Y-63277291D01*
X78701909Y-63239403D01*
X78701908Y-63239401D01*
X78698028Y-63200000D01*
X78701908Y-63160599D01*
X78713403Y-63122707D01*
X78723258Y-63104270D01*
X78732066Y-63087790D01*
X78757184Y-63057184D01*
X78770055Y-63046621D01*
X78787377Y-63029299D01*
X78800991Y-63008925D01*
X78810368Y-62986286D01*
X78815149Y-62962253D01*
X78815149Y-62937749D01*
X78810369Y-62913716D01*
X78800992Y-62891077D01*
X78787378Y-62870702D01*
X78770055Y-62853379D01*
X78757184Y-62842816D01*
X78732066Y-62812210D01*
X78713402Y-62777291D01*
X78701909Y-62739403D01*
X78701908Y-62739401D01*
X78698028Y-62700000D01*
X78701908Y-62660599D01*
X78713403Y-62622707D01*
X78714534Y-62620590D01*
X78732066Y-62587790D01*
X78757184Y-62557184D01*
X78770055Y-62546621D01*
X78787377Y-62529299D01*
X78800991Y-62508925D01*
X78810368Y-62486286D01*
X78815149Y-62462253D01*
X78815149Y-62437749D01*
X78810369Y-62413716D01*
X78800992Y-62391077D01*
X78787378Y-62370702D01*
X78770055Y-62353379D01*
X78757184Y-62342816D01*
X78732066Y-62312210D01*
X78713402Y-62277291D01*
X78705661Y-62251771D01*
X78701908Y-62239401D01*
X78698028Y-62200000D01*
X78701908Y-62160599D01*
X78713403Y-62122707D01*
X78714534Y-62120590D01*
X78732066Y-62087790D01*
X78757184Y-62057184D01*
X78770055Y-62046621D01*
X78787377Y-62029299D01*
X78800991Y-62008925D01*
X78810368Y-61986286D01*
X78815149Y-61962253D01*
X78815149Y-61937749D01*
X78810369Y-61913716D01*
X78800992Y-61891077D01*
X78787378Y-61870702D01*
X78770055Y-61853379D01*
X78757184Y-61842816D01*
X78732066Y-61812210D01*
X78713402Y-61777291D01*
X78706381Y-61754147D01*
X78701908Y-61739401D01*
X78698028Y-61700000D01*
X78701908Y-61660599D01*
X78713403Y-61622707D01*
X78714534Y-61620590D01*
X78732066Y-61587790D01*
X78757184Y-61557184D01*
X78770055Y-61546621D01*
X78787377Y-61529299D01*
X78800991Y-61508925D01*
X78810368Y-61486286D01*
X78815149Y-61462253D01*
X78815149Y-61437749D01*
X78810369Y-61413716D01*
X78800992Y-61391077D01*
X78787378Y-61370702D01*
X78770055Y-61353379D01*
X78757184Y-61342816D01*
X78732066Y-61312210D01*
X78713402Y-61277291D01*
X78701909Y-61239403D01*
X78701908Y-61239401D01*
X78698028Y-61200000D01*
X78701908Y-61160599D01*
X78713403Y-61122707D01*
X78714534Y-61120590D01*
X78732066Y-61087790D01*
X78757184Y-61057184D01*
X78770055Y-61046621D01*
X78787377Y-61029299D01*
X78800991Y-61008925D01*
X78810368Y-60986286D01*
X78815149Y-60962253D01*
X78815149Y-60937749D01*
X78810369Y-60913716D01*
X78800992Y-60891077D01*
X78787378Y-60870702D01*
X78770055Y-60853379D01*
X78757184Y-60842816D01*
X78732066Y-60812210D01*
X78713402Y-60777291D01*
X78701909Y-60739403D01*
X78701908Y-60739401D01*
X78698028Y-60700000D01*
X78701908Y-60660599D01*
X78713403Y-60622707D01*
X78714534Y-60620590D01*
X78732066Y-60587790D01*
X78757184Y-60557184D01*
X78787790Y-60532066D01*
X78822709Y-60513402D01*
X78841653Y-60507656D01*
X78860599Y-60501908D01*
X78890126Y-60499000D01*
X79809874Y-60499000D01*
X79839401Y-60501908D01*
X79839401Y-60501908D01*
G37*
G36*
X76289401Y-60501908D02*
G01*
X76308347Y-60507655D01*
X76327291Y-60513402D01*
X76362210Y-60532066D01*
X76392816Y-60557184D01*
X76417934Y-60587790D01*
X76435466Y-60620590D01*
X76436597Y-60622707D01*
X76448092Y-60660599D01*
X76451972Y-60700000D01*
X76448092Y-60739401D01*
X76448091Y-60739403D01*
X76436598Y-60777291D01*
X76417934Y-60812210D01*
X76392816Y-60842816D01*
X76379945Y-60853379D01*
X76362623Y-60870701D01*
X76349009Y-60891075D01*
X76339632Y-60913714D01*
X76334851Y-60937747D01*
X76334851Y-60962251D01*
X76339631Y-60986284D01*
X76349008Y-61008923D01*
X76362622Y-61029298D01*
X76379945Y-61046621D01*
X76392816Y-61057184D01*
X76417934Y-61087790D01*
X76435466Y-61120590D01*
X76436597Y-61122707D01*
X76448092Y-61160599D01*
X76451972Y-61200000D01*
X76448092Y-61239401D01*
X76448091Y-61239403D01*
X76436598Y-61277291D01*
X76417934Y-61312210D01*
X76392816Y-61342816D01*
X76379945Y-61353379D01*
X76362623Y-61370701D01*
X76349009Y-61391075D01*
X76339632Y-61413714D01*
X76334851Y-61437747D01*
X76334851Y-61462251D01*
X76339631Y-61486284D01*
X76349008Y-61508923D01*
X76362622Y-61529298D01*
X76379945Y-61546621D01*
X76392816Y-61557184D01*
X76417934Y-61587790D01*
X76435466Y-61620590D01*
X76436597Y-61622707D01*
X76448092Y-61660599D01*
X76451972Y-61700000D01*
X76448092Y-61739401D01*
X76443619Y-61754147D01*
X76436598Y-61777291D01*
X76417934Y-61812210D01*
X76392816Y-61842816D01*
X76379945Y-61853379D01*
X76362623Y-61870701D01*
X76349009Y-61891075D01*
X76339632Y-61913714D01*
X76334851Y-61937747D01*
X76334851Y-61962251D01*
X76339631Y-61986284D01*
X76349008Y-62008923D01*
X76362622Y-62029298D01*
X76379945Y-62046621D01*
X76392816Y-62057184D01*
X76417934Y-62087790D01*
X76435466Y-62120590D01*
X76436597Y-62122707D01*
X76448092Y-62160599D01*
X76451972Y-62200000D01*
X76448092Y-62239401D01*
X76444339Y-62251771D01*
X76436598Y-62277291D01*
X76417934Y-62312210D01*
X76392816Y-62342816D01*
X76379945Y-62353379D01*
X76362623Y-62370701D01*
X76349009Y-62391075D01*
X76339632Y-62413714D01*
X76334851Y-62437747D01*
X76334851Y-62462251D01*
X76339631Y-62486284D01*
X76349008Y-62508923D01*
X76362622Y-62529298D01*
X76379945Y-62546621D01*
X76392816Y-62557184D01*
X76417934Y-62587790D01*
X76435466Y-62620590D01*
X76436597Y-62622707D01*
X76448092Y-62660599D01*
X76451972Y-62700000D01*
X76448092Y-62739401D01*
X76448091Y-62739403D01*
X76436598Y-62777291D01*
X76417934Y-62812210D01*
X76392816Y-62842816D01*
X76379945Y-62853379D01*
X76362623Y-62870701D01*
X76349009Y-62891075D01*
X76339632Y-62913714D01*
X76334851Y-62937747D01*
X76334851Y-62962251D01*
X76339631Y-62986284D01*
X76349008Y-63008923D01*
X76362622Y-63029298D01*
X76379945Y-63046621D01*
X76392816Y-63057184D01*
X76417934Y-63087790D01*
X76426742Y-63104270D01*
X76436597Y-63122707D01*
X76448092Y-63160599D01*
X76451972Y-63200000D01*
X76448092Y-63239401D01*
X76448091Y-63239403D01*
X76436598Y-63277291D01*
X76417934Y-63312210D01*
X76392816Y-63342816D01*
X76379945Y-63353379D01*
X76362623Y-63370701D01*
X76349009Y-63391075D01*
X76339632Y-63413714D01*
X76334851Y-63437747D01*
X76334851Y-63462251D01*
X76339631Y-63486284D01*
X76349008Y-63508923D01*
X76362622Y-63529298D01*
X76379945Y-63546621D01*
X76392816Y-63557184D01*
X76417934Y-63587790D01*
X76435466Y-63620590D01*
X76436597Y-63622707D01*
X76448092Y-63660599D01*
X76451972Y-63700000D01*
X76448092Y-63739401D01*
X76448091Y-63739403D01*
X76436598Y-63777291D01*
X76417934Y-63812210D01*
X76392816Y-63842816D01*
X76379945Y-63853379D01*
X76362623Y-63870701D01*
X76349009Y-63891075D01*
X76339632Y-63913714D01*
X76334851Y-63937747D01*
X76334851Y-63962251D01*
X76339631Y-63986284D01*
X76349008Y-64008923D01*
X76362622Y-64029298D01*
X76379945Y-64046621D01*
X76392816Y-64057184D01*
X76417934Y-64087790D01*
X76435466Y-64120590D01*
X76436597Y-64122707D01*
X76448092Y-64160599D01*
X76451972Y-64200000D01*
X76448092Y-64239401D01*
X76448091Y-64239403D01*
X76436598Y-64277291D01*
X76417934Y-64312210D01*
X76392816Y-64342816D01*
X76379945Y-64353379D01*
X76362623Y-64370701D01*
X76349009Y-64391075D01*
X76339632Y-64413714D01*
X76334851Y-64437747D01*
X76334851Y-64462251D01*
X76339631Y-64486284D01*
X76349008Y-64508923D01*
X76362622Y-64529298D01*
X76379945Y-64546621D01*
X76392816Y-64557184D01*
X76417934Y-64587790D01*
X76435466Y-64620590D01*
X76436597Y-64622707D01*
X76448092Y-64660599D01*
X76451972Y-64700000D01*
X76448092Y-64739401D01*
X76448091Y-64739403D01*
X76436598Y-64777291D01*
X76417934Y-64812210D01*
X76392816Y-64842816D01*
X76379945Y-64853379D01*
X76362623Y-64870701D01*
X76349009Y-64891075D01*
X76339632Y-64913714D01*
X76334851Y-64937747D01*
X76334851Y-64962251D01*
X76339631Y-64986284D01*
X76349008Y-65008923D01*
X76362622Y-65029298D01*
X76379945Y-65046621D01*
X76392816Y-65057184D01*
X76417934Y-65087790D01*
X76435466Y-65120590D01*
X76436597Y-65122707D01*
X76448092Y-65160599D01*
X76451972Y-65200000D01*
X76448092Y-65239401D01*
X76448091Y-65239403D01*
X76436598Y-65277291D01*
X76417934Y-65312210D01*
X76392816Y-65342816D01*
X76362210Y-65367934D01*
X76327291Y-65386598D01*
X76308347Y-65392345D01*
X76289401Y-65398092D01*
X76259874Y-65401000D01*
X75940126Y-65401000D01*
X75910599Y-65398092D01*
X75891653Y-65392345D01*
X75872709Y-65386598D01*
X75837790Y-65367934D01*
X75807184Y-65342816D01*
X75782066Y-65312210D01*
X75763402Y-65277291D01*
X75751909Y-65239403D01*
X75751908Y-65239401D01*
X75748028Y-65200000D01*
X75751908Y-65160599D01*
X75763403Y-65122707D01*
X75764534Y-65120590D01*
X75782066Y-65087790D01*
X75807184Y-65057184D01*
X75820055Y-65046621D01*
X75837377Y-65029299D01*
X75850991Y-65008925D01*
X75860368Y-64986286D01*
X75865149Y-64962253D01*
X75865149Y-64937749D01*
X75860369Y-64913716D01*
X75850992Y-64891077D01*
X75837378Y-64870702D01*
X75820055Y-64853379D01*
X75807184Y-64842816D01*
X75782066Y-64812210D01*
X75763402Y-64777291D01*
X75751909Y-64739403D01*
X75751908Y-64739401D01*
X75748028Y-64700000D01*
X75751908Y-64660599D01*
X75763403Y-64622707D01*
X75764534Y-64620590D01*
X75782066Y-64587790D01*
X75807184Y-64557184D01*
X75820055Y-64546621D01*
X75837377Y-64529299D01*
X75850991Y-64508925D01*
X75860368Y-64486286D01*
X75865149Y-64462253D01*
X75865149Y-64437749D01*
X75860369Y-64413716D01*
X75850992Y-64391077D01*
X75837378Y-64370702D01*
X75820055Y-64353379D01*
X75807184Y-64342816D01*
X75782066Y-64312210D01*
X75763402Y-64277291D01*
X75751909Y-64239403D01*
X75751908Y-64239401D01*
X75748028Y-64200000D01*
X75751908Y-64160599D01*
X75763403Y-64122707D01*
X75764534Y-64120590D01*
X75782066Y-64087790D01*
X75807184Y-64057184D01*
X75820055Y-64046621D01*
X75837377Y-64029299D01*
X75850991Y-64008925D01*
X75860368Y-63986286D01*
X75865149Y-63962253D01*
X75865149Y-63937749D01*
X75860369Y-63913716D01*
X75850992Y-63891077D01*
X75837378Y-63870702D01*
X75820055Y-63853379D01*
X75807184Y-63842816D01*
X75782066Y-63812210D01*
X75763402Y-63777291D01*
X75751909Y-63739403D01*
X75751908Y-63739401D01*
X75748028Y-63700000D01*
X75751908Y-63660599D01*
X75763403Y-63622707D01*
X75764534Y-63620590D01*
X75782066Y-63587790D01*
X75807184Y-63557184D01*
X75820055Y-63546621D01*
X75837377Y-63529299D01*
X75850991Y-63508925D01*
X75860368Y-63486286D01*
X75865149Y-63462253D01*
X75865149Y-63437749D01*
X75860369Y-63413716D01*
X75850992Y-63391077D01*
X75837378Y-63370702D01*
X75820055Y-63353379D01*
X75807184Y-63342816D01*
X75782066Y-63312210D01*
X75763402Y-63277291D01*
X75751909Y-63239403D01*
X75751908Y-63239401D01*
X75748028Y-63200000D01*
X75751908Y-63160599D01*
X75763403Y-63122707D01*
X75773258Y-63104270D01*
X75782066Y-63087790D01*
X75807184Y-63057184D01*
X75820055Y-63046621D01*
X75837377Y-63029299D01*
X75850991Y-63008925D01*
X75860368Y-62986286D01*
X75865149Y-62962253D01*
X75865149Y-62937749D01*
X75860369Y-62913716D01*
X75850992Y-62891077D01*
X75837378Y-62870702D01*
X75820055Y-62853379D01*
X75807184Y-62842816D01*
X75782066Y-62812210D01*
X75763402Y-62777291D01*
X75751909Y-62739403D01*
X75751908Y-62739401D01*
X75748028Y-62700000D01*
X75751908Y-62660599D01*
X75763403Y-62622707D01*
X75764534Y-62620590D01*
X75782066Y-62587790D01*
X75807184Y-62557184D01*
X75820055Y-62546621D01*
X75837377Y-62529299D01*
X75850991Y-62508925D01*
X75860368Y-62486286D01*
X75865149Y-62462253D01*
X75865149Y-62437749D01*
X75860369Y-62413716D01*
X75850992Y-62391077D01*
X75837378Y-62370702D01*
X75820055Y-62353379D01*
X75807184Y-62342816D01*
X75782066Y-62312210D01*
X75763402Y-62277291D01*
X75755661Y-62251771D01*
X75751908Y-62239401D01*
X75748028Y-62200000D01*
X75751908Y-62160599D01*
X75763403Y-62122707D01*
X75764534Y-62120590D01*
X75782066Y-62087790D01*
X75807184Y-62057184D01*
X75820055Y-62046621D01*
X75837377Y-62029299D01*
X75850991Y-62008925D01*
X75860368Y-61986286D01*
X75865149Y-61962253D01*
X75865149Y-61937749D01*
X75860369Y-61913716D01*
X75850992Y-61891077D01*
X75837378Y-61870702D01*
X75820055Y-61853379D01*
X75807184Y-61842816D01*
X75782066Y-61812210D01*
X75763402Y-61777291D01*
X75756381Y-61754147D01*
X75751908Y-61739401D01*
X75748028Y-61700000D01*
X75751908Y-61660599D01*
X75763403Y-61622707D01*
X75764534Y-61620590D01*
X75782066Y-61587790D01*
X75807184Y-61557184D01*
X75820055Y-61546621D01*
X75837377Y-61529299D01*
X75850991Y-61508925D01*
X75860368Y-61486286D01*
X75865149Y-61462253D01*
X75865149Y-61437749D01*
X75860369Y-61413716D01*
X75850992Y-61391077D01*
X75837378Y-61370702D01*
X75820055Y-61353379D01*
X75807184Y-61342816D01*
X75782066Y-61312210D01*
X75763402Y-61277291D01*
X75751909Y-61239403D01*
X75751908Y-61239401D01*
X75748028Y-61200000D01*
X75751908Y-61160599D01*
X75763403Y-61122707D01*
X75764534Y-61120590D01*
X75782066Y-61087790D01*
X75807184Y-61057184D01*
X75820055Y-61046621D01*
X75837377Y-61029299D01*
X75850991Y-61008925D01*
X75860368Y-60986286D01*
X75865149Y-60962253D01*
X75865149Y-60937749D01*
X75860369Y-60913716D01*
X75850992Y-60891077D01*
X75837378Y-60870702D01*
X75820055Y-60853379D01*
X75807184Y-60842816D01*
X75782066Y-60812210D01*
X75763402Y-60777291D01*
X75751909Y-60739403D01*
X75751908Y-60739401D01*
X75748028Y-60700000D01*
X75751908Y-60660599D01*
X75763403Y-60622707D01*
X75764534Y-60620590D01*
X75782066Y-60587790D01*
X75807184Y-60557184D01*
X75837790Y-60532066D01*
X75872709Y-60513402D01*
X75891653Y-60507656D01*
X75910599Y-60501908D01*
X75940126Y-60499000D01*
X76259874Y-60499000D01*
X76289401Y-60501908D01*
X76289401Y-60501908D01*
G37*
G36*
X77689401Y-60501908D02*
G01*
X77708347Y-60507655D01*
X77727291Y-60513402D01*
X77762210Y-60532066D01*
X77792816Y-60557184D01*
X77817934Y-60587790D01*
X77835466Y-60620590D01*
X77836597Y-60622707D01*
X77848092Y-60660599D01*
X77851972Y-60700000D01*
X77848092Y-60739401D01*
X77848091Y-60739403D01*
X77836598Y-60777291D01*
X77817934Y-60812210D01*
X77792816Y-60842816D01*
X77779945Y-60853379D01*
X77762623Y-60870701D01*
X77749009Y-60891075D01*
X77739632Y-60913714D01*
X77734851Y-60937747D01*
X77734851Y-60962251D01*
X77739631Y-60986284D01*
X77749008Y-61008923D01*
X77762622Y-61029298D01*
X77779945Y-61046621D01*
X77792816Y-61057184D01*
X77817934Y-61087790D01*
X77835466Y-61120590D01*
X77836597Y-61122707D01*
X77848092Y-61160599D01*
X77851972Y-61200000D01*
X77848092Y-61239401D01*
X77848091Y-61239403D01*
X77836598Y-61277291D01*
X77817934Y-61312210D01*
X77792816Y-61342816D01*
X77779945Y-61353379D01*
X77762623Y-61370701D01*
X77749009Y-61391075D01*
X77739632Y-61413714D01*
X77734851Y-61437747D01*
X77734851Y-61462251D01*
X77739631Y-61486284D01*
X77749008Y-61508923D01*
X77762622Y-61529298D01*
X77779945Y-61546621D01*
X77792816Y-61557184D01*
X77817934Y-61587790D01*
X77835466Y-61620590D01*
X77836597Y-61622707D01*
X77848092Y-61660599D01*
X77851972Y-61700000D01*
X77848092Y-61739401D01*
X77843619Y-61754147D01*
X77836598Y-61777291D01*
X77817934Y-61812210D01*
X77792816Y-61842816D01*
X77779945Y-61853379D01*
X77762623Y-61870701D01*
X77749009Y-61891075D01*
X77739632Y-61913714D01*
X77734851Y-61937747D01*
X77734851Y-61962251D01*
X77739631Y-61986284D01*
X77749008Y-62008923D01*
X77762622Y-62029298D01*
X77779945Y-62046621D01*
X77792816Y-62057184D01*
X77817934Y-62087790D01*
X77835466Y-62120590D01*
X77836597Y-62122707D01*
X77848092Y-62160599D01*
X77851972Y-62200000D01*
X77848092Y-62239401D01*
X77844339Y-62251771D01*
X77836598Y-62277291D01*
X77817934Y-62312210D01*
X77792816Y-62342816D01*
X77779945Y-62353379D01*
X77762623Y-62370701D01*
X77749009Y-62391075D01*
X77739632Y-62413714D01*
X77734851Y-62437747D01*
X77734851Y-62462251D01*
X77739631Y-62486284D01*
X77749008Y-62508923D01*
X77762622Y-62529298D01*
X77779945Y-62546621D01*
X77792816Y-62557184D01*
X77817934Y-62587790D01*
X77835466Y-62620590D01*
X77836597Y-62622707D01*
X77848092Y-62660599D01*
X77851972Y-62700000D01*
X77848092Y-62739401D01*
X77848091Y-62739403D01*
X77836598Y-62777291D01*
X77817934Y-62812210D01*
X77792816Y-62842816D01*
X77779945Y-62853379D01*
X77762623Y-62870701D01*
X77749009Y-62891075D01*
X77739632Y-62913714D01*
X77734851Y-62937747D01*
X77734851Y-62962251D01*
X77739631Y-62986284D01*
X77749008Y-63008923D01*
X77762622Y-63029298D01*
X77779945Y-63046621D01*
X77792816Y-63057184D01*
X77817934Y-63087790D01*
X77826742Y-63104270D01*
X77836597Y-63122707D01*
X77848092Y-63160599D01*
X77851972Y-63200000D01*
X77848092Y-63239401D01*
X77848091Y-63239403D01*
X77836598Y-63277291D01*
X77817934Y-63312210D01*
X77792816Y-63342816D01*
X77779945Y-63353379D01*
X77762623Y-63370701D01*
X77749009Y-63391075D01*
X77739632Y-63413714D01*
X77734851Y-63437747D01*
X77734851Y-63462251D01*
X77739631Y-63486284D01*
X77749008Y-63508923D01*
X77762622Y-63529298D01*
X77779945Y-63546621D01*
X77792816Y-63557184D01*
X77817934Y-63587790D01*
X77835466Y-63620590D01*
X77836597Y-63622707D01*
X77848092Y-63660599D01*
X77851972Y-63700000D01*
X77848092Y-63739401D01*
X77848091Y-63739403D01*
X77836598Y-63777291D01*
X77817934Y-63812210D01*
X77792816Y-63842816D01*
X77779945Y-63853379D01*
X77762623Y-63870701D01*
X77749009Y-63891075D01*
X77739632Y-63913714D01*
X77734851Y-63937747D01*
X77734851Y-63962251D01*
X77739631Y-63986284D01*
X77749008Y-64008923D01*
X77762622Y-64029298D01*
X77779945Y-64046621D01*
X77792816Y-64057184D01*
X77817934Y-64087790D01*
X77835466Y-64120590D01*
X77836597Y-64122707D01*
X77848092Y-64160599D01*
X77851972Y-64200000D01*
X77848092Y-64239401D01*
X77848091Y-64239403D01*
X77836598Y-64277291D01*
X77817934Y-64312210D01*
X77792816Y-64342816D01*
X77779945Y-64353379D01*
X77762623Y-64370701D01*
X77749009Y-64391075D01*
X77739632Y-64413714D01*
X77734851Y-64437747D01*
X77734851Y-64462251D01*
X77739631Y-64486284D01*
X77749008Y-64508923D01*
X77762622Y-64529298D01*
X77779945Y-64546621D01*
X77792816Y-64557184D01*
X77817934Y-64587790D01*
X77835466Y-64620590D01*
X77836597Y-64622707D01*
X77848092Y-64660599D01*
X77851972Y-64700000D01*
X77848092Y-64739401D01*
X77848091Y-64739403D01*
X77836598Y-64777291D01*
X77817934Y-64812210D01*
X77792816Y-64842816D01*
X77779945Y-64853379D01*
X77762623Y-64870701D01*
X77749009Y-64891075D01*
X77739632Y-64913714D01*
X77734851Y-64937747D01*
X77734851Y-64962251D01*
X77739631Y-64986284D01*
X77749008Y-65008923D01*
X77762622Y-65029298D01*
X77779945Y-65046621D01*
X77792816Y-65057184D01*
X77817934Y-65087790D01*
X77835466Y-65120590D01*
X77836597Y-65122707D01*
X77848092Y-65160599D01*
X77851972Y-65200000D01*
X77848092Y-65239401D01*
X77848091Y-65239403D01*
X77836598Y-65277291D01*
X77817934Y-65312210D01*
X77792816Y-65342816D01*
X77762210Y-65367934D01*
X77727291Y-65386598D01*
X77708347Y-65392345D01*
X77689401Y-65398092D01*
X77659874Y-65401000D01*
X77340126Y-65401000D01*
X77310599Y-65398092D01*
X77291653Y-65392345D01*
X77272709Y-65386598D01*
X77237790Y-65367934D01*
X77207184Y-65342816D01*
X77182066Y-65312210D01*
X77163402Y-65277291D01*
X77151909Y-65239403D01*
X77151908Y-65239401D01*
X77148028Y-65200000D01*
X77151908Y-65160599D01*
X77163403Y-65122707D01*
X77164534Y-65120590D01*
X77182066Y-65087790D01*
X77207184Y-65057184D01*
X77220055Y-65046621D01*
X77237377Y-65029299D01*
X77250991Y-65008925D01*
X77260368Y-64986286D01*
X77265149Y-64962253D01*
X77265149Y-64937749D01*
X77260369Y-64913716D01*
X77250992Y-64891077D01*
X77237378Y-64870702D01*
X77220055Y-64853379D01*
X77207184Y-64842816D01*
X77182066Y-64812210D01*
X77163402Y-64777291D01*
X77151909Y-64739403D01*
X77151908Y-64739401D01*
X77148028Y-64700000D01*
X77151908Y-64660599D01*
X77163403Y-64622707D01*
X77164534Y-64620590D01*
X77182066Y-64587790D01*
X77207184Y-64557184D01*
X77220055Y-64546621D01*
X77237377Y-64529299D01*
X77250991Y-64508925D01*
X77260368Y-64486286D01*
X77265149Y-64462253D01*
X77265149Y-64437749D01*
X77260369Y-64413716D01*
X77250992Y-64391077D01*
X77237378Y-64370702D01*
X77220055Y-64353379D01*
X77207184Y-64342816D01*
X77182066Y-64312210D01*
X77163402Y-64277291D01*
X77151909Y-64239403D01*
X77151908Y-64239401D01*
X77148028Y-64200000D01*
X77151908Y-64160599D01*
X77163403Y-64122707D01*
X77164534Y-64120590D01*
X77182066Y-64087790D01*
X77207184Y-64057184D01*
X77220055Y-64046621D01*
X77237377Y-64029299D01*
X77250991Y-64008925D01*
X77260368Y-63986286D01*
X77265149Y-63962253D01*
X77265149Y-63937749D01*
X77260369Y-63913716D01*
X77250992Y-63891077D01*
X77237378Y-63870702D01*
X77220055Y-63853379D01*
X77207184Y-63842816D01*
X77182066Y-63812210D01*
X77163402Y-63777291D01*
X77151909Y-63739403D01*
X77151908Y-63739401D01*
X77148028Y-63700000D01*
X77151908Y-63660599D01*
X77163403Y-63622707D01*
X77164534Y-63620590D01*
X77182066Y-63587790D01*
X77207184Y-63557184D01*
X77220055Y-63546621D01*
X77237377Y-63529299D01*
X77250991Y-63508925D01*
X77260368Y-63486286D01*
X77265149Y-63462253D01*
X77265149Y-63437749D01*
X77260369Y-63413716D01*
X77250992Y-63391077D01*
X77237378Y-63370702D01*
X77220055Y-63353379D01*
X77207184Y-63342816D01*
X77182066Y-63312210D01*
X77163402Y-63277291D01*
X77151909Y-63239403D01*
X77151908Y-63239401D01*
X77148028Y-63200000D01*
X77151908Y-63160599D01*
X77163403Y-63122707D01*
X77173258Y-63104270D01*
X77182066Y-63087790D01*
X77207184Y-63057184D01*
X77220055Y-63046621D01*
X77237377Y-63029299D01*
X77250991Y-63008925D01*
X77260368Y-62986286D01*
X77265149Y-62962253D01*
X77265149Y-62937749D01*
X77260369Y-62913716D01*
X77250992Y-62891077D01*
X77237378Y-62870702D01*
X77220055Y-62853379D01*
X77207184Y-62842816D01*
X77182066Y-62812210D01*
X77163402Y-62777291D01*
X77151909Y-62739403D01*
X77151908Y-62739401D01*
X77148028Y-62700000D01*
X77151908Y-62660599D01*
X77163403Y-62622707D01*
X77164534Y-62620590D01*
X77182066Y-62587790D01*
X77207184Y-62557184D01*
X77220055Y-62546621D01*
X77237377Y-62529299D01*
X77250991Y-62508925D01*
X77260368Y-62486286D01*
X77265149Y-62462253D01*
X77265149Y-62437749D01*
X77260369Y-62413716D01*
X77250992Y-62391077D01*
X77237378Y-62370702D01*
X77220055Y-62353379D01*
X77207184Y-62342816D01*
X77182066Y-62312210D01*
X77163402Y-62277291D01*
X77155661Y-62251771D01*
X77151908Y-62239401D01*
X77148028Y-62200000D01*
X77151908Y-62160599D01*
X77163403Y-62122707D01*
X77164534Y-62120590D01*
X77182066Y-62087790D01*
X77207184Y-62057184D01*
X77220055Y-62046621D01*
X77237377Y-62029299D01*
X77250991Y-62008925D01*
X77260368Y-61986286D01*
X77265149Y-61962253D01*
X77265149Y-61937749D01*
X77260369Y-61913716D01*
X77250992Y-61891077D01*
X77237378Y-61870702D01*
X77220055Y-61853379D01*
X77207184Y-61842816D01*
X77182066Y-61812210D01*
X77163402Y-61777291D01*
X77156381Y-61754147D01*
X77151908Y-61739401D01*
X77148028Y-61700000D01*
X77151908Y-61660599D01*
X77163403Y-61622707D01*
X77164534Y-61620590D01*
X77182066Y-61587790D01*
X77207184Y-61557184D01*
X77220055Y-61546621D01*
X77237377Y-61529299D01*
X77250991Y-61508925D01*
X77260368Y-61486286D01*
X77265149Y-61462253D01*
X77265149Y-61437749D01*
X77260369Y-61413716D01*
X77250992Y-61391077D01*
X77237378Y-61370702D01*
X77220055Y-61353379D01*
X77207184Y-61342816D01*
X77182066Y-61312210D01*
X77163402Y-61277291D01*
X77151909Y-61239403D01*
X77151908Y-61239401D01*
X77148028Y-61200000D01*
X77151908Y-61160599D01*
X77163403Y-61122707D01*
X77164534Y-61120590D01*
X77182066Y-61087790D01*
X77207184Y-61057184D01*
X77220055Y-61046621D01*
X77237377Y-61029299D01*
X77250991Y-61008925D01*
X77260368Y-60986286D01*
X77265149Y-60962253D01*
X77265149Y-60937749D01*
X77260369Y-60913716D01*
X77250992Y-60891077D01*
X77237378Y-60870702D01*
X77220055Y-60853379D01*
X77207184Y-60842816D01*
X77182066Y-60812210D01*
X77163402Y-60777291D01*
X77151909Y-60739403D01*
X77151908Y-60739401D01*
X77148028Y-60700000D01*
X77151908Y-60660599D01*
X77163403Y-60622707D01*
X77164534Y-60620590D01*
X77182066Y-60587790D01*
X77207184Y-60557184D01*
X77237790Y-60532066D01*
X77272709Y-60513402D01*
X77291653Y-60507656D01*
X77310599Y-60501908D01*
X77340126Y-60499000D01*
X77659874Y-60499000D01*
X77689401Y-60501908D01*
X77689401Y-60501908D01*
G37*
G36*
X74739401Y-60501908D02*
G01*
X74758347Y-60507655D01*
X74777291Y-60513402D01*
X74812210Y-60532066D01*
X74842816Y-60557184D01*
X74867934Y-60587790D01*
X74885466Y-60620590D01*
X74886597Y-60622707D01*
X74898092Y-60660599D01*
X74901972Y-60700000D01*
X74898092Y-60739401D01*
X74898091Y-60739403D01*
X74886598Y-60777291D01*
X74867934Y-60812210D01*
X74842816Y-60842816D01*
X74829945Y-60853379D01*
X74812623Y-60870701D01*
X74799009Y-60891075D01*
X74789632Y-60913714D01*
X74784851Y-60937747D01*
X74784851Y-60962251D01*
X74789631Y-60986284D01*
X74799008Y-61008923D01*
X74812622Y-61029298D01*
X74829945Y-61046621D01*
X74842816Y-61057184D01*
X74867934Y-61087790D01*
X74885466Y-61120590D01*
X74886597Y-61122707D01*
X74898092Y-61160599D01*
X74901972Y-61200000D01*
X74898092Y-61239401D01*
X74898091Y-61239403D01*
X74886598Y-61277291D01*
X74867934Y-61312210D01*
X74842816Y-61342816D01*
X74829945Y-61353379D01*
X74812623Y-61370701D01*
X74799009Y-61391075D01*
X74789632Y-61413714D01*
X74784851Y-61437747D01*
X74784851Y-61462251D01*
X74789631Y-61486284D01*
X74799008Y-61508923D01*
X74812622Y-61529298D01*
X74829945Y-61546621D01*
X74842816Y-61557184D01*
X74867934Y-61587790D01*
X74885466Y-61620590D01*
X74886597Y-61622707D01*
X74898092Y-61660599D01*
X74901972Y-61700000D01*
X74898092Y-61739401D01*
X74893619Y-61754147D01*
X74886598Y-61777291D01*
X74867934Y-61812210D01*
X74842816Y-61842816D01*
X74829945Y-61853379D01*
X74812623Y-61870701D01*
X74799009Y-61891075D01*
X74789632Y-61913714D01*
X74784851Y-61937747D01*
X74784851Y-61962251D01*
X74789631Y-61986284D01*
X74799008Y-62008923D01*
X74812622Y-62029298D01*
X74829945Y-62046621D01*
X74842816Y-62057184D01*
X74867934Y-62087790D01*
X74885466Y-62120590D01*
X74886597Y-62122707D01*
X74898092Y-62160599D01*
X74901972Y-62200000D01*
X74898092Y-62239401D01*
X74894339Y-62251771D01*
X74886598Y-62277291D01*
X74867934Y-62312210D01*
X74842816Y-62342816D01*
X74829945Y-62353379D01*
X74812623Y-62370701D01*
X74799009Y-62391075D01*
X74789632Y-62413714D01*
X74784851Y-62437747D01*
X74784851Y-62462251D01*
X74789631Y-62486284D01*
X74799008Y-62508923D01*
X74812622Y-62529298D01*
X74829945Y-62546621D01*
X74842816Y-62557184D01*
X74867934Y-62587790D01*
X74885466Y-62620590D01*
X74886597Y-62622707D01*
X74898092Y-62660599D01*
X74901972Y-62700000D01*
X74898092Y-62739401D01*
X74898091Y-62739403D01*
X74886598Y-62777291D01*
X74867934Y-62812210D01*
X74842816Y-62842816D01*
X74829945Y-62853379D01*
X74812623Y-62870701D01*
X74799009Y-62891075D01*
X74789632Y-62913714D01*
X74784851Y-62937747D01*
X74784851Y-62962251D01*
X74789631Y-62986284D01*
X74799008Y-63008923D01*
X74812622Y-63029298D01*
X74829945Y-63046621D01*
X74842816Y-63057184D01*
X74867934Y-63087790D01*
X74876742Y-63104270D01*
X74886597Y-63122707D01*
X74898092Y-63160599D01*
X74901972Y-63200000D01*
X74898092Y-63239401D01*
X74898091Y-63239403D01*
X74886598Y-63277291D01*
X74867934Y-63312210D01*
X74842816Y-63342816D01*
X74829945Y-63353379D01*
X74812623Y-63370701D01*
X74799009Y-63391075D01*
X74789632Y-63413714D01*
X74784851Y-63437747D01*
X74784851Y-63462251D01*
X74789631Y-63486284D01*
X74799008Y-63508923D01*
X74812622Y-63529298D01*
X74829945Y-63546621D01*
X74842816Y-63557184D01*
X74867934Y-63587790D01*
X74885466Y-63620590D01*
X74886597Y-63622707D01*
X74898092Y-63660599D01*
X74901972Y-63700000D01*
X74898092Y-63739401D01*
X74898091Y-63739403D01*
X74886598Y-63777291D01*
X74867934Y-63812210D01*
X74842816Y-63842816D01*
X74829945Y-63853379D01*
X74812623Y-63870701D01*
X74799009Y-63891075D01*
X74789632Y-63913714D01*
X74784851Y-63937747D01*
X74784851Y-63962251D01*
X74789631Y-63986284D01*
X74799008Y-64008923D01*
X74812622Y-64029298D01*
X74829945Y-64046621D01*
X74842816Y-64057184D01*
X74867934Y-64087790D01*
X74885466Y-64120590D01*
X74886597Y-64122707D01*
X74898092Y-64160599D01*
X74901972Y-64200000D01*
X74898092Y-64239401D01*
X74898091Y-64239403D01*
X74886598Y-64277291D01*
X74867934Y-64312210D01*
X74842816Y-64342816D01*
X74829945Y-64353379D01*
X74812623Y-64370701D01*
X74799009Y-64391075D01*
X74789632Y-64413714D01*
X74784851Y-64437747D01*
X74784851Y-64462251D01*
X74789631Y-64486284D01*
X74799008Y-64508923D01*
X74812622Y-64529298D01*
X74829945Y-64546621D01*
X74842816Y-64557184D01*
X74867934Y-64587790D01*
X74885466Y-64620590D01*
X74886597Y-64622707D01*
X74898092Y-64660599D01*
X74901972Y-64700000D01*
X74898092Y-64739401D01*
X74898091Y-64739403D01*
X74886598Y-64777291D01*
X74867934Y-64812210D01*
X74842816Y-64842816D01*
X74829945Y-64853379D01*
X74812623Y-64870701D01*
X74799009Y-64891075D01*
X74789632Y-64913714D01*
X74784851Y-64937747D01*
X74784851Y-64962251D01*
X74789631Y-64986284D01*
X74799008Y-65008923D01*
X74812622Y-65029298D01*
X74829945Y-65046621D01*
X74842816Y-65057184D01*
X74867934Y-65087790D01*
X74885466Y-65120590D01*
X74886597Y-65122707D01*
X74898092Y-65160599D01*
X74901972Y-65200000D01*
X74898092Y-65239401D01*
X74898091Y-65239403D01*
X74886598Y-65277291D01*
X74867934Y-65312210D01*
X74842816Y-65342816D01*
X74812210Y-65367934D01*
X74777291Y-65386598D01*
X74758347Y-65392345D01*
X74739401Y-65398092D01*
X74709874Y-65401000D01*
X73790126Y-65401000D01*
X73760599Y-65398092D01*
X73741653Y-65392345D01*
X73722709Y-65386598D01*
X73687790Y-65367934D01*
X73657184Y-65342816D01*
X73632066Y-65312210D01*
X73613402Y-65277291D01*
X73601909Y-65239403D01*
X73601908Y-65239401D01*
X73598028Y-65200000D01*
X73601908Y-65160599D01*
X73613403Y-65122707D01*
X73614534Y-65120590D01*
X73632066Y-65087790D01*
X73657184Y-65057184D01*
X73670055Y-65046621D01*
X73687377Y-65029299D01*
X73700991Y-65008925D01*
X73710368Y-64986286D01*
X73715149Y-64962253D01*
X73715149Y-64937749D01*
X73710369Y-64913716D01*
X73700992Y-64891077D01*
X73687378Y-64870702D01*
X73670055Y-64853379D01*
X73657184Y-64842816D01*
X73632066Y-64812210D01*
X73613402Y-64777291D01*
X73601909Y-64739403D01*
X73601908Y-64739401D01*
X73598028Y-64700000D01*
X73601908Y-64660599D01*
X73613403Y-64622707D01*
X73614534Y-64620590D01*
X73632066Y-64587790D01*
X73657184Y-64557184D01*
X73670055Y-64546621D01*
X73687377Y-64529299D01*
X73700991Y-64508925D01*
X73710368Y-64486286D01*
X73715149Y-64462253D01*
X73715149Y-64437749D01*
X73710369Y-64413716D01*
X73700992Y-64391077D01*
X73687378Y-64370702D01*
X73670055Y-64353379D01*
X73657184Y-64342816D01*
X73632066Y-64312210D01*
X73613402Y-64277291D01*
X73601909Y-64239403D01*
X73601908Y-64239401D01*
X73598028Y-64200000D01*
X73601908Y-64160599D01*
X73613403Y-64122707D01*
X73614534Y-64120590D01*
X73632066Y-64087790D01*
X73657184Y-64057184D01*
X73670055Y-64046621D01*
X73687377Y-64029299D01*
X73700991Y-64008925D01*
X73710368Y-63986286D01*
X73715149Y-63962253D01*
X73715149Y-63937749D01*
X73710369Y-63913716D01*
X73700992Y-63891077D01*
X73687378Y-63870702D01*
X73670055Y-63853379D01*
X73657184Y-63842816D01*
X73632066Y-63812210D01*
X73613402Y-63777291D01*
X73601909Y-63739403D01*
X73601908Y-63739401D01*
X73598028Y-63700000D01*
X73601908Y-63660599D01*
X73613403Y-63622707D01*
X73614534Y-63620590D01*
X73632066Y-63587790D01*
X73657184Y-63557184D01*
X73670055Y-63546621D01*
X73687377Y-63529299D01*
X73700991Y-63508925D01*
X73710368Y-63486286D01*
X73715149Y-63462253D01*
X73715149Y-63437749D01*
X73710369Y-63413716D01*
X73700992Y-63391077D01*
X73687378Y-63370702D01*
X73670055Y-63353379D01*
X73657184Y-63342816D01*
X73632066Y-63312210D01*
X73613402Y-63277291D01*
X73601909Y-63239403D01*
X73601908Y-63239401D01*
X73598028Y-63200000D01*
X73601908Y-63160599D01*
X73613403Y-63122707D01*
X73623258Y-63104270D01*
X73632066Y-63087790D01*
X73657184Y-63057184D01*
X73670055Y-63046621D01*
X73687377Y-63029299D01*
X73700991Y-63008925D01*
X73710368Y-62986286D01*
X73715149Y-62962253D01*
X73715149Y-62937749D01*
X73710369Y-62913716D01*
X73700992Y-62891077D01*
X73687378Y-62870702D01*
X73670055Y-62853379D01*
X73657184Y-62842816D01*
X73632066Y-62812210D01*
X73613402Y-62777291D01*
X73601909Y-62739403D01*
X73601908Y-62739401D01*
X73598028Y-62700000D01*
X73601908Y-62660599D01*
X73613403Y-62622707D01*
X73614534Y-62620590D01*
X73632066Y-62587790D01*
X73657184Y-62557184D01*
X73670055Y-62546621D01*
X73687377Y-62529299D01*
X73700991Y-62508925D01*
X73710368Y-62486286D01*
X73715149Y-62462253D01*
X73715149Y-62437749D01*
X73710369Y-62413716D01*
X73700992Y-62391077D01*
X73687378Y-62370702D01*
X73670055Y-62353379D01*
X73657184Y-62342816D01*
X73632066Y-62312210D01*
X73613402Y-62277291D01*
X73605661Y-62251771D01*
X73601908Y-62239401D01*
X73598028Y-62200000D01*
X73601908Y-62160599D01*
X73613403Y-62122707D01*
X73614534Y-62120590D01*
X73632066Y-62087790D01*
X73657184Y-62057184D01*
X73670055Y-62046621D01*
X73687377Y-62029299D01*
X73700991Y-62008925D01*
X73710368Y-61986286D01*
X73715149Y-61962253D01*
X73715149Y-61937749D01*
X73710369Y-61913716D01*
X73700992Y-61891077D01*
X73687378Y-61870702D01*
X73670055Y-61853379D01*
X73657184Y-61842816D01*
X73632066Y-61812210D01*
X73613402Y-61777291D01*
X73606381Y-61754147D01*
X73601908Y-61739401D01*
X73598028Y-61700000D01*
X73601908Y-61660599D01*
X73613403Y-61622707D01*
X73614534Y-61620590D01*
X73632066Y-61587790D01*
X73657184Y-61557184D01*
X73670055Y-61546621D01*
X73687377Y-61529299D01*
X73700991Y-61508925D01*
X73710368Y-61486286D01*
X73715149Y-61462253D01*
X73715149Y-61437749D01*
X73710369Y-61413716D01*
X73700992Y-61391077D01*
X73687378Y-61370702D01*
X73670055Y-61353379D01*
X73657184Y-61342816D01*
X73632066Y-61312210D01*
X73613402Y-61277291D01*
X73601909Y-61239403D01*
X73601908Y-61239401D01*
X73598028Y-61200000D01*
X73601908Y-61160599D01*
X73613403Y-61122707D01*
X73614534Y-61120590D01*
X73632066Y-61087790D01*
X73657184Y-61057184D01*
X73670055Y-61046621D01*
X73687377Y-61029299D01*
X73700991Y-61008925D01*
X73710368Y-60986286D01*
X73715149Y-60962253D01*
X73715149Y-60937749D01*
X73710369Y-60913716D01*
X73700992Y-60891077D01*
X73687378Y-60870702D01*
X73670055Y-60853379D01*
X73657184Y-60842816D01*
X73632066Y-60812210D01*
X73613402Y-60777291D01*
X73601909Y-60739403D01*
X73601908Y-60739401D01*
X73598028Y-60700000D01*
X73601908Y-60660599D01*
X73613403Y-60622707D01*
X73614534Y-60620590D01*
X73632066Y-60587790D01*
X73657184Y-60557184D01*
X73687790Y-60532066D01*
X73722709Y-60513402D01*
X73741653Y-60507656D01*
X73760599Y-60501908D01*
X73790126Y-60499000D01*
X74709874Y-60499000D01*
X74739401Y-60501908D01*
X74739401Y-60501908D01*
G37*
G36*
X117198228Y-62181703D02*
G01*
X117353100Y-62245853D01*
X117492481Y-62338985D01*
X117611015Y-62457519D01*
X117704147Y-62596900D01*
X117768297Y-62751772D01*
X117801000Y-62916184D01*
X117801000Y-63083816D01*
X117768297Y-63248228D01*
X117704147Y-63403100D01*
X117611015Y-63542481D01*
X117492481Y-63661015D01*
X117353100Y-63754147D01*
X117198228Y-63818297D01*
X117033816Y-63851000D01*
X116866184Y-63851000D01*
X116701772Y-63818297D01*
X116546900Y-63754147D01*
X116407519Y-63661015D01*
X116288985Y-63542481D01*
X116195853Y-63403100D01*
X116131703Y-63248228D01*
X116099000Y-63083816D01*
X116099000Y-62916184D01*
X116131703Y-62751772D01*
X116195853Y-62596900D01*
X116288985Y-62457519D01*
X116407519Y-62338985D01*
X116546900Y-62245853D01*
X116701772Y-62181703D01*
X116866184Y-62149000D01*
X117033816Y-62149000D01*
X117198228Y-62181703D01*
X117198228Y-62181703D01*
G37*
G36*
X130898228Y-61681703D02*
G01*
X131053100Y-61745853D01*
X131192481Y-61838985D01*
X131311015Y-61957519D01*
X131404147Y-62096900D01*
X131468297Y-62251772D01*
X131501000Y-62416184D01*
X131501000Y-62583816D01*
X131468297Y-62748228D01*
X131404147Y-62903100D01*
X131311015Y-63042481D01*
X131192481Y-63161015D01*
X131053100Y-63254147D01*
X130898228Y-63318297D01*
X130733816Y-63351000D01*
X130566184Y-63351000D01*
X130401772Y-63318297D01*
X130246900Y-63254147D01*
X130107519Y-63161015D01*
X129988985Y-63042481D01*
X129895853Y-62903100D01*
X129831703Y-62748228D01*
X129799000Y-62583816D01*
X129799000Y-62416184D01*
X129831703Y-62251772D01*
X129895853Y-62096900D01*
X129988985Y-61957519D01*
X130107519Y-61838985D01*
X130246900Y-61745853D01*
X130401772Y-61681703D01*
X130566184Y-61649000D01*
X130733816Y-61649000D01*
X130898228Y-61681703D01*
X130898228Y-61681703D01*
G37*
G36*
X122932516Y-59508781D02*
G01*
X123059945Y-59547436D01*
X123177382Y-59610208D01*
X123280317Y-59694684D01*
X123364792Y-59797617D01*
X123427564Y-59915054D01*
X123466219Y-60042483D01*
X123476000Y-60141795D01*
X123476000Y-62458205D01*
X123466219Y-62557517D01*
X123427564Y-62684946D01*
X123364792Y-62802383D01*
X123280317Y-62905317D01*
X123177383Y-62989792D01*
X123059946Y-63052564D01*
X122932517Y-63091219D01*
X122800000Y-63104270D01*
X122667484Y-63091219D01*
X122540055Y-63052564D01*
X122422618Y-62989792D01*
X122319684Y-62905317D01*
X122235209Y-62802383D01*
X122172437Y-62684946D01*
X122133782Y-62557517D01*
X122124001Y-62458205D01*
X122124000Y-60141796D01*
X122133781Y-60042484D01*
X122172436Y-59915055D01*
X122235208Y-59797618D01*
X122319684Y-59694683D01*
X122422617Y-59610208D01*
X122540054Y-59547436D01*
X122667483Y-59508781D01*
X122800000Y-59495730D01*
X122932516Y-59508781D01*
X122932516Y-59508781D01*
G37*
G36*
X126932516Y-59508781D02*
G01*
X127059945Y-59547436D01*
X127177382Y-59610208D01*
X127280317Y-59694684D01*
X127364792Y-59797617D01*
X127427564Y-59915054D01*
X127466219Y-60042483D01*
X127476000Y-60141795D01*
X127476000Y-62458205D01*
X127466219Y-62557517D01*
X127427564Y-62684946D01*
X127364792Y-62802383D01*
X127280317Y-62905317D01*
X127177383Y-62989792D01*
X127059946Y-63052564D01*
X126932517Y-63091219D01*
X126800000Y-63104270D01*
X126667484Y-63091219D01*
X126540055Y-63052564D01*
X126422618Y-62989792D01*
X126319684Y-62905317D01*
X126235209Y-62802383D01*
X126172437Y-62684946D01*
X126133782Y-62557517D01*
X126124001Y-62458205D01*
X126124000Y-60141796D01*
X126133781Y-60042484D01*
X126172436Y-59915055D01*
X126235208Y-59797618D01*
X126319684Y-59694683D01*
X126422617Y-59610208D01*
X126540054Y-59547436D01*
X126667483Y-59508781D01*
X126800000Y-59495730D01*
X126932516Y-59508781D01*
X126932516Y-59508781D01*
G37*
G36*
X120932516Y-59508781D02*
G01*
X121059945Y-59547436D01*
X121177382Y-59610208D01*
X121280317Y-59694684D01*
X121364792Y-59797617D01*
X121427564Y-59915054D01*
X121466219Y-60042483D01*
X121476000Y-60141795D01*
X121476000Y-62458205D01*
X121466219Y-62557517D01*
X121427564Y-62684946D01*
X121364792Y-62802383D01*
X121280317Y-62905317D01*
X121177383Y-62989792D01*
X121059946Y-63052564D01*
X120932517Y-63091219D01*
X120800000Y-63104270D01*
X120667484Y-63091219D01*
X120540055Y-63052564D01*
X120422618Y-62989792D01*
X120319684Y-62905317D01*
X120235209Y-62802383D01*
X120172437Y-62684946D01*
X120133782Y-62557517D01*
X120124001Y-62458205D01*
X120124000Y-60141796D01*
X120133781Y-60042484D01*
X120172436Y-59915055D01*
X120235208Y-59797618D01*
X120319684Y-59694683D01*
X120422617Y-59610208D01*
X120540054Y-59547436D01*
X120667483Y-59508781D01*
X120800000Y-59495730D01*
X120932516Y-59508781D01*
X120932516Y-59508781D01*
G37*
G36*
X124932516Y-59508781D02*
G01*
X125059945Y-59547436D01*
X125177382Y-59610208D01*
X125280317Y-59694684D01*
X125364792Y-59797617D01*
X125427564Y-59915054D01*
X125466219Y-60042483D01*
X125476000Y-60141795D01*
X125476000Y-62458205D01*
X125466219Y-62557517D01*
X125427564Y-62684946D01*
X125364792Y-62802383D01*
X125280317Y-62905317D01*
X125177383Y-62989792D01*
X125059946Y-63052564D01*
X124932517Y-63091219D01*
X124800000Y-63104270D01*
X124667484Y-63091219D01*
X124540055Y-63052564D01*
X124422618Y-62989792D01*
X124319684Y-62905317D01*
X124235209Y-62802383D01*
X124172437Y-62684946D01*
X124133782Y-62557517D01*
X124124001Y-62458205D01*
X124124000Y-60141796D01*
X124133781Y-60042484D01*
X124172436Y-59915055D01*
X124235208Y-59797618D01*
X124319684Y-59694683D01*
X124422617Y-59610208D01*
X124540054Y-59547436D01*
X124667483Y-59508781D01*
X124800000Y-59495730D01*
X124932516Y-59508781D01*
X124932516Y-59508781D01*
G37*
G36*
X117198228Y-60181703D02*
G01*
X117353100Y-60245853D01*
X117492481Y-60338985D01*
X117611015Y-60457519D01*
X117704147Y-60596900D01*
X117768297Y-60751772D01*
X117801000Y-60916184D01*
X117801000Y-61083816D01*
X117768297Y-61248228D01*
X117704147Y-61403100D01*
X117611015Y-61542481D01*
X117492481Y-61661015D01*
X117353100Y-61754147D01*
X117198228Y-61818297D01*
X117033816Y-61851000D01*
X116866184Y-61851000D01*
X116701772Y-61818297D01*
X116546900Y-61754147D01*
X116407519Y-61661015D01*
X116288985Y-61542481D01*
X116195853Y-61403100D01*
X116131703Y-61248228D01*
X116099000Y-61083816D01*
X116099000Y-60916184D01*
X116131703Y-60751772D01*
X116195853Y-60596900D01*
X116288985Y-60457519D01*
X116407519Y-60338985D01*
X116546900Y-60245853D01*
X116701772Y-60181703D01*
X116866184Y-60149000D01*
X117033816Y-60149000D01*
X117198228Y-60181703D01*
X117198228Y-60181703D01*
G37*
G36*
X130898228Y-59681703D02*
G01*
X131053100Y-59745853D01*
X131192481Y-59838985D01*
X131311015Y-59957519D01*
X131404147Y-60096900D01*
X131468297Y-60251772D01*
X131501000Y-60416184D01*
X131501000Y-60583816D01*
X131468297Y-60748228D01*
X131404147Y-60903100D01*
X131311015Y-61042481D01*
X131192481Y-61161015D01*
X131053100Y-61254147D01*
X130898228Y-61318297D01*
X130733816Y-61351000D01*
X130566184Y-61351000D01*
X130401772Y-61318297D01*
X130246900Y-61254147D01*
X130107519Y-61161015D01*
X129988985Y-61042481D01*
X129895853Y-60903100D01*
X129831703Y-60748228D01*
X129799000Y-60583816D01*
X129799000Y-60416184D01*
X129831703Y-60251772D01*
X129895853Y-60096900D01*
X129988985Y-59957519D01*
X130107519Y-59838985D01*
X130246900Y-59745853D01*
X130401772Y-59681703D01*
X130566184Y-59649000D01*
X130733816Y-59649000D01*
X130898228Y-59681703D01*
X130898228Y-59681703D01*
G37*
G36*
X152598228Y-39081703D02*
G01*
X152753100Y-39145853D01*
X152892481Y-39238985D01*
X153011015Y-39357519D01*
X153104147Y-39496900D01*
X153168297Y-39651772D01*
X153201000Y-39816184D01*
X153201000Y-39983816D01*
X153168297Y-40148228D01*
X153104147Y-40303100D01*
X153011015Y-40442481D01*
X152892481Y-40561015D01*
X152753100Y-40654147D01*
X152598228Y-40718297D01*
X152433816Y-40751000D01*
X152266184Y-40751000D01*
X152101772Y-40718297D01*
X151946900Y-40654147D01*
X151807519Y-40561015D01*
X151688985Y-40442481D01*
X151595853Y-40303100D01*
X151531703Y-40148228D01*
X151499000Y-39983816D01*
X151499000Y-39816184D01*
X151531703Y-39651772D01*
X151595853Y-39496900D01*
X151688985Y-39357519D01*
X151807519Y-39238985D01*
X151946900Y-39145853D01*
X152101772Y-39081703D01*
X152266184Y-39049000D01*
X152433816Y-39049000D01*
X152598228Y-39081703D01*
X152598228Y-39081703D01*
G37*
G36*
X166298228Y-38581703D02*
G01*
X166453100Y-38645853D01*
X166592481Y-38738985D01*
X166711015Y-38857519D01*
X166804147Y-38996900D01*
X166868297Y-39151772D01*
X166901000Y-39316184D01*
X166901000Y-39483816D01*
X166868297Y-39648228D01*
X166804147Y-39803100D01*
X166711015Y-39942481D01*
X166592481Y-40061015D01*
X166453100Y-40154147D01*
X166298228Y-40218297D01*
X166133816Y-40251000D01*
X165966184Y-40251000D01*
X165801772Y-40218297D01*
X165646900Y-40154147D01*
X165507519Y-40061015D01*
X165388985Y-39942481D01*
X165295853Y-39803100D01*
X165231703Y-39648228D01*
X165199000Y-39483816D01*
X165199000Y-39316184D01*
X165231703Y-39151772D01*
X165295853Y-38996900D01*
X165388985Y-38857519D01*
X165507519Y-38738985D01*
X165646900Y-38645853D01*
X165801772Y-38581703D01*
X165966184Y-38549000D01*
X166133816Y-38549000D01*
X166298228Y-38581703D01*
X166298228Y-38581703D01*
G37*
G36*
X156332516Y-36408781D02*
G01*
X156459945Y-36447436D01*
X156577382Y-36510208D01*
X156680317Y-36594684D01*
X156764792Y-36697617D01*
X156827564Y-36815054D01*
X156866219Y-36942483D01*
X156876000Y-37041795D01*
X156876000Y-39358205D01*
X156866219Y-39457517D01*
X156827564Y-39584946D01*
X156764792Y-39702383D01*
X156680317Y-39805317D01*
X156577383Y-39889792D01*
X156459946Y-39952564D01*
X156332517Y-39991219D01*
X156200000Y-40004270D01*
X156067484Y-39991219D01*
X155940055Y-39952564D01*
X155822618Y-39889792D01*
X155719684Y-39805317D01*
X155635209Y-39702383D01*
X155572437Y-39584946D01*
X155533782Y-39457517D01*
X155524001Y-39358205D01*
X155524000Y-37041796D01*
X155533781Y-36942484D01*
X155572436Y-36815055D01*
X155635208Y-36697618D01*
X155719684Y-36594683D01*
X155822617Y-36510208D01*
X155940054Y-36447436D01*
X156067483Y-36408781D01*
X156200000Y-36395730D01*
X156332516Y-36408781D01*
X156332516Y-36408781D01*
G37*
G36*
X162332516Y-36408781D02*
G01*
X162459945Y-36447436D01*
X162577382Y-36510208D01*
X162680317Y-36594684D01*
X162764792Y-36697617D01*
X162827564Y-36815054D01*
X162866219Y-36942483D01*
X162876000Y-37041795D01*
X162876000Y-39358205D01*
X162866219Y-39457517D01*
X162827564Y-39584946D01*
X162764792Y-39702383D01*
X162680317Y-39805317D01*
X162577383Y-39889792D01*
X162459946Y-39952564D01*
X162332517Y-39991219D01*
X162200000Y-40004270D01*
X162067484Y-39991219D01*
X161940055Y-39952564D01*
X161822618Y-39889792D01*
X161719684Y-39805317D01*
X161635209Y-39702383D01*
X161572437Y-39584946D01*
X161533782Y-39457517D01*
X161524001Y-39358205D01*
X161524000Y-37041796D01*
X161533781Y-36942484D01*
X161572436Y-36815055D01*
X161635208Y-36697618D01*
X161719684Y-36594683D01*
X161822617Y-36510208D01*
X161940054Y-36447436D01*
X162067483Y-36408781D01*
X162200000Y-36395730D01*
X162332516Y-36408781D01*
X162332516Y-36408781D01*
G37*
G36*
X160332516Y-36408781D02*
G01*
X160459945Y-36447436D01*
X160577382Y-36510208D01*
X160680317Y-36594684D01*
X160764792Y-36697617D01*
X160827564Y-36815054D01*
X160866219Y-36942483D01*
X160876000Y-37041795D01*
X160876000Y-39358205D01*
X160866219Y-39457517D01*
X160827564Y-39584946D01*
X160764792Y-39702383D01*
X160680317Y-39805317D01*
X160577383Y-39889792D01*
X160459946Y-39952564D01*
X160332517Y-39991219D01*
X160200000Y-40004270D01*
X160067484Y-39991219D01*
X159940055Y-39952564D01*
X159822618Y-39889792D01*
X159719684Y-39805317D01*
X159635209Y-39702383D01*
X159572437Y-39584946D01*
X159533782Y-39457517D01*
X159524001Y-39358205D01*
X159524000Y-37041796D01*
X159533781Y-36942484D01*
X159572436Y-36815055D01*
X159635208Y-36697618D01*
X159719684Y-36594683D01*
X159822617Y-36510208D01*
X159940054Y-36447436D01*
X160067483Y-36408781D01*
X160200000Y-36395730D01*
X160332516Y-36408781D01*
X160332516Y-36408781D01*
G37*
G36*
X158332516Y-36408781D02*
G01*
X158459945Y-36447436D01*
X158577382Y-36510208D01*
X158680317Y-36594684D01*
X158764792Y-36697617D01*
X158827564Y-36815054D01*
X158866219Y-36942483D01*
X158876000Y-37041795D01*
X158876000Y-39358205D01*
X158866219Y-39457517D01*
X158827564Y-39584946D01*
X158764792Y-39702383D01*
X158680317Y-39805317D01*
X158577383Y-39889792D01*
X158459946Y-39952564D01*
X158332517Y-39991219D01*
X158200000Y-40004270D01*
X158067484Y-39991219D01*
X157940055Y-39952564D01*
X157822618Y-39889792D01*
X157719684Y-39805317D01*
X157635209Y-39702383D01*
X157572437Y-39584946D01*
X157533782Y-39457517D01*
X157524001Y-39358205D01*
X157524000Y-37041796D01*
X157533781Y-36942484D01*
X157572436Y-36815055D01*
X157635208Y-36697618D01*
X157719684Y-36594683D01*
X157822617Y-36510208D01*
X157940054Y-36447436D01*
X158067483Y-36408781D01*
X158200000Y-36395730D01*
X158332516Y-36408781D01*
X158332516Y-36408781D01*
G37*
G36*
X87898228Y-38081703D02*
G01*
X88053100Y-38145853D01*
X88192481Y-38238985D01*
X88311015Y-38357519D01*
X88404147Y-38496900D01*
X88468297Y-38651772D01*
X88501000Y-38816184D01*
X88501000Y-38983816D01*
X88468297Y-39148228D01*
X88404147Y-39303100D01*
X88311015Y-39442481D01*
X88192481Y-39561015D01*
X88053100Y-39654147D01*
X87898228Y-39718297D01*
X87733816Y-39751000D01*
X87566184Y-39751000D01*
X87401772Y-39718297D01*
X87246900Y-39654147D01*
X87107519Y-39561015D01*
X86988985Y-39442481D01*
X86895853Y-39303100D01*
X86831703Y-39148228D01*
X86799000Y-38983816D01*
X86799000Y-38816184D01*
X86831703Y-38651772D01*
X86895853Y-38496900D01*
X86988985Y-38357519D01*
X87107519Y-38238985D01*
X87246900Y-38145853D01*
X87401772Y-38081703D01*
X87566184Y-38049000D01*
X87733816Y-38049000D01*
X87898228Y-38081703D01*
X87898228Y-38081703D01*
G37*
G36*
X101598228Y-37581703D02*
G01*
X101753100Y-37645853D01*
X101892481Y-37738985D01*
X102011015Y-37857519D01*
X102104147Y-37996900D01*
X102168297Y-38151772D01*
X102201000Y-38316184D01*
X102201000Y-38483816D01*
X102168297Y-38648228D01*
X102104147Y-38803100D01*
X102011015Y-38942481D01*
X101892481Y-39061015D01*
X101753100Y-39154147D01*
X101598228Y-39218297D01*
X101433816Y-39251000D01*
X101266184Y-39251000D01*
X101101772Y-39218297D01*
X100946900Y-39154147D01*
X100807519Y-39061015D01*
X100688985Y-38942481D01*
X100595853Y-38803100D01*
X100531703Y-38648228D01*
X100499000Y-38483816D01*
X100499000Y-38316184D01*
X100531703Y-38151772D01*
X100595853Y-37996900D01*
X100688985Y-37857519D01*
X100807519Y-37738985D01*
X100946900Y-37645853D01*
X101101772Y-37581703D01*
X101266184Y-37549000D01*
X101433816Y-37549000D01*
X101598228Y-37581703D01*
X101598228Y-37581703D01*
G37*
G36*
X93632516Y-35408781D02*
G01*
X93759945Y-35447436D01*
X93877382Y-35510208D01*
X93980317Y-35594684D01*
X94064792Y-35697617D01*
X94127564Y-35815054D01*
X94166219Y-35942483D01*
X94176000Y-36041795D01*
X94176000Y-38358205D01*
X94166219Y-38457517D01*
X94127564Y-38584946D01*
X94064792Y-38702383D01*
X93980317Y-38805317D01*
X93877383Y-38889792D01*
X93759946Y-38952564D01*
X93632517Y-38991219D01*
X93500000Y-39004270D01*
X93367484Y-38991219D01*
X93240055Y-38952564D01*
X93122618Y-38889792D01*
X93019684Y-38805317D01*
X92935209Y-38702383D01*
X92872437Y-38584946D01*
X92833782Y-38457517D01*
X92824001Y-38358205D01*
X92824000Y-36041796D01*
X92833781Y-35942484D01*
X92872436Y-35815055D01*
X92935208Y-35697618D01*
X93019684Y-35594683D01*
X93122617Y-35510208D01*
X93240054Y-35447436D01*
X93367483Y-35408781D01*
X93500000Y-35395730D01*
X93632516Y-35408781D01*
X93632516Y-35408781D01*
G37*
G36*
X91632516Y-35408781D02*
G01*
X91759945Y-35447436D01*
X91877382Y-35510208D01*
X91980317Y-35594684D01*
X92064792Y-35697617D01*
X92127564Y-35815054D01*
X92166219Y-35942483D01*
X92176000Y-36041795D01*
X92176000Y-38358205D01*
X92166219Y-38457517D01*
X92127564Y-38584946D01*
X92064792Y-38702383D01*
X91980317Y-38805317D01*
X91877383Y-38889792D01*
X91759946Y-38952564D01*
X91632517Y-38991219D01*
X91500000Y-39004270D01*
X91367484Y-38991219D01*
X91240055Y-38952564D01*
X91122618Y-38889792D01*
X91019684Y-38805317D01*
X90935209Y-38702383D01*
X90872437Y-38584946D01*
X90833782Y-38457517D01*
X90824001Y-38358205D01*
X90824000Y-36041796D01*
X90833781Y-35942484D01*
X90872436Y-35815055D01*
X90935208Y-35697618D01*
X91019684Y-35594683D01*
X91122617Y-35510208D01*
X91240054Y-35447436D01*
X91367483Y-35408781D01*
X91500000Y-35395730D01*
X91632516Y-35408781D01*
X91632516Y-35408781D01*
G37*
G36*
X97632516Y-35408781D02*
G01*
X97759945Y-35447436D01*
X97877382Y-35510208D01*
X97980317Y-35594684D01*
X98064792Y-35697617D01*
X98127564Y-35815054D01*
X98166219Y-35942483D01*
X98176000Y-36041795D01*
X98176000Y-38358205D01*
X98166219Y-38457517D01*
X98127564Y-38584946D01*
X98064792Y-38702383D01*
X97980317Y-38805317D01*
X97877383Y-38889792D01*
X97759946Y-38952564D01*
X97632517Y-38991219D01*
X97500000Y-39004270D01*
X97367484Y-38991219D01*
X97240055Y-38952564D01*
X97122618Y-38889792D01*
X97019684Y-38805317D01*
X96935209Y-38702383D01*
X96872437Y-38584946D01*
X96833782Y-38457517D01*
X96824001Y-38358205D01*
X96824000Y-36041796D01*
X96833781Y-35942484D01*
X96872436Y-35815055D01*
X96935208Y-35697618D01*
X97019684Y-35594683D01*
X97122617Y-35510208D01*
X97240054Y-35447436D01*
X97367483Y-35408781D01*
X97500000Y-35395730D01*
X97632516Y-35408781D01*
X97632516Y-35408781D01*
G37*
G36*
X95632516Y-35408781D02*
G01*
X95759945Y-35447436D01*
X95877382Y-35510208D01*
X95980317Y-35594684D01*
X96064792Y-35697617D01*
X96127564Y-35815054D01*
X96166219Y-35942483D01*
X96176000Y-36041795D01*
X96176000Y-38358205D01*
X96166219Y-38457517D01*
X96127564Y-38584946D01*
X96064792Y-38702383D01*
X95980317Y-38805317D01*
X95877383Y-38889792D01*
X95759946Y-38952564D01*
X95632517Y-38991219D01*
X95500000Y-39004270D01*
X95367484Y-38991219D01*
X95240055Y-38952564D01*
X95122618Y-38889792D01*
X95019684Y-38805317D01*
X94935209Y-38702383D01*
X94872437Y-38584946D01*
X94833782Y-38457517D01*
X94824001Y-38358205D01*
X94824000Y-36041796D01*
X94833781Y-35942484D01*
X94872436Y-35815055D01*
X94935208Y-35697618D01*
X95019684Y-35594683D01*
X95122617Y-35510208D01*
X95240054Y-35447436D01*
X95367483Y-35408781D01*
X95500000Y-35395730D01*
X95632516Y-35408781D01*
X95632516Y-35408781D01*
G37*
G36*
X152598228Y-37081703D02*
G01*
X152753100Y-37145853D01*
X152892481Y-37238985D01*
X153011015Y-37357519D01*
X153104147Y-37496900D01*
X153168297Y-37651772D01*
X153201000Y-37816184D01*
X153201000Y-37983816D01*
X153168297Y-38148228D01*
X153104147Y-38303100D01*
X153011015Y-38442481D01*
X152892481Y-38561015D01*
X152753100Y-38654147D01*
X152598228Y-38718297D01*
X152433816Y-38751000D01*
X152266184Y-38751000D01*
X152101772Y-38718297D01*
X151946900Y-38654147D01*
X151807519Y-38561015D01*
X151688985Y-38442481D01*
X151595853Y-38303100D01*
X151531703Y-38148228D01*
X151499000Y-37983816D01*
X151499000Y-37816184D01*
X151531703Y-37651772D01*
X151595853Y-37496900D01*
X151688985Y-37357519D01*
X151807519Y-37238985D01*
X151946900Y-37145853D01*
X152101772Y-37081703D01*
X152266184Y-37049000D01*
X152433816Y-37049000D01*
X152598228Y-37081703D01*
X152598228Y-37081703D01*
G37*
G36*
X166298228Y-36581703D02*
G01*
X166453100Y-36645853D01*
X166592481Y-36738985D01*
X166711015Y-36857519D01*
X166804147Y-36996900D01*
X166868297Y-37151772D01*
X166901000Y-37316184D01*
X166901000Y-37483816D01*
X166868297Y-37648228D01*
X166804147Y-37803100D01*
X166711015Y-37942481D01*
X166592481Y-38061015D01*
X166453100Y-38154147D01*
X166298228Y-38218297D01*
X166133816Y-38251000D01*
X165966184Y-38251000D01*
X165801772Y-38218297D01*
X165646900Y-38154147D01*
X165507519Y-38061015D01*
X165388985Y-37942481D01*
X165295853Y-37803100D01*
X165231703Y-37648228D01*
X165199000Y-37483816D01*
X165199000Y-37316184D01*
X165231703Y-37151772D01*
X165295853Y-36996900D01*
X165388985Y-36857519D01*
X165507519Y-36738985D01*
X165646900Y-36645853D01*
X165801772Y-36581703D01*
X165966184Y-36549000D01*
X166133816Y-36549000D01*
X166298228Y-36581703D01*
X166298228Y-36581703D01*
G37*
G36*
X87898228Y-36081703D02*
G01*
X88053100Y-36145853D01*
X88192481Y-36238985D01*
X88311015Y-36357519D01*
X88404147Y-36496900D01*
X88468297Y-36651772D01*
X88501000Y-36816184D01*
X88501000Y-36983816D01*
X88468297Y-37148228D01*
X88404147Y-37303100D01*
X88311015Y-37442481D01*
X88192481Y-37561015D01*
X88053100Y-37654147D01*
X87898228Y-37718297D01*
X87733816Y-37751000D01*
X87566184Y-37751000D01*
X87401772Y-37718297D01*
X87246900Y-37654147D01*
X87107519Y-37561015D01*
X86988985Y-37442481D01*
X86895853Y-37303100D01*
X86831703Y-37148228D01*
X86799000Y-36983816D01*
X86799000Y-36816184D01*
X86831703Y-36651772D01*
X86895853Y-36496900D01*
X86988985Y-36357519D01*
X87107519Y-36238985D01*
X87246900Y-36145853D01*
X87401772Y-36081703D01*
X87566184Y-36049000D01*
X87733816Y-36049000D01*
X87898228Y-36081703D01*
X87898228Y-36081703D01*
G37*
G36*
X101598228Y-35581703D02*
G01*
X101753100Y-35645853D01*
X101892481Y-35738985D01*
X102011015Y-35857519D01*
X102104147Y-35996900D01*
X102168297Y-36151772D01*
X102201000Y-36316184D01*
X102201000Y-36483816D01*
X102168297Y-36648228D01*
X102104147Y-36803100D01*
X102011015Y-36942481D01*
X101892481Y-37061015D01*
X101753100Y-37154147D01*
X101598228Y-37218297D01*
X101433816Y-37251000D01*
X101266184Y-37251000D01*
X101101772Y-37218297D01*
X100946900Y-37154147D01*
X100807519Y-37061015D01*
X100688985Y-36942481D01*
X100595853Y-36803100D01*
X100531703Y-36648228D01*
X100499000Y-36483816D01*
X100499000Y-36316184D01*
X100531703Y-36151772D01*
X100595853Y-35996900D01*
X100688985Y-35857519D01*
X100807519Y-35738985D01*
X100946900Y-35645853D01*
X101101772Y-35581703D01*
X101266184Y-35549000D01*
X101433816Y-35549000D01*
X101598228Y-35581703D01*
X101598228Y-35581703D01*
G37*
M02*
