G04 #@! TF.GenerationSoftware,KiCad,Pcbnew,(5.1.2)-2*
G04 #@! TF.CreationDate,2019-09-18T13:02:42-07:00*
G04 #@! TF.ProjectId,Cable Tester Board,4361626c-6520-4546-9573-74657220426f,rev?*
G04 #@! TF.SameCoordinates,Original*
G04 #@! TF.FileFunction,Copper,L2,Bot*
G04 #@! TF.FilePolarity,Positive*
%FSLAX46Y46*%
G04 Gerber Fmt 4.6, Leading zero omitted, Abs format (unit mm)*
G04 Created by KiCad (PCBNEW (5.1.2)-2) date 2019-09-18 13:02:42*
%MOMM*%
%LPD*%
G04 APERTURE LIST*
%ADD10C,0.050000*%
%ADD11C,1.600000*%
%ADD12C,1.524000*%
G04 APERTURE END LIST*
D10*
X27100000Y-29500000D02*
X27100000Y-135500000D01*
X27100000Y-135500000D02*
X185000000Y-135500000D01*
X185000000Y-29500000D02*
X185000000Y-135500000D01*
X27100000Y-29500000D02*
X185000000Y-29500000D01*
D11*
X95450000Y-122600000D03*
X95450000Y-124600000D03*
X81750000Y-123100000D03*
X81750000Y-125100000D03*
X111850000Y-102600000D03*
X111850000Y-100600000D03*
X125550000Y-102100000D03*
X125550000Y-100100000D03*
X160150000Y-123600000D03*
X160150000Y-125600000D03*
X146450000Y-124100000D03*
X146450000Y-126100000D03*
X166050000Y-37400000D03*
X166050000Y-39400000D03*
X152350000Y-37900000D03*
X152350000Y-39900000D03*
X116950000Y-63000000D03*
X116950000Y-61000000D03*
X130650000Y-62500000D03*
X130650000Y-60500000D03*
X101350000Y-36400000D03*
X101350000Y-38400000D03*
X87650000Y-36900000D03*
X87650000Y-38900000D03*
D12*
X52830000Y-81630000D03*
X55370000Y-81630000D03*
X57910000Y-81630000D03*
X60450000Y-81630000D03*
X62990000Y-81630000D03*
X65530000Y-81630000D03*
X68070000Y-81630000D03*
X70610000Y-81630000D03*
X73150000Y-81630000D03*
X75690000Y-81630000D03*
X78230000Y-81630000D03*
X80770000Y-81630000D03*
X83310000Y-81630000D03*
X85850000Y-81630000D03*
X88390000Y-81630000D03*
X90930000Y-81630000D03*
X93470000Y-81630000D03*
X96010000Y-81630000D03*
X98550000Y-81630000D03*
X101090000Y-81630000D03*
X103630000Y-81630000D03*
X106170000Y-81630000D03*
X108710000Y-81630000D03*
X111250000Y-81630000D03*
X113790000Y-81630000D03*
X116330000Y-81630000D03*
X118870000Y-81630000D03*
X121410000Y-81630000D03*
X123950000Y-81630000D03*
X126490000Y-81630000D03*
X129030000Y-81630000D03*
X131570000Y-81630000D03*
X52830000Y-84170000D03*
X55370000Y-84170000D03*
X57910000Y-84170000D03*
X60450000Y-84170000D03*
X62990000Y-84170000D03*
X65530000Y-84170000D03*
X68070000Y-84170000D03*
X70610000Y-84170000D03*
X73150000Y-84170000D03*
X75690000Y-84170000D03*
X78230000Y-84170000D03*
X80770000Y-84170000D03*
X83310000Y-84170000D03*
X85850000Y-84170000D03*
X88390000Y-84170000D03*
X90930000Y-84170000D03*
X93470000Y-84170000D03*
X96010000Y-84170000D03*
X98550000Y-84170000D03*
X101090000Y-84170000D03*
X103630000Y-84170000D03*
X106170000Y-84170000D03*
X108710000Y-84170000D03*
X111250000Y-84170000D03*
X113790000Y-84170000D03*
X116330000Y-84170000D03*
X118870000Y-84170000D03*
X121410000Y-84170000D03*
X123950000Y-84170000D03*
X126490000Y-84170000D03*
X129030000Y-84170000D03*
X131570000Y-84170000D03*
M02*
