G04 #@! TF.GenerationSoftware,KiCad,Pcbnew,(5.1.2)-2*
G04 #@! TF.CreationDate,2019-09-18T13:02:42-07:00*
G04 #@! TF.ProjectId,Cable Tester Board,4361626c-6520-4546-9573-74657220426f,rev?*
G04 #@! TF.SameCoordinates,Original*
G04 #@! TF.FileFunction,Paste,Top*
G04 #@! TF.FilePolarity,Positive*
%FSLAX46Y46*%
G04 Gerber Fmt 4.6, Leading zero omitted, Abs format (unit mm)*
G04 Created by KiCad (PCBNEW (5.1.2)-2) date 2019-09-18 13:02:42*
%MOMM*%
%LPD*%
G04 APERTURE LIST*
%ADD10C,0.050000*%
%ADD11O,1.200000X0.300000*%
%ADD12O,0.600000X0.300000*%
%ADD13O,1.250000X3.500000*%
G04 APERTURE END LIST*
D10*
X27100000Y-29500000D02*
X27100000Y-135500000D01*
X27100000Y-135500000D02*
X185000000Y-135500000D01*
X185000000Y-29500000D02*
X185000000Y-135500000D01*
X27100000Y-29500000D02*
X185000000Y-29500000D01*
D11*
X79650000Y-105100000D03*
X79650000Y-104600000D03*
X79650000Y-104100000D03*
X79650000Y-103600000D03*
X79650000Y-103100000D03*
X79650000Y-102600000D03*
X79650000Y-102100000D03*
X79650000Y-101600000D03*
X79650000Y-101100000D03*
X79650000Y-100600000D03*
X74550000Y-105100000D03*
X74550000Y-104600000D03*
X74550000Y-104100000D03*
X74550000Y-103600000D03*
X74550000Y-103100000D03*
X74550000Y-102600000D03*
X74550000Y-102100000D03*
X74550000Y-101600000D03*
X74550000Y-101100000D03*
D12*
X77800000Y-100600000D03*
X77800000Y-101100000D03*
X77800000Y-101600000D03*
X77800000Y-102100000D03*
X77800000Y-102600000D03*
X77800000Y-103100000D03*
X77800000Y-103600000D03*
X77800000Y-104100000D03*
X77800000Y-104600000D03*
X77800000Y-105100000D03*
X76400000Y-100600000D03*
X76400000Y-101100000D03*
X76400000Y-101600000D03*
X76400000Y-102100000D03*
X76400000Y-102600000D03*
X76400000Y-103100000D03*
X76400000Y-103600000D03*
X76400000Y-104100000D03*
X76400000Y-104600000D03*
X76400000Y-105100000D03*
D11*
X74550000Y-100600000D03*
X79350000Y-65200000D03*
X79350000Y-64700000D03*
X79350000Y-64200000D03*
X79350000Y-63700000D03*
X79350000Y-63200000D03*
X79350000Y-62700000D03*
X79350000Y-62200000D03*
X79350000Y-61700000D03*
X79350000Y-61200000D03*
X79350000Y-60700000D03*
X74250000Y-65200000D03*
X74250000Y-64700000D03*
X74250000Y-64200000D03*
X74250000Y-63700000D03*
X74250000Y-63200000D03*
X74250000Y-62700000D03*
X74250000Y-62200000D03*
X74250000Y-61700000D03*
X74250000Y-61200000D03*
D12*
X77500000Y-60700000D03*
X77500000Y-61200000D03*
X77500000Y-61700000D03*
X77500000Y-62200000D03*
X77500000Y-62700000D03*
X77500000Y-63200000D03*
X77500000Y-63700000D03*
X77500000Y-64200000D03*
X77500000Y-64700000D03*
X77500000Y-65200000D03*
X76100000Y-60700000D03*
X76100000Y-61200000D03*
X76100000Y-61700000D03*
X76100000Y-62200000D03*
X76100000Y-62700000D03*
X76100000Y-63200000D03*
X76100000Y-63700000D03*
X76100000Y-64200000D03*
X76100000Y-64700000D03*
X76100000Y-65200000D03*
D11*
X74250000Y-60700000D03*
D13*
X91600000Y-124300000D03*
X89600000Y-124300000D03*
X87600000Y-124300000D03*
X85600000Y-124300000D03*
X115700000Y-101800000D03*
X117700000Y-101800000D03*
X119700000Y-101800000D03*
X121700000Y-101800000D03*
X156300000Y-125300000D03*
X154300000Y-125300000D03*
X152300000Y-125300000D03*
X150300000Y-125300000D03*
X162200000Y-38200000D03*
X160200000Y-38200000D03*
X158200000Y-38200000D03*
X156200000Y-38200000D03*
X120800000Y-61300000D03*
X122800000Y-61300000D03*
X124800000Y-61300000D03*
X126800000Y-61300000D03*
X97500000Y-37200000D03*
X95500000Y-37200000D03*
X93500000Y-37200000D03*
X91500000Y-37200000D03*
M02*
